<svg width="183" height="175" viewBox="0 0 183 175" fill="none" xmlns="http://www.w3.org/2000/svg">
<g clip-path="url(#clip0_60_1945)">
<path d="M130.291 37.3995H43.9985V10.0034H130.287C132.821 10.0034 134.877 12.051 134.877 14.5759V32.827C134.877 35.3518 132.821 37.3995 130.287 37.3995H130.291Z" fill="#CAFFF0"/>
<path d="M134.88 27.3962V32.6632C134.88 35.2771 132.75 37.3995 130.127 37.3995H71.1377V26.6982C72.6925 27.1505 74.3366 27.3962 76.038 27.3962H134.877H134.88Z" fill="#AAF2E4"/>
<path d="M43.5769 47.4029H3.99955C1.79068 47.4029 0 45.6187 0 43.4215V3.98496C0 1.78415 1.79068 0 3.99955 0H43.5769C45.7857 0 47.5729 1.78415 47.5729 3.98496V43.4179C47.5729 45.6187 45.7822 47.3993 43.5733 47.3993L43.5769 47.4029Z" fill="#5ED4CD"/>
<path d="M35.3992 47.4029H11.4126V39.0768C11.4126 36.2315 13.7287 33.9203 16.5881 33.9203H30.2273C33.0867 33.9203 35.4028 36.2279 35.4028 39.0768V47.4029H35.3992Z" fill="#CAFFF0"/>
<path d="M30.4989 16.6343C30.4989 20.5373 27.3214 23.6997 23.4077 23.6997C19.4939 23.6997 16.3164 20.5373 16.3164 16.6343C16.3164 12.7312 19.4903 9.56891 23.4077 9.56891C27.325 9.56891 30.4989 12.7312 30.4989 16.6343Z" fill="white"/>
<path d="M178.411 101.198H43.9985V73.8019H178.407C180.941 73.8019 182.996 75.8496 182.996 78.3745V96.6255C182.996 99.1504 180.941 101.198 178.407 101.198H178.411Z" fill="#FF8000"/>
<path d="M57.4484 73.8019H47.5764V101.198H178.246C180.873 101.198 183 99.0792 183 96.4617V91.1947H74.9049C65.2652 91.1947 57.4484 83.4064 57.4484 73.8019Z" fill="#FF5F06"/>
<path d="M43.5769 111.201H3.99955C1.79068 111.201 0 109.417 0 107.22V67.7871C0 65.5863 1.79068 63.8021 3.99955 63.8021H43.5769C45.7857 63.8021 47.5729 65.5863 47.5729 67.7871V107.22C47.5729 109.421 45.7822 111.201 43.5733 111.201H43.5769Z" fill="#FFD782"/>
<path d="M35.3992 111.201H11.4126V102.875C11.4126 100.026 13.7287 97.7188 16.5881 97.7188H30.2273C33.0867 97.7188 35.4028 100.026 35.4028 102.875V111.201H35.3992Z" fill="#FFF7D2"/>
<path d="M30.4989 80.4328C30.4989 84.3359 27.3214 87.4982 23.4077 87.4982C19.4939 87.4982 16.3164 84.3323 16.3164 80.4328C16.3164 76.5334 19.4903 73.3675 23.4077 73.3675C27.325 73.3675 30.4989 76.5298 30.4989 80.4328Z" fill="white"/>
<path d="M157.298 164.997H43.9985V137.6H157.294C159.828 137.6 161.883 139.648 161.883 142.173V160.424C161.883 162.949 159.828 164.997 157.294 164.997H157.298Z" fill="#C7F1FF"/>
<path d="M47.5728 137.6H58.131V137.622L47.5728 137.6Z" fill="#87DBFF"/>
<path d="M161.887 154.993V160.26C161.887 162.874 159.757 164.997 157.133 164.997H102.237V154.993H161.887Z" fill="#87DBFF"/>
<path d="M43.5769 175H3.99955C1.79068 175 0 173.216 0 171.019V131.582C0 129.381 1.79068 127.597 3.99955 127.597H43.5769C45.7857 127.597 47.5729 129.381 47.5729 131.582V171.019C47.5729 173.216 45.7822 175 43.5733 175H43.5769Z" fill="#57AFFF"/>
<path d="M35.3992 175H11.4126V166.674C11.4126 163.825 13.7287 161.517 16.5881 161.517H30.2273C33.0867 161.517 35.4028 163.825 35.4028 166.674V175H35.3992Z" fill="#C7F1FF"/>
<path d="M30.4989 144.235C30.4989 148.138 27.3214 151.3 23.4077 151.3C19.4939 151.3 16.3164 148.138 16.3164 144.235C16.3164 140.332 19.4903 137.17 23.4077 137.17C27.325 137.17 30.4989 140.332 30.4989 144.235Z" fill="white"/>
<path d="M71.1376 26.6982V37.3995H47.5728V10.0034H58.5849C58.5849 17.9127 63.8855 24.5864 71.1376 26.6982Z" fill="#29998B"/>
<path d="M71.1376 10.0034V26.6982C63.8855 24.5864 58.585 17.9127 58.585 10.0034H71.1376Z" fill="#2FA39B"/>
<path d="M102.237 154.993V164.997H47.5764V137.6L58.1347 137.622C58.1454 147.216 65.9586 154.993 75.5876 154.993H102.237Z" fill="#3375D3"/>
<path d="M102.237 137.707V154.993H75.5913C65.9587 154.993 58.1455 147.216 58.1348 137.622L102.237 137.707Z" fill="#3A85DD"/>
</g>
<defs>
<clipPath id="clip0_60_1945">
<rect width="183" height="175" fill="white"/>
</clipPath>
</defs>
</svg>
