<svg width="238" height="37" viewBox="0 0 238 37" fill="none" xmlns="http://www.w3.org/2000/svg">
<path d="M6.93208 24.0344C7.00771 24.0199 7.05585 23.9475 7.04897 23.8679V22.2463C7.04897 22.2463 7.04897 22.2173 7.04897 22.2029C7.03522 22.1232 6.96646 22.0725 6.89082 22.0798H4.94493C4.94493 22.0798 4.91743 22.0798 4.90368 22.0798C4.82804 22.0943 4.77991 22.1667 4.78678 22.2463V23.8679C4.78678 23.8679 4.78678 23.8968 4.78678 23.9113C4.80054 23.991 4.8693 24.0416 4.94493 24.0344H6.89082C6.89082 24.0344 6.91833 24.0344 6.93208 24.0344Z" fill="#4C3C8D"/>
<path d="M11.6272 19.8212C11.7854 20.1325 12.0467 20.3786 12.363 20.5017C12.6724 20.603 12.9956 20.6465 13.3187 20.6465C13.3187 20.6465 13.3325 20.6465 13.3393 20.6465H13.3737C13.3737 20.6465 13.3806 20.6465 13.3875 20.6465H15.4434C15.9591 20.7044 16.4679 20.5161 16.8461 20.1397C17.1624 19.6836 17.3136 19.1262 17.2655 18.5615V13.856C17.2655 13.856 17.2655 13.827 17.2655 13.8126C17.2518 13.7329 17.183 13.6823 17.1074 13.6895H15.2234C15.2234 13.6895 15.1959 13.6895 15.1821 13.6895C15.1065 13.704 15.0583 13.7764 15.0652 13.856V17.7725C15.0927 18.0186 15.024 18.2647 14.8864 18.4602C14.7283 18.5977 14.522 18.6701 14.3157 18.6484H13.0437C12.7411 18.6701 12.4455 18.5905 12.1911 18.4168C11.9917 18.272 11.8679 18.0403 11.8541 17.7869V13.856C11.8541 13.856 11.8541 13.827 11.8541 13.8126C11.8404 13.7329 11.7716 13.6823 11.696 13.6895H9.78449C9.78449 13.6895 9.75698 13.6895 9.74323 13.6895C9.6676 13.704 9.61946 13.7764 9.62634 13.856V17.4105C9.64697 17.7435 9.60571 18.0765 9.4957 18.3878C9.40631 18.5615 9.19316 18.6556 8.86311 18.6556H2.98418C2.7779 18.6774 2.57162 18.605 2.41348 18.4674C2.26908 18.272 2.2072 18.0258 2.2347 17.7797V14.9202C2.2347 14.9202 2.2347 14.8912 2.2347 14.8767C2.22095 14.7971 2.15219 14.7464 2.07655 14.7537H0.165042C0.165042 14.7537 0.137538 14.7537 0.123786 14.7537C0.0481506 14.7682 1.89813e-05 14.8405 0.00689492 14.9202V18.5688C-0.0343607 19.1334 0.110034 19.6909 0.426327 20.1397C0.804504 20.5161 1.3202 20.6971 1.8359 20.6465H9.63322C10.0733 20.6609 10.5065 20.6103 10.9259 20.48C11.2353 20.3714 11.4897 20.1325 11.6272 19.8212Z" fill="#4C3C8D"/>
<path d="M15.4906 22.0871H13.9228C13.9228 22.0871 13.8953 22.0871 13.8816 22.0871C13.8059 22.1015 13.7578 22.1739 13.7647 22.2536V23.8752C13.7647 23.8752 13.7647 23.9041 13.7647 23.9186C13.7784 23.9982 13.8472 24.0489 13.9228 24.0417H15.4906C15.4906 24.0417 15.5181 24.0417 15.5318 24.0417C15.6074 24.0272 15.6556 23.9548 15.6487 23.8752V22.2536C15.6487 22.2536 15.6487 22.2246 15.6487 22.2101C15.6349 22.1305 15.5662 22.0798 15.4906 22.0871Z" fill="#4C3C8D"/>
<path d="M16.295 22.0871C16.2194 22.1015 16.1713 22.1739 16.1781 22.2536V23.8752C16.1781 23.8752 16.1781 23.9041 16.1781 23.9186C16.1919 23.9982 16.2607 24.0489 16.3363 24.0417H17.9178C17.9178 24.0417 17.9453 24.0417 17.959 24.0417C18.0346 24.0272 18.0828 23.9548 18.0759 23.8752V22.2536C18.0759 22.2536 18.0759 22.2246 18.0759 22.2101C18.0622 22.1305 17.9934 22.0798 17.9178 22.0871H16.3363C16.3363 22.0871 16.3088 22.0871 16.295 22.0871Z" fill="#4C3C8D"/>
<path d="M22.2918 20.7188V13.8632C22.2918 13.8632 22.2918 13.8343 22.2918 13.8198C22.2781 13.7402 22.2093 13.6895 22.1337 13.6967H20.2221C20.2221 13.6967 20.1946 13.6967 20.1809 13.6967C20.1053 13.7112 20.0571 13.7836 20.064 13.8632V20.6392C20.0915 21.0157 19.9952 21.3849 19.789 21.6961C19.5483 21.9495 19.2114 22.0798 18.8676 22.0436H18.5238C18.5238 22.0436 18.4963 22.0436 18.4825 22.0436C18.4069 22.0581 18.3588 22.1305 18.3656 22.2101V23.8752C18.3656 23.8752 18.3656 23.9041 18.3656 23.9186C18.3794 23.9982 18.4482 24.0489 18.5238 24.0417H19.2389C20.0778 24.1141 20.9029 23.8173 21.5286 23.2309C22.0855 22.5287 22.3537 21.631 22.2849 20.7188H22.2918Z" fill="#4C3C8D"/>
<path d="M34.9985 12.0244H36.58C36.58 12.0244 36.6075 12.0244 36.6212 12.0244C36.6969 12.01 36.745 11.9376 36.7381 11.8579V10.2363C36.7381 10.2363 36.7381 10.2074 36.7381 10.1929C36.7244 10.1133 36.6556 10.0626 36.58 10.0698H34.9985C34.9985 10.0698 34.971 10.0698 34.9573 10.0698C34.8816 10.0843 34.8335 10.1567 34.8404 10.2363V11.8507C34.8404 11.8507 34.8404 11.8797 34.8404 11.8941C34.8541 11.9738 34.9229 12.0244 34.9985 12.0172V12.0244Z" fill="#4C3C8D"/>
<path d="M32.5848 12.0245H34.1525C34.1525 12.0245 34.18 12.0245 34.1938 12.0245C34.2694 12.01 34.3176 11.9376 34.3107 11.858V10.2364C34.3107 10.2364 34.3107 10.2074 34.3107 10.1929C34.2969 10.1133 34.2282 10.0626 34.1525 10.0699H32.5848C32.5848 10.0699 32.5573 10.0699 32.5436 10.0699C32.4679 10.0843 32.4198 10.1567 32.4267 10.2364V11.8507C32.4267 11.8507 32.4267 11.8797 32.4267 11.8942C32.4404 11.9738 32.5092 12.0245 32.5848 12.0172V12.0245Z" fill="#4C3C8D"/>
<path d="M40.6299 9.41832H38.7184C38.7184 9.41832 38.6909 9.41832 38.6772 9.41832C38.6015 9.4328 38.5534 9.50519 38.5603 9.58482V17.7797C38.5878 18.0258 38.519 18.272 38.3815 18.4674C38.2233 18.605 38.0171 18.6774 37.8108 18.6557H37.2676C37.2676 18.6557 37.2538 18.6557 37.2401 18.6557H36.8825C36.58 18.6774 36.2775 18.5905 36.0299 18.4168C35.8305 18.2647 35.7067 18.0258 35.693 17.7652V13.8705C35.693 13.8705 35.693 13.8415 35.693 13.827C35.6792 13.7474 35.6105 13.6967 35.5348 13.704H33.6508C33.6508 13.704 33.6233 13.704 33.6096 13.704C33.5339 13.7185 33.4858 13.7908 33.4927 13.8705V17.3019C33.5133 17.6566 33.4721 18.0114 33.3689 18.3516C33.2864 18.5543 33.0733 18.6557 32.7432 18.6557H31.7737C31.7737 18.6557 31.7462 18.6629 31.7256 18.6629H31.3749C31.0724 18.6774 30.7767 18.5977 30.5223 18.424C30.3229 18.272 30.1991 18.0331 30.1854 17.7725V16.397C30.2679 15.5428 29.9791 14.6958 29.3946 14.1021C28.7414 13.6171 27.9438 13.3782 27.1462 13.4361H24.6846C24.6846 13.4361 24.6571 13.4361 24.6434 13.4361C24.5677 13.4506 24.5196 13.523 24.5265 13.6026V15.2677C24.5265 15.2677 24.5265 15.2966 24.5265 15.3111C24.5402 15.3907 24.609 15.4414 24.6846 15.4342H26.4861C26.8574 15.4052 27.2287 15.5066 27.545 15.7237C27.7994 15.9554 27.9301 16.3029 27.8957 16.6576V17.548C27.8957 17.7218 27.8819 17.9028 27.8544 18.0765C27.8338 18.2068 27.7788 18.3226 27.6963 18.424C27.6 18.5253 27.4762 18.5905 27.3456 18.6122C27.1393 18.6557 26.9262 18.6774 26.7199 18.6701H24.0245C24.0245 18.6701 23.997 18.6701 23.9833 18.6701C23.9076 18.6846 23.8595 18.757 23.8664 18.8366V20.5017C23.8664 20.5017 23.8664 20.5306 23.8664 20.5451C23.8801 20.6247 23.9489 20.6754 24.0245 20.6682H27.82C28.2395 20.6827 28.6589 20.6103 29.0508 20.4655C29.3809 20.3279 29.6628 20.0673 29.8278 19.7271C29.986 20.0746 30.261 20.3424 30.6048 20.4872C30.9692 20.6175 31.3474 20.6754 31.7256 20.6682C31.7393 20.6682 31.7462 20.6682 31.76 20.6609C31.76 20.6609 31.7668 20.6609 31.7737 20.6609H33.3896C33.8434 20.6754 34.2972 20.6247 34.7372 20.5161C35.0673 20.4148 35.3354 20.1687 35.4798 19.8357C35.638 20.1542 35.8993 20.3931 36.2156 20.5161C36.5181 20.6103 36.8413 20.6537 37.1576 20.6609C37.192 20.6609 37.2332 20.6754 37.2676 20.6682H38.9659C39.4816 20.7261 39.9973 20.5379 40.3755 20.1614C40.6918 19.7053 40.8431 19.1479 40.8018 18.5833V9.58482C40.8018 9.58482 40.8018 9.55587 40.8018 9.54139C40.7881 9.46175 40.7193 9.41108 40.6437 9.41832H40.6299Z" fill="#4C3C8D"/>
<path d="M42.8651 9.41833H44.6665C44.7766 9.41833 44.866 9.51245 44.866 9.62827V20.4438C44.866 20.5596 44.7766 20.6537 44.6665 20.6537H42.8651C42.755 20.6537 42.6656 20.5596 42.6656 20.4438V9.62827C42.6656 9.51245 42.755 9.41833 42.8651 9.41833Z" fill="#4C3C8D"/>
<path d="M52.6492 23.2743C53.1924 22.6445 53.4605 21.812 53.3987 20.965V17.1137C53.4124 16.5056 53.323 15.9047 53.1236 15.34C52.9655 14.8984 52.7111 14.5075 52.3741 14.2035C52.051 13.9211 51.6797 13.7112 51.274 13.6026C50.8408 13.4795 50.4007 13.4216 49.9538 13.4216C49.5206 13.4216 49.0874 13.4868 48.6749 13.6171C48.2692 13.7474 47.891 13.9646 47.5747 14.2614C47.2378 14.5872 46.9765 14.9853 46.8046 15.4342C46.5983 16.0061 46.4952 16.6069 46.5158 17.215C46.4952 17.8231 46.5846 18.4312 46.7909 19.0104C46.9559 19.4302 47.2309 19.7922 47.5885 20.0528C47.9735 20.3134 48.4067 20.4799 48.8605 20.5378C49.4175 20.6175 49.9813 20.6609 50.5451 20.6537H51.2052C51.2121 20.8998 51.1777 21.1532 51.1021 21.3921C50.9921 21.7251 50.717 21.964 50.387 22.0002C50.2013 22.0291 50.0088 22.0436 49.8232 22.0436H48.0217C48.0217 22.0436 47.9942 22.0436 47.9804 22.0436C47.9048 22.0581 47.8566 22.1305 47.8635 22.2101V23.8752C47.8635 23.8752 47.8635 23.9041 47.8635 23.9186C47.8773 23.9982 47.946 24.0489 48.0217 24.0417H50.3114C51.1571 24.1141 51.9891 23.8462 52.6492 23.2815V23.2743ZM49.9951 18.6484C49.6513 18.6629 49.3075 18.5543 49.0324 18.3443C48.7436 18.0186 48.6061 17.5697 48.6611 17.1281C48.6405 16.6865 48.7574 16.245 48.9912 15.8757C49.225 15.5645 49.5894 15.3907 49.9607 15.4124C50.7858 15.4124 51.1984 15.9554 51.1984 17.0485V18.6484H49.9882H49.9951Z" fill="#4C3C8D"/>
<path d="M73.3186 24.0344C73.3943 24.0199 73.4424 23.9475 73.4355 23.8679V22.2463C73.4355 22.2463 73.4355 22.2173 73.4355 22.2029C73.4218 22.1232 73.353 22.0725 73.2774 22.0798H71.6959C71.6959 22.0798 71.6684 22.0798 71.6547 22.0798C71.579 22.0943 71.5309 22.1667 71.5378 22.2463V23.8679C71.5378 23.8679 71.5378 23.8968 71.5378 23.9113C71.5515 23.991 71.6203 24.0416 71.6959 24.0344H73.2774C73.2774 24.0344 73.3049 24.0344 73.3186 24.0344Z" fill="#4C3C8D"/>
<path d="M70.8913 24.0344C70.9669 24.0199 71.0151 23.9475 71.0082 23.8679V22.2463C71.0082 22.2463 71.0082 22.2173 71.0082 22.2029C70.9944 22.1232 70.9257 22.0725 70.85 22.0798H69.2823C69.2823 22.0798 69.2548 22.0798 69.2411 22.0798C69.1654 22.0943 69.1173 22.1667 69.1242 22.2463V23.8679C69.1242 23.8679 69.1242 23.8968 69.1242 23.9113C69.1379 23.991 69.2067 24.0416 69.2823 24.0344H70.85C70.85 24.0344 70.8776 24.0344 70.8913 24.0344Z" fill="#4C3C8D"/>
<path d="M89.0014 12.0245H90.5692C90.5692 12.0245 90.5967 12.0245 90.6104 12.0245C90.6861 12.01 90.7342 11.9376 90.7273 11.858V10.2364C90.7273 10.2364 90.7273 10.2074 90.7273 10.1929C90.7136 10.1133 90.6448 10.0626 90.5692 10.0699H89.0014C89.0014 10.0699 88.9739 10.0699 88.9602 10.0699C88.8846 10.0843 88.8364 10.1567 88.8433 10.2364V11.8507C88.8433 11.8507 88.8433 11.8797 88.8433 11.8942C88.8571 11.9738 88.9258 12.0245 89.0014 12.0172V12.0245Z" fill="#4C3C8D"/>
<path d="M91.415 12.0245H92.9965C92.9965 12.0245 93.024 12.0245 93.0377 12.0245C93.1134 12.01 93.1615 11.9376 93.1546 11.858V10.2364C93.1546 10.2364 93.1546 10.2074 93.1546 10.1929C93.1409 10.1133 93.0721 10.0626 92.9965 10.0699H91.415C91.415 10.0699 91.3875 10.0699 91.3738 10.0699C91.2981 10.0843 91.25 10.1567 91.2569 10.2364V11.8507C91.2569 11.8507 91.2569 11.8797 91.2569 11.8942C91.2706 11.9738 91.3394 12.0245 91.415 12.0172V12.0245Z" fill="#4C3C8D"/>
<path d="M95.3685 20.6537C95.8842 20.7044 96.3999 20.5234 96.7781 20.1469C97.0944 19.6909 97.2456 19.1334 97.2044 18.5688V9.58482C97.2044 9.58482 97.2044 9.55587 97.2044 9.54139C97.1906 9.46175 97.1219 9.41108 97.0462 9.41832H95.1347C95.1347 9.41832 95.1072 9.41832 95.0935 9.41832C95.0178 9.4328 94.9697 9.50519 94.9766 9.58482V17.7797C95.0041 18.0258 94.9353 18.272 94.7978 18.4674C94.6397 18.605 94.4334 18.6774 94.2271 18.6557H93.6839C93.6839 18.6557 93.6702 18.6557 93.6564 18.6557H93.2989C92.9963 18.6774 92.6938 18.5905 92.4462 18.4168C92.2468 18.2647 92.1231 18.0258 92.1093 17.7652V13.8705C92.1093 13.8705 92.1093 13.8415 92.1093 13.827C92.0956 13.7474 92.0268 13.6967 91.9512 13.704H90.0672C90.0672 13.704 90.0396 13.704 90.0259 13.704C89.9503 13.7185 89.9021 13.7908 89.909 13.8705V17.3019C89.9296 17.6566 89.8884 18.0114 89.7852 18.3516C89.7027 18.5543 89.4896 18.6557 89.1595 18.6557H88.1832C88.1832 18.6557 88.1488 18.6629 88.135 18.6629H86.1204C86.0035 18.6629 85.8797 18.6629 85.7697 18.6484C85.9622 18.5036 86.141 18.3444 86.3129 18.1779C86.4985 17.9969 86.6636 17.7869 86.808 17.5698C86.9524 17.3453 87.0761 17.092 87.1586 16.8313C87.248 16.5563 87.2893 16.2739 87.2893 15.9844C87.2893 15.6369 87.2205 15.2894 87.0761 14.9709C86.9249 14.6451 86.6911 14.3628 86.4092 14.1528C86.0585 13.8994 85.6666 13.7185 85.254 13.6171C84.7108 13.4796 84.1538 13.4144 83.5969 13.4289C83.1568 13.4289 82.7168 13.4651 82.2836 13.5375C81.8848 13.6026 81.486 13.6967 81.1009 13.8198C80.8053 13.9139 80.5165 14.037 80.2483 14.1962C80.0283 14.3338 79.9183 14.4713 79.9183 14.6161V15.6948C79.9183 15.8251 79.932 15.9554 79.9664 16.0857C80.0008 16.1798 80.0627 16.2667 80.1383 16.3246C80.5234 16.6142 80.8809 16.9399 81.2041 17.3091C81.5204 17.6639 81.761 18.091 81.9123 18.5543C81.7198 18.6122 81.5204 18.6412 81.3278 18.6557C81.1216 18.6701 80.9359 18.6701 80.7571 18.6701H78.7562C78.4537 18.6918 78.1511 18.6122 77.8899 18.4385C77.6905 18.2792 77.5667 18.0403 77.5598 17.7797V9.58482C77.5598 9.58482 77.5598 9.55587 77.5598 9.54139C77.5461 9.46175 77.4773 9.41108 77.4017 9.41832H75.4902C75.4902 9.41832 75.4627 9.41832 75.4489 9.41832C75.3733 9.4328 75.3251 9.50519 75.332 9.58482V17.1499C75.332 17.396 75.332 17.606 75.3183 17.7942C75.3183 17.9534 75.2839 18.1127 75.2357 18.2647C75.1945 18.3878 75.112 18.4891 75.0088 18.5543C74.8782 18.6267 74.7338 18.6629 74.5825 18.6557H74.0256C74.0256 18.6557 74.0256 18.6557 74.0187 18.6557H73.6612C73.3586 18.6774 73.0561 18.5905 72.8085 18.4168C72.6091 18.2647 72.4854 18.0258 72.4716 17.7652V13.8632C72.4716 13.8632 72.4716 13.8343 72.4716 13.8198C72.4579 13.7402 72.3891 13.6895 72.3135 13.6967H70.4295C70.4295 13.6967 70.402 13.6967 70.3882 13.6967C70.3126 13.7112 70.2644 13.7836 70.2713 13.8632V17.2947C70.2919 17.6494 70.2507 18.0041 70.1475 18.3444C70.065 18.5471 69.8519 18.6484 69.5218 18.6484H68.5523C68.5523 18.6484 68.5455 18.6484 68.5386 18.6484C68.5317 18.6484 68.5248 18.6484 68.518 18.6484H68.0779C67.8304 18.6557 67.5897 18.5688 67.404 18.395C67.2115 18.1779 67.1015 17.8955 67.1084 17.5915C67.1084 17.5263 67.1084 17.4539 67.1153 17.3815C67.1221 17.3091 67.1221 17.2368 67.1221 17.1571C67.1428 16.5418 67.0465 15.9264 66.8402 15.3473C66.6752 14.9057 66.4139 14.5148 66.077 14.1962C65.7538 13.9067 65.3756 13.6967 64.97 13.5881C64.1036 13.3493 63.196 13.3493 62.3296 13.5881C61.9239 13.704 61.5457 13.9139 61.2226 14.1962C60.8857 14.5075 60.6244 14.9057 60.4593 15.3473C60.2531 15.9264 60.1568 16.5418 60.1774 17.1571V17.5046C60.1774 17.606 60.1774 17.7145 60.1912 17.8159C60.1843 17.9969 60.1155 18.1779 60.0124 18.3226C59.9093 18.4529 59.7855 18.5688 59.6549 18.6701C59.5105 18.7715 59.3661 18.8801 59.2148 18.9814C59.0567 19.09 58.9123 19.2276 58.7885 19.3796C58.651 19.5533 58.541 19.756 58.4653 19.9732C58.3759 20.27 58.3278 20.5813 58.3416 20.8926V24.0272H60.5694V21.2401C60.5694 21.0808 60.59 20.9215 60.645 20.7695C60.6931 20.6609 60.7619 20.5596 60.8444 20.4727C60.92 20.3931 61.0025 20.3207 61.0851 20.2483C61.1813 20.1687 61.257 20.0746 61.3188 19.966C61.6145 20.2555 61.9652 20.4655 62.3502 20.5741C62.7697 20.6971 63.2097 20.7623 63.6498 20.755C64.1792 20.755 64.7087 20.6827 65.2106 20.5161C65.6713 20.3641 66.0839 20.0746 66.4002 19.6836C66.5171 19.8863 66.6752 20.0601 66.854 20.2049C67.019 20.3279 67.1909 20.422 67.3834 20.4944C67.5691 20.5596 67.7547 20.603 67.9472 20.6175C68.1398 20.632 68.3323 20.6392 68.518 20.6392H68.5317C68.5317 20.6392 68.5386 20.6392 68.5455 20.6392H70.1613C70.6151 20.6537 71.0689 20.603 71.509 20.4944C71.839 20.3931 72.1072 20.1469 72.2516 19.8139C72.4097 20.1252 72.671 20.3714 72.9873 20.4944C73.3242 20.603 73.6749 20.6465 74.0256 20.6392H75.4558C75.8683 20.6537 76.2809 20.5958 76.6728 20.4655C76.9685 20.3496 77.216 20.118 77.3535 19.8139C77.5117 20.1325 77.773 20.3714 78.0893 20.4944C78.4124 20.5958 78.7425 20.6392 79.0794 20.6392C79.0932 20.6392 79.1 20.6392 79.1138 20.6392H81.4791C81.8229 20.6392 82.1736 20.5958 82.5174 20.5306C82.9024 20.4582 83.2737 20.3207 83.6175 20.1252C83.9132 20.3207 84.2364 20.4582 84.5802 20.5306C84.9308 20.603 85.2953 20.6392 85.6528 20.6392H88.1419C88.1419 20.6392 88.1625 20.6392 88.1763 20.632C88.1763 20.632 88.1763 20.632 88.1832 20.632H89.799C90.2528 20.6465 90.7066 20.5958 91.1467 20.4872C91.4767 20.3858 91.7449 20.1397 91.8893 19.8067C92.0474 20.1252 92.3087 20.3641 92.625 20.4872C92.9344 20.5813 93.2507 20.6247 93.567 20.632C93.6014 20.632 93.6358 20.6465 93.677 20.6392H95.3754L95.3685 20.6537ZM64.6055 18.395C64.0486 18.8945 63.2372 18.8945 62.6803 18.395C62.4259 18.0114 62.3159 17.548 62.3571 17.0847C62.3571 15.9771 62.7834 15.4197 63.636 15.4197C64.4887 15.4197 64.915 15.9771 64.915 17.0847C64.9562 17.548 64.8462 18.0114 64.6055 18.395ZM84.6489 17.4467C84.4083 17.7725 84.1126 18.0475 83.7757 18.2575C83.6519 17.758 83.4525 17.2874 83.1775 16.8603C82.8956 16.4042 82.538 16.0133 82.1117 15.7093C82.2905 15.6224 82.4692 15.5645 82.6618 15.521C82.9712 15.4486 83.2875 15.4124 83.6038 15.4124C83.9613 15.3907 84.3189 15.4776 84.6283 15.6586C84.8758 15.8251 85.0202 16.1219 84.9996 16.4332C84.9996 16.8024 84.8689 17.1571 84.6489 17.4395V17.4467Z" fill="#4C3C8D"/>
<path d="M99.2818 9.4183H101.083C101.193 9.4183 101.283 9.51242 101.283 9.62824V20.4437C101.283 20.5596 101.193 20.6537 101.083 20.6537H99.2818C99.1718 20.6537 99.0824 20.5596 99.0824 20.4437V9.62824C99.0824 9.51242 99.1718 9.4183 99.2818 9.4183Z" fill="#4C3C8D"/>
<path d="M118.61 22.0871H117.042C117.042 22.0871 117.014 22.0871 117.001 22.0871C116.925 22.1015 116.877 22.1739 116.884 22.2536V23.8752C116.884 23.8752 116.884 23.9041 116.884 23.9186C116.897 23.9982 116.966 24.0489 117.042 24.0417H118.61C118.61 24.0417 118.637 24.0417 118.651 24.0417C118.726 24.0272 118.775 23.9548 118.768 23.8752V22.2536C118.768 22.2536 118.768 22.2246 118.768 22.2101C118.754 22.1305 118.685 22.0798 118.61 22.0871Z" fill="#4C3C8D"/>
<path d="M121.037 22.0871H119.455C119.455 22.0871 119.428 22.0871 119.414 22.0871C119.339 22.1015 119.29 22.1739 119.297 22.2536V23.8752C119.297 23.8752 119.297 23.9041 119.297 23.9186C119.311 23.9982 119.38 24.0489 119.455 24.0417H121.037C121.037 24.0417 121.064 24.0417 121.078 24.0417C121.154 24.0272 121.202 23.9548 121.195 23.8752V22.2536C121.195 22.2536 121.195 22.2246 121.195 22.2101C121.181 22.1305 121.113 22.0798 121.037 22.0871Z" fill="#4C3C8D"/>
<path d="M116.464 20.6537H118.562C119.077 20.7116 119.586 20.5233 119.964 20.1469C120.281 19.6908 120.432 19.1334 120.384 18.5687V13.8632C120.384 13.8632 120.384 13.8342 120.384 13.8198C120.37 13.7401 120.301 13.6895 120.226 13.6967H118.342C118.342 13.6967 118.314 13.6967 118.3 13.6967C118.225 13.7112 118.177 13.7836 118.183 13.8632V17.7797C118.211 18.0258 118.142 18.2719 118.005 18.4674C117.847 18.6049 117.64 18.6773 117.434 18.6556H116.031C115.784 18.6628 115.543 18.5687 115.357 18.395C115.165 18.1778 115.055 17.8955 115.062 17.5914C115.062 17.5263 115.062 17.4539 115.069 17.3815C115.076 17.3091 115.076 17.2367 115.076 17.1571C115.096 16.5417 115 15.9264 114.794 15.3473C114.629 14.9057 114.367 14.5147 114.03 14.1962C113.707 13.9066 113.329 13.6967 112.923 13.5881C112.057 13.3492 111.149 13.3492 110.283 13.5881C109.877 13.7039 109.499 13.9139 109.176 14.1962C108.839 14.5075 108.578 14.9057 108.413 15.3473C108.206 15.9264 108.11 16.5417 108.131 17.1571V17.5046C108.131 17.6059 108.131 17.7145 108.145 17.8159C108.131 17.9968 108.069 18.1778 107.966 18.3226C107.863 18.4529 107.739 18.5687 107.608 18.6701C107.464 18.7714 107.319 18.88 107.168 18.9814C107.01 19.09 106.866 19.2275 106.742 19.3795C106.604 19.5533 106.494 19.756 106.419 19.9732C106.329 20.27 106.281 20.5813 106.295 20.8925V24.0272H108.523V21.24C108.523 21.0808 108.543 20.9215 108.598 20.7695C108.646 20.6609 108.715 20.5595 108.798 20.4727C108.873 20.393 108.956 20.3206 109.038 20.2483C109.135 20.1686 109.21 20.0745 109.272 19.9659C109.568 20.2555 109.919 20.4582 110.304 20.574C110.723 20.6971 111.163 20.7622 111.596 20.755C112.126 20.755 112.655 20.6754 113.157 20.5161C113.618 20.3641 114.03 20.0745 114.347 19.6836C114.464 19.8863 114.622 20.06 114.807 20.2048C114.965 20.3279 115.144 20.422 115.337 20.4944C115.522 20.5595 115.708 20.603 115.901 20.6175C116.086 20.6319 116.265 20.6392 116.451 20.6392C116.451 20.6392 116.458 20.6392 116.464 20.6392V20.6537ZM112.573 18.395C112.016 18.8873 111.204 18.8873 110.647 18.395C110.393 18.0113 110.283 17.548 110.324 17.0847C110.324 15.9771 110.751 15.4196 111.603 15.4196C112.456 15.4196 112.882 15.9771 112.882 17.0847C112.923 17.548 112.813 18.0113 112.573 18.395Z" fill="#4C3C8D"/>
<path d="M134.948 12.0317H136.53C136.53 12.0317 136.557 12.0317 136.571 12.0317C136.647 12.0172 136.695 11.9448 136.688 11.8652V10.2436C136.688 10.2436 136.688 10.2146 136.688 10.2001C136.674 10.1205 136.605 10.0698 136.53 10.0771H134.948C134.948 10.0771 134.921 10.0771 134.907 10.0771C134.831 10.0915 134.783 10.1639 134.79 10.2436V11.8652C134.79 11.8652 134.79 11.8941 134.79 11.9086C134.804 11.9882 134.873 12.0389 134.948 12.0317Z" fill="#4C3C8D"/>
<path d="M135.456 20.5958C135.793 20.632 136.144 20.6464 136.522 20.6464H138.86C138.86 20.6464 138.867 20.6464 138.873 20.6464H140.971C141.486 20.6971 141.995 20.5161 142.373 20.1397C142.69 19.6836 142.841 19.1262 142.793 18.5615V13.856C142.793 13.856 142.793 13.827 142.793 13.8126C142.779 13.7329 142.71 13.675 142.635 13.6895H140.751C140.751 13.6895 140.723 13.6895 140.709 13.6895C140.634 13.704 140.586 13.7764 140.592 13.856V17.7724C140.62 18.0186 140.551 18.2647 140.414 18.4602C140.256 18.5977 140.049 18.6701 139.843 18.6484H138.873C138.873 18.6484 138.867 18.6484 138.86 18.6484H137.003C136.914 18.6484 136.831 18.6484 136.742 18.6629C137.099 18.395 137.395 18.0475 137.615 17.6494C137.849 17.2223 137.966 16.7445 137.959 16.2522C137.966 15.8323 137.883 15.4124 137.718 15.0288C137.56 14.6813 137.319 14.3772 137.024 14.1456C136.694 13.8922 136.322 13.7112 135.931 13.6026C135.463 13.4723 134.975 13.4072 134.493 13.4144C134.005 13.4144 133.524 13.4723 133.056 13.6026C132.664 13.7112 132.293 13.8994 131.963 14.1456C131.667 14.3772 131.427 14.6813 131.269 15.0288C130.918 15.8685 130.952 16.8313 131.358 17.6494C131.571 18.0475 131.867 18.3878 132.224 18.6484H130.093H130.079H129.048V17.1137C129.061 16.5056 128.972 15.9047 128.773 15.34C128.615 14.8984 128.36 14.5075 128.023 14.2035C127.7 13.9211 127.329 13.7112 126.923 13.6026C126.49 13.4795 126.05 13.4216 125.603 13.4216C125.17 13.4216 124.737 13.4868 124.324 13.6171C123.918 13.7474 123.54 13.9646 123.224 14.2614C122.887 14.5872 122.626 14.9853 122.454 15.4342C122.247 16.0061 122.144 16.6069 122.165 17.215C122.069 18.1851 122.371 19.1479 122.99 19.8718C123.657 20.4293 124.496 20.7116 125.348 20.6464H126.854C126.861 20.8853 126.827 21.1242 126.758 21.3486C126.71 21.5152 126.614 21.6599 126.49 21.7685C126.366 21.8699 126.215 21.9423 126.057 21.9712C125.864 22.0147 125.665 22.0291 125.465 22.0291H123.664C123.664 22.0291 123.636 22.0291 123.623 22.0291C123.547 22.0436 123.499 22.116 123.506 22.1956V23.8607C123.506 23.8607 123.506 23.8896 123.506 23.9041C123.519 23.9838 123.588 24.0344 123.664 24.0272H125.947C126.792 24.1068 127.624 23.8317 128.285 23.2743C128.828 22.6445 129.103 21.812 129.034 20.965V20.6537H130.1C130.1 20.6537 130.114 20.6537 130.12 20.6537H132.355C132.658 20.6537 133.008 20.6392 133.4 20.603C133.785 20.574 134.163 20.451 134.507 20.2555C134.796 20.4437 135.119 20.5668 135.463 20.603L135.456 20.5958ZM126.841 18.6484H125.63C125.287 18.6629 124.943 18.5543 124.668 18.3443C124.379 18.0186 124.241 17.5697 124.296 17.1281C124.276 16.6793 124.393 16.2377 124.633 15.8757C124.86 15.5645 125.225 15.3907 125.596 15.4124C126.421 15.4124 126.834 15.9554 126.834 17.0485V18.6484H126.841ZM133.586 17.6494C133.318 17.3091 133.187 16.8748 133.208 16.4332C133.173 16.035 133.318 15.6441 133.593 15.3762C133.847 15.1591 134.163 15.0432 134.487 15.0432C134.81 15.0432 135.119 15.1591 135.367 15.3762C135.649 15.6441 135.793 16.035 135.759 16.4332C135.779 16.8748 135.642 17.3091 135.38 17.6494C135.133 17.9534 134.824 18.1923 134.48 18.3661C134.136 18.1923 133.833 17.9462 133.579 17.6494H133.586Z" fill="#4C3C8D"/>
<path d="M132.535 12.0317H134.102C134.102 12.0317 134.13 12.0317 134.144 12.0317C134.219 12.0172 134.268 11.9448 134.261 11.8652V10.2436C134.261 10.2436 134.261 10.2146 134.261 10.2001C134.247 10.1205 134.178 10.0698 134.102 10.0771H132.535C132.535 10.0771 132.507 10.0771 132.494 10.0771C132.418 10.0915 132.37 10.1639 132.377 10.2436V11.8652C132.377 11.8652 132.377 11.8941 132.377 11.9086C132.39 11.9882 132.459 12.0389 132.535 12.0317Z" fill="#4C3C8D"/>
<path d="M142.016 12.0317H143.598C143.598 12.0317 143.625 12.0317 143.639 12.0317C143.715 12.0172 143.763 11.9448 143.756 11.8652V10.2436C143.756 10.2436 143.756 10.2146 143.756 10.2001C143.742 10.1205 143.674 10.0698 143.598 10.0771H142.016C142.016 10.0771 141.989 10.0771 141.975 10.0771C141.9 10.0915 141.851 10.1639 141.858 10.2436V11.8652C141.858 11.8652 141.858 11.8941 141.858 11.9086C141.872 11.9882 141.941 12.0389 142.016 12.0317Z" fill="#4C3C8D"/>
<path d="M139.597 12.0317H141.164C141.164 12.0317 141.192 12.0317 141.206 12.0317C141.281 12.0172 141.329 11.9448 141.322 11.8652V10.2436C141.322 10.2436 141.322 10.2146 141.322 10.2001C141.309 10.1205 141.24 10.0698 141.164 10.0771H139.597C139.597 10.0771 139.569 10.0771 139.555 10.0771C139.48 10.0915 139.432 10.1639 139.438 10.2436V11.8652C139.438 11.8652 139.438 11.8941 139.438 11.9086C139.452 11.9882 139.521 12.0389 139.597 12.0317Z" fill="#4C3C8D"/>
<path d="M152.131 11.3729H153.713C153.713 11.3729 153.74 11.3729 153.754 11.3729C153.83 11.3584 153.878 11.2861 153.871 11.2064V9.58482C153.871 9.58482 153.871 9.55587 153.871 9.54139C153.857 9.46175 153.788 9.41108 153.713 9.41832H152.131C152.131 9.41832 152.104 9.41832 152.09 9.41832C152.014 9.4328 151.966 9.50519 151.973 9.58482V11.2064C151.973 11.2064 151.973 11.2354 151.973 11.2499C151.987 11.3295 152.056 11.3802 152.131 11.3729Z" fill="#4C3C8D"/>
<path d="M149.709 11.3729H151.277C151.277 11.3729 151.304 11.3729 151.318 11.3729C151.394 11.3584 151.442 11.2861 151.435 11.2064V9.58482C151.435 9.58482 151.435 9.55587 151.435 9.54139C151.421 9.46175 151.352 9.41108 151.277 9.41832H149.709C149.709 9.41832 149.682 9.41832 149.668 9.41832C149.592 9.4328 149.544 9.50519 149.551 9.58482V11.2064C149.551 11.2064 149.551 11.2354 149.551 11.2499C149.565 11.3295 149.633 11.3802 149.709 11.3729Z" fill="#4C3C8D"/>
<path d="M157.157 12.0824H160.732C160.794 12.0824 160.829 12.0462 160.829 11.9665V11.1919C160.829 11.1123 160.801 11.0761 160.732 11.0761H159.082C158.958 11.0037 158.855 10.9096 158.766 10.7938C158.67 10.6562 158.615 10.4897 158.621 10.316C158.615 10.135 158.676 9.95402 158.8 9.82371C158.938 9.6934 159.117 9.62825 159.295 9.64273C159.447 9.64273 159.591 9.67169 159.728 9.74408C159.859 9.81647 159.976 9.90334 160.079 10.0047C160.134 10.0698 160.182 10.0843 160.224 10.0409L160.726 9.47623H160.732C160.774 9.42555 160.781 9.3604 160.739 9.30972C160.588 9.09978 160.382 8.93328 160.148 8.83193C159.866 8.69438 159.557 8.62923 159.247 8.63647C158.972 8.63647 158.697 8.6799 158.436 8.77401C158.23 8.85365 158.044 8.98395 157.886 9.14322C157.748 9.29524 157.638 9.46899 157.569 9.66445C157.501 9.85267 157.466 10.0481 157.466 10.2508C157.466 10.4101 157.487 10.5621 157.528 10.7141C157.569 10.8372 157.618 10.9603 157.686 11.0761H157.143C157.081 11.0761 157.047 11.1123 157.047 11.1919V11.9738C157.047 12.0534 157.074 12.0896 157.143 12.0896L157.157 12.0824Z" fill="#4C3C8D"/>
<path d="M166.336 22.0871H164.754C164.754 22.0871 164.727 22.0871 164.713 22.0871C164.637 22.1015 164.589 22.1739 164.596 22.2536V23.8752C164.596 23.8752 164.596 23.9041 164.596 23.9186C164.61 23.9982 164.678 24.0489 164.754 24.0417H166.336C166.336 24.0417 166.363 24.0417 166.377 24.0417C166.452 24.0272 166.501 23.9548 166.494 23.8752V22.2536C166.494 22.2536 166.494 22.2246 166.494 22.2101C166.48 22.1305 166.411 22.0798 166.336 22.0871Z" fill="#4C3C8D"/>
<path d="M163.902 24.0344C163.902 24.0344 163.929 24.0344 163.943 24.0344C164.019 24.0199 164.067 23.9476 164.06 23.8679V22.2463C164.06 22.2463 164.06 22.2174 164.06 22.2029C164.046 22.1233 163.978 22.0726 163.902 22.0798H162.334C162.334 22.0798 162.307 22.0798 162.293 22.0798C162.217 22.0943 162.169 22.1667 162.176 22.2463V23.8679C162.176 23.8679 162.176 23.8969 162.176 23.9114C162.19 23.991 162.259 24.0417 162.334 24.0344H163.902Z" fill="#4C3C8D"/>
<path d="M176.361 15.4776C176.224 14.9708 175.983 14.5003 175.646 14.1094C175.268 13.675 174.793 13.3348 174.264 13.1248C173.563 12.857 172.82 12.7267 172.077 12.7556C171.486 12.7484 170.895 12.8063 170.31 12.9366C169.795 13.0669 169.293 13.2262 168.798 13.4289C168.722 13.4651 168.688 13.5013 168.681 13.5519C168.681 13.6099 168.681 13.6678 168.701 13.7257L169.031 14.9636C169.045 15.0288 169.1 15.0577 169.155 15.0432C169.21 15.036 169.265 15.0215 169.313 14.9926C170.049 14.7537 170.819 14.6378 171.589 14.6306C171.954 14.6306 172.325 14.674 172.676 14.7681C172.985 14.8478 173.274 14.9998 173.521 15.2097C173.762 15.4124 173.948 15.6731 174.071 15.9699C174.209 16.3174 174.278 16.6938 174.264 17.0775C174.278 17.4612 174.195 17.8448 174.03 18.1923C173.824 18.5181 173.459 18.6991 173.088 18.6484C173.164 18.4819 173.233 18.3082 173.288 18.1272C173.349 17.9245 173.377 17.7073 173.37 17.4901C173.432 16.7807 173.184 16.0785 172.696 15.5862C172.167 15.1591 171.514 14.9419 170.847 14.9853C170.537 14.9853 170.235 15.0288 169.939 15.1229C169.657 15.2097 169.389 15.3618 169.162 15.5572C168.928 15.7672 168.736 16.035 168.612 16.3318C168.461 16.6938 168.392 17.092 168.399 17.4901C168.392 17.8883 168.467 18.2864 168.619 18.6484H167.079C167.079 18.6484 167.065 18.6484 167.058 18.6484H166.693C166.391 18.6701 166.088 18.5832 165.841 18.4095C165.641 18.2575 165.518 18.0186 165.504 17.758V13.856C165.504 13.856 165.504 13.827 165.504 13.8126C165.49 13.7329 165.421 13.675 165.346 13.6895H163.462C163.462 13.6895 163.434 13.6895 163.421 13.6895C163.345 13.704 163.297 13.7764 163.304 13.856V17.2874C163.324 17.6421 163.283 17.9969 163.18 18.3371C163.097 18.5398 162.891 18.6412 162.554 18.6412H161.234C160.931 18.6629 160.629 18.576 160.381 18.4023C160.182 18.2502 160.058 18.0113 160.044 17.7507V13.856C160.044 13.856 160.044 13.827 160.044 13.8126C160.031 13.7329 159.962 13.6823 159.886 13.6895H158.442C158.325 13.6895 158.195 13.6895 158.044 13.704C157.892 13.7112 157.817 13.7619 157.817 13.8488V17.3164C157.837 17.6639 157.796 18.0186 157.686 18.3516C157.597 18.5471 157.39 18.6412 157.067 18.6412H156.551C156.517 18.6412 156.483 18.6556 156.448 18.6629C156.414 18.6629 156.386 18.6412 156.345 18.6412H155.857C155.651 18.6629 155.444 18.5905 155.286 18.4529C155.142 18.2575 155.08 18.0113 155.108 17.7652V12.6977C155.108 12.6977 155.108 12.6688 155.108 12.6543C155.094 12.5746 155.025 12.524 154.949 12.5312H153.038C153.038 12.5312 153.01 12.5312 152.997 12.5312C152.921 12.5457 152.873 12.6181 152.88 12.6977V13.4072H151.312C150.92 13.4072 150.528 13.4578 150.143 13.5592C149.352 13.7619 148.706 14.3555 148.403 15.1446C148.204 15.6658 148.115 16.2232 148.128 16.7879C148.115 17.2947 148.197 17.8014 148.369 18.272C148.513 18.6556 148.74 18.9959 149.036 19.2637C149.325 19.5171 149.655 19.7126 150.019 19.8284C150.397 19.9515 150.789 20.0094 151.188 20.0094C151.511 20.0094 151.835 19.9587 152.144 19.8646C152.433 19.7705 152.708 19.6185 152.942 19.4158C152.99 19.8139 153.196 20.1614 153.512 20.3858C153.884 20.5741 154.296 20.6609 154.709 20.6392H156.338C156.338 20.6392 156.373 20.632 156.393 20.632C156.435 20.632 156.476 20.6464 156.517 20.6392H157.775C158.222 20.6537 158.662 20.603 159.096 20.4799C159.419 20.3714 159.68 20.1252 159.831 19.8139C159.989 20.1325 160.251 20.3714 160.567 20.4944C160.897 20.5958 161.234 20.6464 161.578 20.6392C161.578 20.6392 161.578 20.6392 161.585 20.6392H163.201C163.654 20.6537 164.108 20.603 164.548 20.4944C164.878 20.3931 165.146 20.1469 165.291 19.8139C165.449 20.1252 165.71 20.3714 166.027 20.4944C166.363 20.603 166.714 20.6464 167.065 20.6392H167.072C167.072 20.6392 167.072 20.6392 167.079 20.6392H173.404C173.913 20.6537 174.415 20.5741 174.903 20.422C175.275 20.299 175.612 20.0673 175.873 19.7633C176.134 19.4375 176.313 19.0466 176.395 18.6339C176.505 18.1055 176.56 17.5625 176.554 17.0268C176.554 16.4983 176.485 15.9771 176.347 15.4776H176.361ZM152.893 16.5562C152.928 16.9616 152.797 17.367 152.543 17.6711C152.288 17.9172 151.945 18.0475 151.601 18.0258C151.278 18.0403 150.961 17.9462 150.7 17.7507C150.439 17.5191 150.308 17.1643 150.342 16.8024C150.294 16.397 150.432 15.9988 150.7 15.7093C150.975 15.4993 151.312 15.398 151.649 15.4124H152.893V16.549V16.5562ZM171.562 18.4167C171.41 18.605 171.19 18.7208 170.957 18.7208H170.785C170.551 18.7136 170.331 18.5977 170.18 18.4167C170.015 18.1706 169.939 17.8666 169.966 17.5697C169.946 17.2585 170.035 16.9544 170.207 16.701C170.372 16.4911 170.627 16.3825 170.881 16.397C171.135 16.3825 171.383 16.4911 171.541 16.701C171.837 17.2295 171.844 17.881 171.562 18.4167Z" fill="#4C3C8D"/>
<path d="M4.49659 34.3359H1.50556C1.50556 34.3359 1.49868 34.3359 1.4918 34.3359C1.4643 34.3359 1.44367 34.3069 1.45055 34.278V32.2655C1.45055 32.2655 1.45055 32.2582 1.45055 32.251C1.45055 32.222 1.47805 32.2003 1.50556 32.2076H4.04278C4.04278 32.2076 4.05653 32.2076 4.06341 32.2076C4.11154 32.2076 4.13904 32.1569 4.13217 32.1062V31.4909C4.13217 31.4909 4.13217 31.4764 4.13217 31.4691C4.13217 31.4185 4.08403 31.3895 4.04278 31.3968H1.50556C1.50556 31.3968 1.49868 31.3968 1.4918 31.3968C1.4643 31.3968 1.44367 31.3678 1.45055 31.3388V29.3987C1.45055 29.3987 1.45055 29.3915 1.45055 29.3842C1.45055 29.3553 1.47805 29.3336 1.50556 29.3408H4.49659C4.49659 29.3408 4.51034 29.3408 4.51722 29.3408C4.56535 29.3408 4.59285 29.2901 4.58598 29.2394V28.6313C4.58598 28.6313 4.58598 28.6169 4.58598 28.6096C4.58598 28.559 4.53785 28.53 4.49659 28.5372H0.714822C0.714822 28.5372 0.701071 28.5372 0.694195 28.5372C0.646063 28.5372 0.618559 28.5879 0.625435 28.6313V35.0381C0.625435 35.0381 0.625435 35.0526 0.625435 35.0598C0.625435 35.1105 0.673567 35.1395 0.714822 35.1322H4.49659C4.49659 35.1322 4.51034 35.1322 4.51722 35.1322C4.56535 35.1322 4.59285 35.0816 4.58598 35.0381V34.4228C4.58598 34.4228 4.58598 34.4083 4.58598 34.4011C4.58598 34.3504 4.53785 34.3214 4.49659 34.3287V34.3359Z" fill="#4C3C8D"/>
<path d="M9.1519 28.5373H8.56057C8.56057 28.5373 8.54682 28.5373 8.53994 28.5373C8.49869 28.5373 8.46431 28.588 8.47118 28.6314V31.0204H8.46431C8.35429 30.8249 8.19615 30.6656 8.0105 30.557C7.76296 30.4267 7.48792 30.3616 7.21289 30.3761C6.86909 30.3616 6.53217 30.4629 6.24338 30.6584C5.97522 30.8611 5.78269 31.1579 5.6933 31.4909C5.63142 31.6791 5.59016 31.8746 5.56954 32.0701C5.54891 32.3162 5.53516 32.5551 5.53516 32.8012C5.53516 33.0474 5.54203 33.2935 5.56954 33.5396C5.59016 33.7351 5.63142 33.9305 5.6933 34.126C5.78269 34.459 5.97522 34.7558 6.24338 34.9585C6.53217 35.154 6.86909 35.2553 7.21289 35.2409C7.48792 35.2553 7.76296 35.1902 8.0105 35.0526C8.19615 34.944 8.35429 34.7775 8.46431 34.5893H8.47806V35.0382C8.47806 35.0382 8.47806 35.0526 8.47806 35.0599C8.47806 35.1033 8.52619 35.1395 8.56745 35.1323H9.1519C9.1519 35.1323 9.16565 35.1323 9.17253 35.1323C9.21379 35.1323 9.24817 35.0816 9.24129 35.0382V28.6242C9.24129 28.6242 9.24129 28.6097 9.24129 28.6024C9.24129 28.559 9.19316 28.5228 9.1519 28.53V28.5373ZM8.45056 33.3876C8.4368 33.5179 8.41618 33.6555 8.37492 33.7785C8.25115 34.2346 7.84547 34.5314 7.39854 34.488C6.95848 34.5242 6.5528 34.2274 6.42903 33.7785C6.38777 33.641 6.36027 33.5034 6.35339 33.3586C6.33964 33.1777 6.33277 32.9894 6.33277 32.8012C6.33277 32.6202 6.33277 32.4393 6.35339 32.2583C6.36715 32.1135 6.39465 31.9687 6.42903 31.8312C6.5528 31.3823 6.95848 31.0927 7.39854 31.1289C7.8386 31.0855 8.25115 31.3751 8.37492 31.8312C8.41618 31.9615 8.44368 32.0918 8.45056 32.2293C8.47118 32.4175 8.47806 32.613 8.47118 32.8012C8.47118 32.9967 8.47118 33.1849 8.45056 33.3804V33.3876Z" fill="#4C3C8D"/>
<path d="M14.1308 30.4919H13.5394C13.5394 30.4919 13.5257 30.4919 13.5188 30.4919C13.4775 30.4919 13.4432 30.5425 13.45 30.586V33.3441C13.4638 33.6482 13.3675 33.9522 13.175 34.1767C12.9893 34.3866 12.7212 34.5024 12.453 34.488C12.1711 34.5097 11.9029 34.3938 11.7173 34.1767C11.5454 33.9233 11.456 33.6048 11.4766 33.2935V30.586C11.4766 30.586 11.4766 30.5715 11.4766 30.5643C11.4766 30.5208 11.4285 30.4846 11.3873 30.4919H10.7959C10.7959 30.4919 10.7822 30.4919 10.7753 30.4919C10.734 30.4919 10.6997 30.5425 10.7065 30.586V33.4962C10.6859 33.9595 10.8303 34.4156 11.1053 34.7775C11.3941 35.1105 11.8067 35.2843 12.233 35.2553C12.4874 35.2626 12.7418 35.2046 12.9687 35.0816C13.1612 34.973 13.3263 34.8137 13.4432 34.6183H13.45V35.0526C13.45 35.0526 13.45 35.0671 13.45 35.0743C13.45 35.1178 13.4982 35.154 13.5394 35.1467H14.1308C14.1308 35.1467 14.1445 35.1467 14.1514 35.1467C14.1926 35.1467 14.227 35.096 14.2201 35.0526V30.5932C14.2201 30.5932 14.2201 30.5787 14.2201 30.5715C14.2201 30.5281 14.172 30.4919 14.1308 30.4991V30.4919Z" fill="#4C3C8D"/>
<path d="M16.3647 31.8673C16.4197 31.6429 16.5504 31.4475 16.736 31.3172C17.0936 31.1 17.5268 31.0783 17.8981 31.2665C18.0562 31.3678 18.1937 31.4909 18.3038 31.6429V31.6574C18.345 31.6936 18.4 31.6936 18.4344 31.6574L18.8401 31.3099H18.8538C18.8951 31.2737 18.902 31.2158 18.8676 31.1724C18.7094 30.9262 18.4963 30.7308 18.2488 30.5932C17.9737 30.4484 17.6643 30.3761 17.3549 30.3833C16.9629 30.3688 16.5848 30.4846 16.2547 30.7018C15.9384 30.9262 15.7115 31.252 15.6084 31.6357C15.5603 31.8022 15.5259 31.9687 15.5052 32.1352C15.4777 32.3596 15.464 32.584 15.4709 32.8085C15.4709 33.0401 15.4777 33.2645 15.5052 33.4962C15.5259 33.6627 15.5603 33.8364 15.6084 33.9957C15.7115 34.3794 15.9384 34.7051 16.2547 34.9296C16.5848 35.1467 16.9629 35.2626 17.3549 35.2481C17.6643 35.2553 17.9737 35.1829 18.2488 35.0382C18.4963 34.9006 18.7163 34.7051 18.8676 34.459V34.4445C18.8951 34.4011 18.8813 34.3432 18.8401 34.3215L18.4344 33.974H18.4206C18.3863 33.9378 18.3313 33.945 18.3038 33.9812C18.1937 34.1332 18.0562 34.2635 17.8981 34.3577C17.5268 34.5459 17.0936 34.5242 16.736 34.307C16.5573 34.1767 16.4266 33.9812 16.3647 33.7568C16.3235 33.6193 16.3029 33.4817 16.2891 33.3442C16.2754 33.1632 16.2616 32.9822 16.2685 32.8085C16.2685 32.6275 16.2685 32.4537 16.2891 32.2727C16.3029 32.1352 16.3304 31.9977 16.3647 31.8673Z" fill="#4C3C8D"/>
<path d="M21.5561 30.3833C21.2604 30.3833 20.9648 30.4195 20.6829 30.5064C20.456 30.5788 20.2428 30.6874 20.0572 30.8394C20.0228 30.8756 20.0159 30.9335 20.0365 30.9769L20.2841 31.4258C20.3184 31.4764 20.3597 31.4837 20.4147 31.433C20.5522 31.3317 20.6966 31.252 20.8548 31.1941C21.061 31.129 21.2673 31.0928 21.4805 31.1C21.7761 31.0638 22.0718 31.1434 22.3193 31.3099C22.4844 31.4982 22.5669 31.7515 22.5394 32.0049V32.3452C22.5394 32.3452 22.5394 32.3524 22.5394 32.3596C22.5394 32.3886 22.5119 32.4103 22.4844 32.4031H21.4805C21.0335 32.3741 20.5866 32.4972 20.2084 32.7506C19.8921 33.0112 19.7202 33.4238 19.7477 33.8437C19.7477 34.0536 19.7821 34.2636 19.8646 34.459C19.9334 34.6255 20.0434 34.7776 20.1809 34.9006C20.3184 35.0237 20.4766 35.1106 20.6485 35.1612C20.841 35.2191 21.0335 35.2481 21.2329 35.2481C21.5217 35.2626 21.8036 35.1974 22.0649 35.0744C22.2575 34.9803 22.4294 34.8282 22.5462 34.64H22.5531V35.0454C22.5531 35.0454 22.5531 35.0599 22.5531 35.0671C22.5531 35.1106 22.6013 35.1468 22.6425 35.1395H23.1788C23.1788 35.1395 23.1926 35.1395 23.1995 35.1395C23.2407 35.1395 23.2751 35.0888 23.2682 35.0454V31.9687C23.3095 31.5199 23.1651 31.0783 22.8763 30.7525C22.4844 30.4702 22.0168 30.3399 21.5424 30.3905L21.5561 30.3833ZM22.5462 33.641C22.56 33.9016 22.45 34.155 22.2506 34.3142C22.0099 34.488 21.7211 34.5676 21.4255 34.5531C21.1848 34.5749 20.9442 34.5097 20.7379 34.3722C20.5729 34.2418 20.4835 34.0391 20.4972 33.8292C20.4766 33.6048 20.5797 33.3804 20.7585 33.2501C21.0198 33.1125 21.3086 33.0474 21.6042 33.0691H22.4981C22.4981 33.0691 22.505 33.0691 22.5119 33.0691C22.5394 33.0691 22.56 33.098 22.5531 33.127V33.641H22.5462Z" fill="#4C3C8D"/>
<path d="M26.3891 30.4919H25.6878C25.6878 30.4919 25.6809 30.4919 25.6741 30.4919C25.6465 30.4919 25.6328 30.4629 25.6328 30.434V29.1237C25.6328 29.1237 25.6328 29.1092 25.6328 29.1019C25.6328 29.0513 25.5847 29.0223 25.5434 29.0295H24.9521C24.9521 29.0295 24.9383 29.0295 24.9314 29.0295C24.8833 29.0295 24.8558 29.0802 24.8627 29.1309V30.4412C24.8627 30.4412 24.8627 30.4484 24.8627 30.4557C24.8627 30.4846 24.8352 30.4991 24.8077 30.4991H24.4364C24.4364 30.4991 24.4226 30.4991 24.4158 30.4991C24.3676 30.4991 24.3401 30.5498 24.347 30.5932V31.0565C24.347 31.0565 24.347 31.071 24.347 31.0783C24.347 31.1289 24.3951 31.1579 24.4364 31.1507H24.8077C24.8077 31.1507 24.8146 31.1507 24.8214 31.1507C24.8489 31.1507 24.8627 31.1796 24.8627 31.2086V33.8726C24.8352 34.2346 24.9314 34.5893 25.1377 34.8789C25.3853 35.1178 25.7222 35.2336 26.0591 35.1974H26.396C26.396 35.1974 26.4098 35.1974 26.4167 35.1974C26.4579 35.1974 26.4923 35.1467 26.4854 35.1033V34.5386C26.4854 34.5386 26.4854 34.5242 26.4854 34.5169C26.4854 34.4735 26.4373 34.4373 26.396 34.4445H26.2035C26.0522 34.459 25.901 34.4156 25.7772 34.3215C25.6741 34.1912 25.6259 34.0174 25.6465 33.8509V31.2158C25.6465 31.2158 25.6465 31.2086 25.6465 31.2013C25.6465 31.1724 25.6741 31.1579 25.7016 31.1579H26.4029C26.4029 31.1579 26.4167 31.1579 26.4235 31.1579C26.4717 31.1579 26.4992 31.1072 26.4923 31.0638V30.6005C26.4923 30.6005 26.4923 30.586 26.4923 30.5788C26.4923 30.5281 26.4442 30.4991 26.4029 30.5064L26.3891 30.4919Z" fill="#4C3C8D"/>
<path d="M28.3841 28.5372H27.7584C27.7584 28.5372 27.7446 28.5372 27.7378 28.5372C27.6896 28.5372 27.6621 28.5879 27.669 28.6314V29.3336C27.669 29.3336 27.669 29.348 27.669 29.3553C27.669 29.3987 27.7171 29.4349 27.7584 29.4277H28.3841C28.3841 29.4277 28.3979 29.4277 28.4047 29.4277C28.4529 29.4277 28.4804 29.377 28.4735 29.3336V28.6241C28.4735 28.6241 28.4735 28.6096 28.4735 28.6024C28.4735 28.5517 28.4254 28.5228 28.3841 28.53V28.5372Z" fill="#4C3C8D"/>
<path d="M28.3711 30.4919H27.7797C27.7797 30.4919 27.766 30.4919 27.7591 30.4919C27.7178 30.4919 27.6835 30.5426 27.6903 30.586V35.0454C27.6903 35.0454 27.6903 35.0599 27.6903 35.0671C27.6903 35.1106 27.7385 35.1468 27.7797 35.1395H28.3711C28.3711 35.1395 28.3848 35.1395 28.3917 35.1395C28.4398 35.1395 28.4673 35.0889 28.4604 35.0454V30.586C28.4604 30.586 28.4604 30.5715 28.4604 30.5643C28.4604 30.5136 28.4123 30.4847 28.3711 30.4919Z" fill="#4C3C8D"/>
<path d="M33.3415 31.6357C33.2383 31.2593 33.0114 30.9335 32.702 30.7091C32.0213 30.2747 31.1756 30.2747 30.4948 30.7091C30.1854 30.9335 29.9585 31.2593 29.8554 31.6357C29.8072 31.8022 29.766 31.9687 29.7454 32.1425C29.7179 32.3669 29.7041 32.5913 29.711 32.8157C29.711 33.0401 29.7179 33.2645 29.7454 33.489C29.766 33.6627 29.8072 33.8292 29.8554 33.9957C29.9654 34.3721 30.1923 34.6979 30.4948 34.9223C30.818 35.1468 31.2031 35.2626 31.595 35.2553C31.9869 35.2698 32.372 35.154 32.6951 34.9223C33.0046 34.6979 33.2246 34.3721 33.3346 33.9957C33.3827 33.8292 33.424 33.6627 33.4446 33.489C33.4721 33.2645 33.4859 33.0401 33.479 32.8157C33.479 32.5913 33.4721 32.3669 33.4446 32.1425C33.424 31.9687 33.3827 31.8022 33.3346 31.6357H33.3415ZM32.6745 33.3587C32.6608 33.4962 32.6333 33.6265 32.5989 33.764C32.537 33.9812 32.4064 34.1695 32.2276 34.2998C32.0419 34.4301 31.8219 34.4952 31.6019 34.488C31.3818 34.4952 31.1618 34.4301 30.9762 34.2998C30.7974 34.1695 30.6736 33.9812 30.6049 33.764C30.5705 33.6337 30.543 33.4962 30.5292 33.3587C30.5155 33.1777 30.5017 32.9967 30.5086 32.8085C30.5086 32.6275 30.5086 32.4465 30.5292 32.2655C30.543 32.128 30.5705 31.9977 30.6049 31.8674C30.6667 31.6502 30.7974 31.462 30.9762 31.3316C31.3612 31.0783 31.8494 31.0783 32.2345 31.3316C32.4132 31.462 32.537 31.6502 32.6058 31.8674C32.6401 31.9977 32.6676 32.128 32.6814 32.2655C32.6951 32.4465 32.7089 32.6275 32.702 32.8085C32.702 32.9894 32.702 33.1777 32.6814 33.3587H32.6745Z" fill="#4C3C8D"/>
<path d="M36.7582 30.3833C36.49 30.3761 36.2288 30.434 35.995 30.5643C35.8025 30.6657 35.6374 30.8249 35.5274 31.0131H35.5137V30.586C35.5137 30.586 35.5137 30.5715 35.5137 30.5643C35.5137 30.5209 35.4655 30.4847 35.4243 30.4919H34.8329C34.8329 30.4919 34.8192 30.4919 34.8123 30.4919C34.7711 30.4919 34.7367 30.5426 34.7436 30.586V35.0454C34.7436 35.0454 34.7436 35.0599 34.7436 35.0671C34.7436 35.1106 34.7917 35.1468 34.8329 35.1395H35.4243C35.4243 35.1395 35.438 35.1395 35.4449 35.1395C35.4862 35.1395 35.5205 35.0889 35.5137 35.0454V32.2728C35.4999 31.9687 35.6031 31.6647 35.7956 31.4403C35.9881 31.2303 36.2563 31.1217 36.5313 31.1362C36.8132 31.1145 37.0883 31.2303 37.2739 31.4475C37.4527 31.7009 37.5352 32.0122 37.5214 32.3235V35.0454C37.5214 35.0454 37.5214 35.0599 37.5214 35.0671C37.5214 35.1106 37.5696 35.1468 37.6108 35.1395H38.2022C38.2022 35.1395 38.2159 35.1395 38.2228 35.1395C38.264 35.1395 38.2984 35.0889 38.2915 35.0454V32.128C38.3122 31.6647 38.1678 31.2086 37.8859 30.8539C37.5971 30.5281 37.1845 30.3544 36.7582 30.3761V30.3833Z" fill="#4C3C8D"/>
<path d="M46.5081 34.4084H46.3706C46.3018 34.4084 46.233 34.3867 46.178 34.3505C46.1093 34.2998 46.0543 34.2419 46.0061 34.1767L45.7036 33.7568L46.4256 32.794C46.4256 32.794 46.4324 32.7795 46.4393 32.7723C46.46 32.7289 46.4462 32.6782 46.4049 32.6565L46.0474 32.3235C46.0474 32.3235 46.0336 32.309 46.0268 32.309C45.9855 32.2873 45.9374 32.309 45.9168 32.3452L45.2773 33.1705L44.0878 31.5561C44.294 31.3823 44.4728 31.2158 44.6103 31.0783C44.741 30.948 44.851 30.8104 44.9541 30.6584C45.0366 30.5354 45.0985 30.405 45.1466 30.2675C45.1879 30.13 45.2085 29.9924 45.2085 29.8476C45.2085 29.6594 45.1741 29.4712 45.1054 29.2974C45.0366 29.1309 44.9404 28.9717 44.8166 28.8486C44.686 28.7183 44.5347 28.6097 44.3628 28.5445C43.9846 28.3998 43.5721 28.3925 43.1939 28.5445C43.0289 28.6097 42.8707 28.7111 42.7401 28.8414C42.6094 28.9644 42.5063 29.1237 42.4444 29.2902C42.3756 29.4712 42.3344 29.6594 42.3413 29.8549C42.3413 29.9707 42.355 30.0865 42.3894 30.2023C42.4238 30.3254 42.4719 30.4412 42.5269 30.5571C42.5957 30.6946 42.6782 30.8322 42.7676 30.9625C42.8638 31.1073 42.9876 31.2738 43.1251 31.462C42.7607 31.7516 42.4375 32.1063 42.1694 32.5044C41.9768 32.8085 41.8737 33.1705 41.8668 33.5324C41.8668 33.7713 41.9012 34.003 41.9768 34.2274C42.1144 34.64 42.4238 34.973 42.8088 35.1323C43.3314 35.335 43.909 35.306 44.404 35.0454C44.7066 34.8644 44.9816 34.6328 45.2085 34.3577L45.4561 34.6979C45.5455 34.85 45.6692 34.973 45.8136 35.0671C45.9511 35.1323 46.1024 35.1613 46.2537 35.154H46.5012C46.5012 35.154 46.515 35.154 46.5218 35.154C46.57 35.154 46.5975 35.1033 46.5906 35.0599V34.517C46.5906 34.517 46.5906 34.5025 46.5906 34.4952C46.5906 34.4446 46.5425 34.4156 46.4943 34.4228L46.5081 34.4084ZM43.0907 30.0503C43.0701 29.9852 43.0632 29.9128 43.0632 29.8404C43.0632 29.6522 43.1182 29.4639 43.242 29.3264C43.3795 29.1816 43.5652 29.1092 43.7508 29.1237C43.9434 29.1165 44.129 29.1888 44.2734 29.3264C44.404 29.4567 44.4728 29.6449 44.4728 29.8331C44.4728 29.9128 44.4659 29.9924 44.4453 30.0648C44.4247 30.1517 44.3834 30.2385 44.3353 30.3109C44.2665 30.4195 44.184 30.5136 44.0878 30.6005C43.9777 30.7019 43.8402 30.8322 43.6683 30.9769L43.3727 30.5643C43.3039 30.4702 43.242 30.3761 43.1801 30.2747C43.1389 30.2023 43.1045 30.13 43.0839 30.0431L43.0907 30.0503ZM44.1771 34.3577C43.9915 34.4735 43.7852 34.5314 43.5721 34.5314C43.3039 34.5532 43.0426 34.4446 42.8501 34.2491C42.6713 34.0319 42.5819 33.7568 42.5957 33.4745C42.5957 33.2211 42.6713 32.975 42.8157 32.7723C43.0151 32.49 43.2558 32.2366 43.5308 32.0266L44.8029 33.7786C44.6241 34.003 44.4178 34.2057 44.1771 34.3649V34.3577Z" fill="#4C3C8D"/>
<path d="M53.8378 28.5372H49.4647C49.4647 28.5372 49.451 28.5372 49.4441 28.5372C49.3959 28.5372 49.3684 28.5879 49.3753 28.6386V29.2467C49.3753 29.2467 49.3753 29.2612 49.3753 29.2684C49.3753 29.3191 49.4234 29.348 49.4716 29.3408H51.1906C51.1906 29.3408 51.1974 29.3408 51.2043 29.3408C51.2318 29.3408 51.2524 29.3698 51.2456 29.3987V35.0454C51.2456 35.0454 51.2456 35.0598 51.2456 35.0671C51.2456 35.1177 51.2937 35.1467 51.335 35.1395H51.9744C51.9744 35.1395 51.9882 35.1395 51.9951 35.1395C52.0432 35.1395 52.0707 35.0888 52.0638 35.0454V29.3987C52.0638 29.3987 52.0638 29.3915 52.0638 29.3842C52.0638 29.3553 52.0913 29.3408 52.1188 29.3408H53.8378C53.8378 29.3408 53.8516 29.3408 53.8584 29.3408C53.9066 29.3408 53.9341 29.2901 53.9272 29.2467V28.6386C53.9272 28.6386 53.9272 28.6241 53.9272 28.6169C53.9272 28.5662 53.8791 28.5372 53.8378 28.5445V28.5372Z" fill="#4C3C8D"/>
<path d="M57.3394 30.4774C57.1812 30.4123 57.0093 30.3833 56.8374 30.3833C56.583 30.3761 56.3286 30.4412 56.1017 30.5715C55.9161 30.6873 55.7648 30.8611 55.6616 31.0638H55.6548V30.586C55.6548 30.586 55.6548 30.5715 55.6548 30.5643C55.6548 30.5136 55.6066 30.4846 55.5654 30.4919H54.9741C54.9741 30.4919 54.9603 30.4919 54.9534 30.4919C54.9122 30.4919 54.8778 30.5426 54.8847 30.586V35.0454C54.8847 35.0454 54.8847 35.0599 54.8847 35.0671C54.8847 35.1105 54.9328 35.1467 54.9741 35.1395H55.5585C55.5585 35.1395 55.5723 35.1395 55.5791 35.1395C55.6273 35.1395 55.6548 35.0888 55.6479 35.0454V32.4972C55.6341 32.1497 55.7098 31.8094 55.8679 31.5126C56.0261 31.2592 56.308 31.1145 56.5968 31.1362C56.7205 31.1362 56.8374 31.1579 56.9543 31.1941C57.0712 31.2375 57.1744 31.2882 57.2775 31.3606C57.2775 31.3606 57.2913 31.3751 57.2981 31.3751C57.3394 31.3968 57.3875 31.3823 57.4081 31.3389L57.7519 30.8611C57.7794 30.8177 57.7726 30.7597 57.7313 30.7235C57.6144 30.6077 57.4769 30.5208 57.3325 30.4629L57.3394 30.4774Z" fill="#4C3C8D"/>
<path d="M60.0207 30.3833C59.725 30.3833 59.4294 30.4195 59.1406 30.5063C58.9137 30.5787 58.7005 30.6873 58.5149 30.8393C58.4805 30.8755 58.4736 30.9335 58.4943 30.9769L58.7418 31.4257C58.7762 31.4764 58.8174 31.4836 58.8724 31.433C59.01 31.3316 59.1543 31.252 59.3125 31.1941C59.5188 31.1289 59.725 31.0927 59.9382 31.1C60.2339 31.0638 60.5295 31.1434 60.7771 31.3099C60.9421 31.4981 61.0246 31.7515 60.9971 32.0049V32.3451C60.9971 32.3451 60.9971 32.3524 60.9971 32.3596C60.9971 32.3886 60.9696 32.4103 60.9421 32.403H59.9382C59.4913 32.3741 59.0443 32.4971 58.6662 32.7505C58.3499 33.0111 58.178 33.4238 58.2123 33.8437C58.2123 34.0536 58.2467 34.2635 58.3292 34.459C58.398 34.6255 58.508 34.7775 58.6455 34.9006C58.783 35.0237 58.9412 35.1105 59.1131 35.1612C59.3056 35.2191 59.4981 35.2481 59.6975 35.2481C59.9863 35.2626 60.2682 35.1974 60.5295 35.0743C60.7221 34.9802 60.894 34.8282 61.0109 34.64H61.0177V35.0454C61.0177 35.0454 61.0177 35.0599 61.0177 35.0671C61.0177 35.1105 61.0659 35.1467 61.1071 35.1395H61.6434C61.6434 35.1395 61.6572 35.1395 61.6641 35.1395C61.7053 35.1395 61.7397 35.0888 61.7328 35.0454V31.9687C61.7741 31.5198 61.6297 31.0782 61.3409 30.7525C60.949 30.4701 60.4814 30.3398 60.007 30.3905L60.0207 30.3833ZM61.0109 33.641C61.0246 33.9016 60.9146 34.1549 60.7152 34.3142C60.4745 34.488 60.1857 34.5676 59.8901 34.5531C59.6494 34.5748 59.4088 34.5097 59.2025 34.3721C59.0375 34.2418 58.9481 34.0391 58.9618 33.8292C58.9412 33.6048 59.0443 33.3803 59.2231 33.25C59.4844 33.1125 59.7732 33.0473 60.0688 33.0691H60.9627C60.9627 33.0691 60.9696 33.0691 60.9765 33.0691C61.004 33.0691 61.0246 33.098 61.0177 33.127V33.641H61.0109Z" fill="#4C3C8D"/>
<path d="M63.9124 30.4919H63.3211C63.3211 30.4919 63.3073 30.4919 63.3005 30.4919C63.2592 30.4919 63.2248 30.5426 63.2317 30.586V35.0454C63.2317 35.0454 63.2317 35.0599 63.2317 35.0671C63.2317 35.1106 63.2798 35.1468 63.3211 35.1395H63.9124C63.9124 35.1395 63.9262 35.1395 63.9331 35.1395C63.9812 35.1395 64.0087 35.0889 64.0018 35.0454V30.586C64.0018 30.586 64.0018 30.5715 64.0018 30.5643C64.0018 30.5136 63.9537 30.4847 63.9124 30.4919Z" fill="#4C3C8D"/>
<path d="M63.932 28.5373H63.3063C63.3063 28.5373 63.2925 28.5373 63.2856 28.5373C63.2375 28.5373 63.21 28.588 63.2169 28.6314V29.3336C63.2169 29.3336 63.2169 29.3481 63.2169 29.3553C63.2169 29.3988 63.265 29.435 63.3063 29.4277H63.932C63.932 29.4277 63.9457 29.4277 63.9526 29.4277C64.0007 29.4277 64.0282 29.3771 64.0213 29.3336V28.6242C64.0213 28.6242 64.0213 28.6097 64.0213 28.6025C64.0213 28.5518 63.9732 28.5228 63.9251 28.5301L63.932 28.5373Z" fill="#4C3C8D"/>
<path d="M67.5345 30.3833C67.2664 30.3761 67.0051 30.434 66.7713 30.5643C66.5788 30.6657 66.4138 30.8249 66.3037 31.0131H66.2969V30.586C66.2969 30.586 66.2969 30.5715 66.2969 30.5643C66.2969 30.5209 66.2487 30.4847 66.2075 30.4919H65.6161C65.6161 30.4919 65.6024 30.4919 65.5955 30.4919C65.5543 30.4919 65.5199 30.5426 65.5268 30.586V35.0454C65.5268 35.0454 65.5268 35.0599 65.5268 35.0671C65.5268 35.1106 65.5749 35.1468 65.6161 35.1395H66.2075C66.2075 35.1395 66.2212 35.1395 66.2281 35.1395C66.2694 35.1395 66.3037 35.0889 66.2969 35.0454V32.2728C66.2831 31.9687 66.3863 31.6647 66.5788 31.4403C66.7713 31.2303 67.0395 31.1217 67.3145 31.1362C67.5964 31.1145 67.8715 31.2303 68.0571 31.4475C68.2359 31.7009 68.3184 32.0122 68.3046 32.3235V35.0454C68.3046 35.0454 68.3046 35.0599 68.3046 35.0671C68.3046 35.1106 68.3528 35.1468 68.394 35.1395H68.9854C68.9854 35.1395 68.9991 35.1395 69.006 35.1395C69.0472 35.1395 69.0816 35.0889 69.0747 35.0454V32.128C69.0954 31.6647 68.951 31.2086 68.6691 30.8539C68.3803 30.5281 67.9677 30.3544 67.5414 30.3761L67.5345 30.3833Z" fill="#4C3C8D"/>
<path d="M71.2219 30.4919H70.6306C70.6306 30.4919 70.6168 30.4919 70.6099 30.4919C70.5687 30.4919 70.5343 30.5426 70.5412 30.586V35.0454C70.5412 35.0454 70.5412 35.0599 70.5412 35.0671C70.5412 35.1106 70.5893 35.1468 70.6306 35.1395H71.2219C71.2219 35.1395 71.2356 35.1395 71.2425 35.1395C71.2906 35.1395 71.3181 35.0889 71.3113 35.0454V30.586C71.3113 30.586 71.3113 30.5715 71.3113 30.5643C71.3113 30.5136 71.2631 30.4847 71.2219 30.4919Z" fill="#4C3C8D"/>
<path d="M71.2413 28.5373H70.6156C70.6156 28.5373 70.6018 28.5373 70.595 28.5373C70.5468 28.5373 70.5193 28.588 70.5262 28.6314V29.3336C70.5262 29.3336 70.5262 29.3481 70.5262 29.3553C70.5262 29.3988 70.5743 29.435 70.6156 29.4277H71.2413C71.2413 29.4277 71.255 29.4277 71.2619 29.4277C71.31 29.4277 71.3376 29.3771 71.3307 29.3336V28.6242C71.3307 28.6242 71.3307 28.6097 71.3307 28.6025C71.3307 28.5518 71.2825 28.5228 71.2344 28.5301L71.2413 28.5373Z" fill="#4C3C8D"/>
<path d="M74.844 30.3833C74.5758 30.3761 74.3145 30.434 74.0808 30.5643C73.8882 30.6657 73.7232 30.8249 73.6132 31.0131H73.6063V30.586C73.6063 30.586 73.6063 30.5715 73.6063 30.5643C73.6063 30.5209 73.5582 30.4847 73.5169 30.4919H72.9256C72.9256 30.4919 72.9118 30.4919 72.905 30.4919C72.8637 30.4919 72.8293 30.5426 72.8362 30.586V35.0454C72.8362 35.0454 72.8362 35.0599 72.8362 35.0671C72.8362 35.1106 72.8843 35.1468 72.9256 35.1395H73.5169C73.5169 35.1395 73.5307 35.1395 73.5376 35.1395C73.5788 35.1395 73.6132 35.0889 73.6063 35.0454V32.2728C73.5926 31.9687 73.6957 31.6647 73.8882 31.4403C74.0808 31.2303 74.3489 31.1217 74.624 31.1362C74.9059 31.1145 75.1809 31.2303 75.3666 31.4475C75.5453 31.7009 75.6278 32.0122 75.6141 32.3235V35.0454C75.6141 35.0454 75.6141 35.0599 75.6141 35.0671C75.6141 35.1106 75.6622 35.1468 75.7035 35.1395H76.2948C76.2948 35.1395 76.3086 35.1395 76.3154 35.1395C76.3567 35.1395 76.3911 35.0889 76.3842 35.0454V32.128C76.4048 31.6647 76.2604 31.2086 75.9785 30.8539C75.6897 30.5281 75.2772 30.3544 74.8509 30.3761L74.844 30.3833Z" fill="#4C3C8D"/>
<path d="M81.1164 30.4919H80.5251C80.5251 30.4919 80.5114 30.4919 80.5045 30.4919C80.4564 30.4919 80.4289 30.5426 80.4357 30.586V31.0204H80.4289C80.3257 30.8249 80.1676 30.6656 79.9819 30.557C79.425 30.2892 78.7855 30.3326 78.2629 30.6656C78.0016 30.8756 77.8091 31.1724 77.7197 31.5054C77.6647 31.6791 77.6235 31.8601 77.6028 32.0411C77.5616 32.4972 77.5616 32.9532 77.6028 33.4093C77.6235 33.5903 77.6647 33.7713 77.7197 33.945C77.8091 34.278 78.0016 34.5748 78.2629 34.7848C78.538 34.9875 78.868 35.0888 79.2049 35.0744C79.4731 35.0888 79.7413 35.0237 79.9819 34.9006C80.1676 34.792 80.3257 34.6255 80.4289 34.4301H80.4357V34.9802C80.4632 35.3205 80.3601 35.668 80.1538 35.9358C79.9269 36.153 79.6244 36.2688 79.3218 36.2399C79.1293 36.2399 78.9299 36.2037 78.7511 36.1168C78.5792 36.0299 78.4142 35.9141 78.2767 35.7693L78.2629 35.7549C78.2217 35.7187 78.1667 35.7259 78.1392 35.7693L77.761 36.1675H77.7472C77.7129 36.2109 77.7129 36.2688 77.7472 36.305C77.9123 36.5295 78.1392 36.7032 78.3867 36.8046C78.6686 36.9349 78.9712 36.9928 79.2806 36.9928H79.2737C79.8031 37.029 80.3188 36.8407 80.7108 36.4643C81.0614 36.0444 81.2402 35.4942 81.2058 34.9368V30.586C81.2058 30.586 81.2058 30.5715 81.2058 30.5643C81.2058 30.5136 81.1577 30.4847 81.1096 30.4919H81.1164ZM80.4082 33.2428C80.3945 33.3731 80.367 33.5034 80.3326 33.6337C80.2157 34.0753 79.8169 34.3649 79.3837 34.3287C78.9574 34.3577 78.5655 34.0681 78.4486 33.6337C78.3661 33.3442 78.3317 33.0401 78.3386 32.7361C78.3386 32.5696 78.3454 32.4031 78.3661 32.2366C78.3798 32.099 78.4073 31.9687 78.4486 31.8312C78.5517 31.5416 78.7649 31.3172 79.0399 31.2086C79.5625 31.0059 80.1401 31.281 80.3326 31.8312C80.3738 31.9615 80.3945 32.0918 80.4082 32.2221C80.422 32.3886 80.4357 32.5623 80.4289 32.7288C80.4289 32.9026 80.4289 33.0691 80.4082 33.2428Z" fill="#4C3C8D"/>
<path d="M88.8372 28.5373H85.0554C85.0554 28.5373 85.0416 28.5373 85.0348 28.5373C84.9866 28.5373 84.9591 28.5879 84.966 28.6314V35.0382C84.966 35.0382 84.966 35.0526 84.966 35.0599C84.966 35.1105 85.0141 35.1395 85.0554 35.1323H88.8372C88.8372 35.1323 88.8509 35.1323 88.8578 35.1323C88.9059 35.1323 88.9334 35.0816 88.9266 35.0382V34.4228C88.9266 34.4228 88.9266 34.4083 88.9266 34.4011C88.9266 34.3504 88.8784 34.3215 88.8372 34.3287H85.8461C85.8461 34.3287 85.8393 34.3287 85.8324 34.3287C85.8049 34.3287 85.7842 34.2997 85.7911 34.2708V32.2583C85.7911 32.2583 85.7911 32.251 85.7911 32.2438C85.7911 32.2148 85.8186 32.1931 85.8461 32.2004H88.3834C88.3834 32.2004 88.3971 32.2004 88.404 32.2004C88.4521 32.2004 88.4796 32.1497 88.4727 32.099V31.4837C88.4727 31.4837 88.4727 31.4692 88.4727 31.4619C88.4727 31.4113 88.4246 31.3823 88.3834 31.3896H85.8461C85.8461 31.3896 85.8393 31.3896 85.8324 31.3896C85.8049 31.3896 85.7842 31.3606 85.7911 31.3316V29.3915C85.7911 29.3915 85.7911 29.3843 85.7911 29.377C85.7911 29.3481 85.8186 29.3264 85.8461 29.3336H88.8372C88.8372 29.3336 88.8509 29.3336 88.8578 29.3336C88.9059 29.3336 88.9334 29.2829 88.9266 29.2322V28.6241C88.9266 28.6241 88.9266 28.6097 88.9266 28.6024C88.9266 28.5517 88.8784 28.5228 88.8372 28.53V28.5373Z" fill="#4C3C8D"/>
<path d="M93.3062 30.4919H92.6805C92.6254 30.4919 92.5773 30.5353 92.5704 30.586L91.4565 33.9305H91.4359L90.2945 30.586C90.2808 30.5281 90.2326 30.4919 90.1776 30.4919H89.5382C89.4694 30.4919 89.4488 30.5208 89.4625 30.586L91.0509 35.0526C91.0577 35.1105 91.1059 35.154 91.1609 35.1467H91.6903C91.7453 35.1467 91.8003 35.1033 91.8072 35.0454L93.3887 30.586C93.4093 30.5208 93.3887 30.4919 93.3131 30.4919H93.3062Z" fill="#4C3C8D"/>
<path d="M95.9066 30.3833C95.6109 30.3833 95.3152 30.4195 95.0265 30.5063C94.7995 30.5787 94.5864 30.6873 94.4007 30.8393C94.3664 30.8755 94.3595 30.9335 94.3801 30.9769L94.6276 31.4257C94.662 31.4764 94.7033 31.4836 94.7583 31.433C94.8958 31.3316 95.0402 31.252 95.1984 31.1941C95.4046 31.1289 95.6109 31.0927 95.8241 31.1C96.1197 31.0638 96.4154 31.1434 96.6629 31.3099C96.828 31.4981 96.9105 31.7515 96.883 32.0049V32.3451C96.883 32.3451 96.883 32.3524 96.883 32.3596C96.883 32.3886 96.8555 32.4103 96.828 32.403H95.8241C95.3771 32.3741 94.9302 32.4971 94.552 32.7505C94.2357 33.0111 94.0638 33.4238 94.0982 33.8437C94.0982 34.0536 94.1326 34.2635 94.2151 34.459C94.2839 34.6255 94.3939 34.7775 94.5314 34.9006C94.6689 35.0237 94.8271 35.1105 94.999 35.1612C95.1915 35.2191 95.384 35.2481 95.5834 35.2481C95.8722 35.2626 96.1541 35.1974 96.4154 35.0743C96.6079 34.9802 96.7798 34.8282 96.8967 34.64H96.9036V35.0454C96.9036 35.0454 96.9036 35.0599 96.9036 35.0671C96.9036 35.1105 96.9517 35.1467 96.993 35.1395H97.5293C97.5293 35.1395 97.543 35.1395 97.5499 35.1395C97.5912 35.1395 97.6256 35.0888 97.6187 35.0454V31.9687C97.6599 31.5198 97.5155 31.0782 97.2268 30.7525C96.8348 30.4701 96.3673 30.3398 95.8928 30.3905L95.9066 30.3833ZM96.8967 33.641C96.9105 33.9016 96.8005 34.1549 96.601 34.3142C96.3604 34.488 96.0716 34.5676 95.7759 34.5531C95.5353 34.5748 95.2946 34.5097 95.0883 34.3721C94.9233 34.2418 94.8339 34.0391 94.8477 33.8292C94.8271 33.6048 94.9302 33.3803 95.109 33.25C95.3703 33.1125 95.659 33.0473 95.9547 33.0691H96.8486C96.8486 33.0691 96.8555 33.0691 96.8623 33.0691C96.8898 33.0691 96.9105 33.098 96.9036 33.127V33.641H96.8967Z" fill="#4C3C8D"/>
<path d="M100.491 34.43H100.312C100.189 34.4445 100.072 34.4011 99.9754 34.3214C99.8929 34.2056 99.8517 34.0608 99.8723 33.916V28.6313C99.8723 28.6313 99.8723 28.6169 99.8723 28.6096C99.8723 28.559 99.8241 28.53 99.7829 28.5372H99.1916C99.1916 28.5372 99.1778 28.5372 99.1709 28.5372C99.1228 28.5372 99.0953 28.5879 99.1022 28.6313V33.9667C99.0747 34.2997 99.1641 34.6255 99.3497 34.8933C99.5697 35.1105 99.8723 35.2191 100.182 35.1901H100.498C100.498 35.1901 100.512 35.1901 100.519 35.1901C100.567 35.1901 100.594 35.1395 100.587 35.096V34.5314C100.587 34.5314 100.587 34.5169 100.587 34.5096C100.587 34.459 100.539 34.43 100.498 34.4373L100.491 34.43Z" fill="#4C3C8D"/>
<path d="M105.045 30.4919H104.453C104.453 30.4919 104.44 30.4919 104.433 30.4919C104.391 30.4919 104.357 30.5425 104.364 30.586V33.3441C104.378 33.6482 104.281 33.9522 104.089 34.1767C103.903 34.3866 103.635 34.5024 103.367 34.488C103.085 34.5097 102.817 34.3938 102.631 34.1767C102.459 33.9233 102.37 33.6048 102.391 33.2935V30.586C102.391 30.586 102.391 30.5715 102.391 30.5643C102.391 30.5208 102.342 30.4846 102.301 30.4919H101.71C101.71 30.4919 101.696 30.4919 101.689 30.4919C101.648 30.4919 101.614 30.5425 101.62 30.586V33.4962C101.6 33.9595 101.744 34.4156 102.019 34.7775C102.308 35.1105 102.721 35.2843 103.147 35.2553C103.401 35.2626 103.656 35.2046 103.883 35.0816C104.075 34.973 104.24 34.8137 104.357 34.6183H104.364V35.0526C104.364 35.0526 104.364 35.0671 104.364 35.0743C104.364 35.1178 104.412 35.154 104.453 35.1467H105.045C105.045 35.1467 105.058 35.1467 105.065 35.1467C105.107 35.1467 105.141 35.096 105.134 35.0526V30.5932C105.134 30.5932 105.134 30.5787 105.134 30.5715C105.134 30.5281 105.086 30.4919 105.045 30.4991V30.4919Z" fill="#4C3C8D"/>
<path d="M108.227 30.3833C107.932 30.3833 107.636 30.4195 107.354 30.5064C107.127 30.5788 106.914 30.6874 106.728 30.8394C106.694 30.8756 106.687 30.9335 106.708 30.9769L106.955 31.4258C106.99 31.4764 107.031 31.4837 107.086 31.433C107.223 31.3317 107.368 31.252 107.526 31.1941C107.732 31.129 107.939 31.0928 108.152 31.1C108.447 31.0638 108.743 31.1434 108.991 31.3099C109.156 31.4982 109.238 31.7515 109.211 32.0049V32.3452C109.211 32.3452 109.211 32.3524 109.211 32.3596C109.211 32.3886 109.183 32.4103 109.156 32.4031H108.152C107.705 32.3741 107.258 32.4972 106.88 32.7506C106.563 33.0112 106.391 33.4238 106.426 33.8437C106.426 34.0536 106.46 34.2636 106.543 34.459C106.611 34.6255 106.722 34.7776 106.859 34.9006C106.997 35.0237 107.155 35.1106 107.327 35.1612C107.519 35.2191 107.712 35.2481 107.911 35.2481C108.2 35.2626 108.482 35.1974 108.743 35.0744C108.936 34.9803 109.107 34.8282 109.224 34.64H109.231V35.0454C109.231 35.0454 109.231 35.0599 109.231 35.0671C109.231 35.1106 109.279 35.1468 109.321 35.1395H109.857C109.857 35.1395 109.871 35.1395 109.878 35.1395C109.919 35.1395 109.953 35.0888 109.946 35.0454V31.9687C109.988 31.5199 109.843 31.0783 109.554 30.7525C109.162 30.4702 108.695 30.3399 108.22 30.3905L108.227 30.3833ZM109.217 33.641C109.231 33.9016 109.121 34.155 108.922 34.3142C108.681 34.488 108.392 34.5676 108.097 34.5531C107.856 34.5749 107.615 34.5097 107.409 34.3722C107.244 34.2418 107.155 34.0391 107.168 33.8292C107.148 33.6048 107.251 33.3804 107.43 33.2501C107.691 33.1125 107.98 33.0474 108.275 33.0691H109.169C109.169 33.0691 109.176 33.0691 109.183 33.0691C109.211 33.0691 109.231 33.098 109.224 33.127V33.641H109.217Z" fill="#4C3C8D"/>
<path d="M113.062 30.4919H112.361C112.361 30.4919 112.354 30.4919 112.347 30.4919C112.319 30.4919 112.306 30.4629 112.306 30.434V29.1237C112.306 29.1237 112.306 29.1092 112.306 29.1019C112.306 29.0513 112.258 29.0223 112.209 29.0295H111.618C111.618 29.0295 111.604 29.0295 111.597 29.0295C111.549 29.0295 111.522 29.0802 111.529 29.1309V30.4412C111.529 30.4412 111.529 30.4484 111.529 30.4557C111.529 30.4846 111.501 30.4991 111.474 30.4991H111.102C111.102 30.4991 111.089 30.4991 111.082 30.4991C111.034 30.4991 111.006 30.5498 111.013 30.5932V31.0565C111.013 31.0565 111.013 31.071 111.013 31.0783C111.013 31.1289 111.061 31.1579 111.102 31.1507H111.474C111.474 31.1507 111.481 31.1507 111.487 31.1507C111.515 31.1507 111.529 31.1796 111.529 31.2086V33.8726C111.501 34.2346 111.597 34.5893 111.804 34.8789C112.051 35.1178 112.388 35.2336 112.725 35.1974H113.062C113.062 35.1974 113.076 35.1974 113.083 35.1974C113.124 35.1974 113.158 35.1467 113.151 35.1033V34.5386C113.151 34.5386 113.151 34.5242 113.151 34.5169C113.151 34.4735 113.103 34.4373 113.062 34.4445H112.87C112.718 34.459 112.567 34.4156 112.443 34.3215C112.34 34.1912 112.292 34.0174 112.313 33.8509V31.2158C112.313 31.2158 112.313 31.2086 112.313 31.2013C112.313 31.1724 112.34 31.1579 112.368 31.1579H113.069C113.069 31.1579 113.083 31.1579 113.09 31.1579C113.138 31.1579 113.165 31.1072 113.158 31.0638V30.6005C113.158 30.6005 113.158 30.586 113.158 30.5788C113.158 30.5281 113.11 30.4991 113.069 30.5064L113.062 30.4919Z" fill="#4C3C8D"/>
<path d="M115.035 30.4919H114.444C114.444 30.4919 114.43 30.4919 114.423 30.4919C114.382 30.4919 114.347 30.5426 114.354 30.586V35.0454C114.354 35.0454 114.354 35.0599 114.354 35.0671C114.354 35.1106 114.402 35.1468 114.444 35.1395H115.035C115.035 35.1395 115.049 35.1395 115.056 35.1395C115.104 35.1395 115.131 35.0889 115.124 35.0454V30.586C115.124 30.586 115.124 30.5715 115.124 30.5643C115.124 30.5136 115.076 30.4847 115.035 30.4919Z" fill="#4C3C8D"/>
<path d="M115.054 28.5373H114.429C114.429 28.5373 114.415 28.5373 114.408 28.5373C114.36 28.5373 114.332 28.588 114.339 28.6314V29.3336C114.339 29.3336 114.339 29.3481 114.339 29.3553C114.339 29.3988 114.387 29.435 114.429 29.4277H115.054C115.054 29.4277 115.068 29.4277 115.075 29.4277C115.123 29.4277 115.151 29.3771 115.144 29.3336V28.6242C115.144 28.6242 115.144 28.6097 115.144 28.6025C115.144 28.5518 115.096 28.5228 115.048 28.5301L115.054 28.5373Z" fill="#4C3C8D"/>
<path d="M120.014 31.6357C119.911 31.2593 119.684 30.9335 119.374 30.7091C118.694 30.2747 117.848 30.2747 117.167 30.7091C116.858 30.9335 116.631 31.2593 116.528 31.6357C116.479 31.8022 116.438 31.9687 116.418 32.1425C116.39 32.3669 116.376 32.5913 116.383 32.8157C116.383 33.0401 116.39 33.2645 116.418 33.489C116.438 33.6627 116.479 33.8292 116.528 33.9957C116.638 34.3721 116.865 34.6979 117.167 34.9223C117.49 35.1468 117.875 35.2626 118.267 35.2553C118.659 35.2698 119.044 35.154 119.367 34.9223C119.677 34.6979 119.897 34.3721 120.007 33.9957C120.055 33.8292 120.096 33.6627 120.117 33.489C120.144 33.2645 120.158 33.0401 120.151 32.8157C120.151 32.5913 120.144 32.3669 120.117 32.1425C120.096 31.9687 120.055 31.8022 120.007 31.6357H120.014ZM119.347 33.3587C119.333 33.4962 119.306 33.6337 119.271 33.764C119.209 33.9812 119.079 34.1695 118.9 34.2998C118.714 34.4301 118.494 34.4952 118.274 34.488C118.054 34.4952 117.834 34.4301 117.648 34.2998C117.47 34.1695 117.339 33.9812 117.277 33.764C117.243 33.6337 117.215 33.4962 117.201 33.3587C117.181 33.1777 117.174 32.9967 117.181 32.8085C117.181 32.6275 117.181 32.4465 117.201 32.2655C117.215 32.128 117.243 31.9977 117.277 31.8674C117.339 31.6502 117.47 31.462 117.648 31.3316C118.033 31.0783 118.522 31.0783 118.9 31.3316C119.079 31.462 119.202 31.6502 119.271 31.8674C119.306 31.9977 119.333 32.128 119.347 32.2655C119.367 32.4465 119.374 32.6275 119.367 32.8085C119.367 32.9894 119.367 33.1777 119.347 33.3587Z" fill="#4C3C8D"/>
<path d="M123.424 30.3833C123.156 30.3761 122.894 30.434 122.661 30.5643C122.468 30.6657 122.303 30.8249 122.193 31.0131H122.186V30.586C122.186 30.586 122.186 30.5715 122.186 30.5571C122.179 30.5136 122.138 30.4774 122.097 30.4847H121.505C121.505 30.4847 121.492 30.4847 121.485 30.4847C121.444 30.4847 121.409 30.5354 121.416 30.5788V35.0382C121.416 35.0382 121.416 35.0527 121.416 35.0599C121.416 35.1033 121.464 35.1395 121.505 35.1323H122.104C122.104 35.1323 122.117 35.1323 122.131 35.1323C122.172 35.1323 122.207 35.0816 122.2 35.0382V32.2728C122.186 31.9687 122.282 31.6647 122.475 31.4403C122.667 31.2303 122.936 31.1217 123.211 31.1362C123.493 31.1145 123.768 31.2303 123.953 31.4475C124.132 31.7009 124.215 32.0122 124.194 32.3235V35.0454C124.194 35.0454 124.194 35.0599 124.194 35.0671C124.194 35.1178 124.242 35.1468 124.283 35.1395H124.875C124.875 35.1395 124.888 35.1395 124.895 35.1395C124.943 35.1395 124.971 35.0889 124.964 35.0454V32.128C124.985 31.6647 124.84 31.2086 124.558 30.8539C124.27 30.5281 123.857 30.3544 123.431 30.3761L123.424 30.3833Z" fill="#4C3C8D"/>
<path d="M132.108 33.5034C132.108 33.5034 132.087 33.4889 132.08 33.4889C132.039 33.4745 131.991 33.5034 131.984 33.5541C131.867 33.8002 131.702 34.0174 131.496 34.1912C131.262 34.3649 130.98 34.4518 130.691 34.4373C130.395 34.4518 130.107 34.3649 129.859 34.1839C129.639 33.9957 129.474 33.7496 129.392 33.4672C129.371 33.4021 129.357 33.3297 129.343 33.2428C129.323 33.1415 129.316 33.0401 129.309 32.9388C129.302 32.8157 129.295 32.6709 129.288 32.4899C129.288 32.3089 129.282 32.0918 129.282 31.8312C129.282 31.5705 129.282 31.3534 129.288 31.1724C129.288 30.9914 129.302 30.8466 129.309 30.7235C129.309 30.6222 129.33 30.5208 129.343 30.4195C129.357 30.3399 129.378 30.2675 129.392 30.1878C129.481 29.9055 129.639 29.6521 129.859 29.4711C130.1 29.2902 130.395 29.2033 130.691 29.2178C130.98 29.2033 131.262 29.2902 131.496 29.4639C131.702 29.6376 131.867 29.8548 131.984 30.101C131.984 30.1154 131.991 30.1227 131.998 30.1299C132.025 30.1661 132.073 30.1734 132.114 30.1444L132.665 29.8621C132.706 29.8403 132.726 29.7824 132.699 29.739C132.541 29.3336 132.266 28.9861 131.908 28.7545C131.544 28.5156 131.117 28.3997 130.684 28.407C130.224 28.3925 129.763 28.5228 129.371 28.7907C128.993 29.0802 128.718 29.4929 128.594 29.9634C128.56 30.0575 128.539 30.1589 128.518 30.2602C128.491 30.3761 128.477 30.4991 128.47 30.6222C128.456 30.7597 128.45 30.9262 128.443 31.1217C128.436 31.3172 128.436 31.5488 128.436 31.8239C128.436 32.099 128.436 32.3307 128.443 32.5261C128.45 32.7216 128.456 32.8881 128.47 33.0256C128.477 33.1487 128.498 33.2718 128.518 33.3876C128.539 33.4889 128.566 33.5903 128.594 33.6844C128.718 34.1477 128.993 34.5604 129.371 34.8499C129.763 35.1178 130.217 35.2481 130.684 35.2336C131.117 35.2409 131.537 35.125 131.908 34.8861C132.259 34.6472 132.534 34.307 132.699 33.9016C132.72 33.8582 132.699 33.8002 132.665 33.7785L132.114 33.4962L132.108 33.5034Z" fill="#4C3C8D"/>
<path d="M137.231 31.6357C137.121 31.2593 136.901 30.9335 136.592 30.7091C135.911 30.2747 135.065 30.2747 134.384 30.7091C134.075 30.9335 133.848 31.2593 133.745 31.6357C133.697 31.8022 133.656 31.9687 133.635 32.1425C133.608 32.3669 133.594 32.5913 133.601 32.8157C133.601 33.0401 133.608 33.2645 133.635 33.489C133.656 33.6627 133.697 33.8292 133.745 33.9957C133.855 34.3721 134.082 34.6979 134.384 34.9223C134.708 35.1468 135.093 35.2626 135.485 35.2553C135.877 35.2698 136.262 35.154 136.585 34.9223C136.894 34.6979 137.114 34.3721 137.224 33.9957C137.272 33.8292 137.314 33.6627 137.334 33.489C137.362 33.2645 137.376 33.0401 137.369 32.8157C137.369 32.5913 137.362 32.3669 137.334 32.1425C137.314 31.9687 137.272 31.8022 137.224 31.6357H137.231ZM136.564 33.3587C136.55 33.4962 136.523 33.6337 136.489 33.764C136.427 33.9812 136.296 34.1695 136.117 34.2998C135.932 34.4301 135.712 34.4952 135.492 34.488C135.271 34.4952 135.051 34.4301 134.866 34.2998C134.687 34.1695 134.556 33.9812 134.495 33.764C134.46 33.6337 134.433 33.4962 134.419 33.3587C134.398 33.1777 134.391 32.9967 134.398 32.8085C134.398 32.6275 134.398 32.4465 134.419 32.2655C134.433 32.128 134.46 31.9977 134.495 31.8674C134.556 31.6502 134.687 31.462 134.866 31.3316C135.251 31.0783 135.739 31.0783 136.117 31.3316C136.296 31.462 136.42 31.6502 136.489 31.8674C136.523 31.9977 136.55 32.128 136.564 32.2655C136.585 32.4465 136.592 32.6275 136.585 32.8085C136.585 32.9894 136.585 33.1777 136.564 33.3587Z" fill="#4C3C8D"/>
<path d="M143.377 30.3833C143.081 30.3761 142.786 30.4412 142.525 30.5788C142.298 30.7091 142.098 30.8901 141.947 31.1145H141.94C141.823 30.8901 141.644 30.7018 141.431 30.5788C141.191 30.4485 140.922 30.3833 140.654 30.3905C140.386 30.3833 140.125 30.4412 139.891 30.5715C139.699 30.6729 139.534 30.8321 139.423 31.0204H139.417V30.5932C139.417 30.5932 139.417 30.5788 139.417 30.5715C139.417 30.5209 139.368 30.4919 139.327 30.4991H138.736C138.736 30.4991 138.722 30.4991 138.715 30.4991C138.674 30.4991 138.64 30.5498 138.647 30.5932V35.0526C138.647 35.0526 138.647 35.0671 138.647 35.0744C138.647 35.1178 138.695 35.154 138.736 35.1468H139.327C139.327 35.1468 139.341 35.1468 139.348 35.1468C139.396 35.1468 139.423 35.0961 139.417 35.0526V32.28C139.403 31.9759 139.499 31.6791 139.699 31.4475C139.891 31.2375 140.159 31.129 140.434 31.1434C140.716 31.1217 140.991 31.2375 141.177 31.4547C141.356 31.7081 141.438 32.0194 141.424 32.3307V35.0526C141.424 35.0526 141.424 35.0671 141.424 35.0744C141.424 35.125 141.473 35.154 141.514 35.1468H142.105C142.105 35.1468 142.119 35.1468 142.133 35.1468C142.174 35.1468 142.208 35.0961 142.201 35.0526V32.28C142.188 31.9759 142.291 31.6719 142.49 31.4475C142.683 31.2448 142.944 31.129 143.219 31.1434C143.501 31.1217 143.776 31.2375 143.962 31.4547C144.14 31.7081 144.223 32.0194 144.202 32.3307V35.0526C144.202 35.0526 144.202 35.0671 144.202 35.0744C144.202 35.125 144.25 35.154 144.292 35.1468H144.883C144.883 35.1468 144.897 35.1468 144.904 35.1468C144.945 35.1468 144.979 35.0961 144.972 35.0526V32.1352C144.993 31.6719 144.849 31.2158 144.574 30.8611C144.264 30.5281 143.838 30.3543 143.398 30.3833H143.377Z" fill="#4C3C8D"/>
<path d="M151.169 30.3833C150.873 30.376 150.577 30.4412 150.316 30.5787C150.089 30.709 149.89 30.89 149.738 31.1144H149.731C149.615 30.89 149.436 30.7018 149.223 30.5787C148.982 30.4484 148.714 30.3833 148.446 30.3905C148.178 30.3833 147.916 30.4412 147.682 30.5715C147.49 30.6728 147.325 30.8321 147.215 31.0203H147.208V30.5932C147.208 30.5932 147.208 30.5787 147.208 30.5715C147.208 30.5208 147.16 30.4919 147.119 30.4991H146.527C146.527 30.4991 146.514 30.4991 146.507 30.4991C146.465 30.4991 146.431 30.5498 146.438 30.5932V35.0526C146.438 35.0526 146.438 35.0671 146.438 35.0743C146.438 35.1178 146.486 35.154 146.527 35.1467H147.119C147.119 35.1467 147.132 35.1467 147.139 35.1467C147.187 35.1467 147.215 35.096 147.208 35.0526V32.28C147.194 31.9759 147.291 31.6791 147.49 31.4474C147.682 31.2375 147.951 31.1289 148.226 31.1434C148.508 31.1217 148.783 31.2375 148.968 31.4547C149.147 31.7081 149.23 32.0194 149.216 32.3306V35.0526C149.216 35.0526 149.216 35.0671 149.216 35.0743C149.216 35.125 149.264 35.154 149.305 35.1467H149.896C149.896 35.1467 149.91 35.1467 149.924 35.1467C149.965 35.1467 150 35.096 149.993 35.0526V32.28C149.979 31.9759 150.082 31.6719 150.282 31.4474C150.474 31.2447 150.735 31.1289 151.01 31.1434C151.292 31.1217 151.567 31.2375 151.753 31.4547C151.932 31.7081 152.014 32.0194 152.001 32.3306V35.0526C152.001 35.0526 152.001 35.0671 152.001 35.0743C152.001 35.125 152.049 35.154 152.09 35.1467H152.681C152.681 35.1467 152.695 35.1467 152.702 35.1467C152.743 35.1467 152.778 35.096 152.771 35.0526V32.1352C152.791 31.6719 152.654 31.2158 152.372 30.8611C152.062 30.5281 151.636 30.3543 151.196 30.3833H151.169Z" fill="#4C3C8D"/>
<path d="M154.915 28.5373H154.289C154.289 28.5373 154.275 28.5373 154.268 28.5373C154.22 28.5373 154.193 28.588 154.2 28.6314V29.3336C154.2 29.3336 154.2 29.3481 154.2 29.3553C154.2 29.3988 154.248 29.435 154.289 29.4277H154.915C154.915 29.4277 154.929 29.4277 154.935 29.4277C154.984 29.4277 155.011 29.3771 155.004 29.3336V28.6242C155.004 28.6242 155.004 28.6097 155.004 28.6025C155.004 28.5518 154.956 28.5228 154.908 28.5301L154.915 28.5373Z" fill="#4C3C8D"/>
<path d="M154.902 30.4919H154.31C154.31 30.4919 154.297 30.4919 154.29 30.4919C154.248 30.4919 154.214 30.5426 154.221 30.586V35.0454C154.221 35.0454 154.221 35.0599 154.221 35.0671C154.221 35.1106 154.269 35.1468 154.31 35.1395H154.902C154.902 35.1395 154.915 35.1395 154.922 35.1395C154.97 35.1395 154.998 35.0889 154.991 35.0454V30.586C154.991 30.586 154.991 30.5715 154.991 30.5643C154.991 30.5136 154.943 30.4847 154.902 30.4919Z" fill="#4C3C8D"/>
<path d="M158.491 32.4175L158.031 32.3668C157.79 32.3668 157.549 32.2944 157.343 32.1714C157.219 32.07 157.151 31.9035 157.157 31.737C157.157 31.556 157.233 31.3823 157.371 31.2737C157.556 31.1434 157.776 31.0782 157.996 31.0927C158.223 31.0927 158.443 31.1289 158.656 31.2085C158.842 31.2737 159.021 31.3606 159.186 31.4692C159.227 31.5054 159.282 31.4909 159.31 31.4474L159.626 31.0276C159.66 30.9697 159.653 30.9262 159.605 30.89C159.399 30.7308 159.172 30.6077 158.925 30.5208C158.636 30.4195 158.34 30.3688 158.038 30.376C157.604 30.3471 157.171 30.4774 156.821 30.7525C156.532 31.0131 156.374 31.3968 156.394 31.7949C156.38 32.1352 156.497 32.4609 156.724 32.6998C157.006 32.946 157.35 33.0908 157.714 33.1052L158.182 33.1559C158.423 33.1559 158.663 33.2355 158.87 33.3731C158.986 33.4817 159.048 33.641 159.041 33.8075C159.041 34.0102 158.952 34.1984 158.801 34.3142C158.588 34.4662 158.326 34.5314 158.072 34.5169C157.811 34.5169 157.549 34.4662 157.309 34.3576C157.089 34.2635 156.882 34.1405 156.704 33.9812C156.704 33.9812 156.697 33.9667 156.69 33.9667C156.656 33.9378 156.601 33.945 156.573 33.9812L156.195 34.4083C156.195 34.4083 156.181 34.4228 156.174 34.43C156.147 34.4662 156.154 34.5169 156.195 34.5459C156.415 34.7413 156.656 34.9006 156.917 35.0164C157.082 35.0888 157.247 35.1467 157.419 35.1829C157.618 35.2264 157.818 35.2481 158.017 35.2481C158.491 35.2843 158.966 35.1395 159.344 34.8354C159.653 34.5603 159.818 34.1549 159.805 33.7278C159.818 33.3948 159.702 33.069 159.482 32.8229C159.2 32.5695 158.849 32.4247 158.478 32.4175H158.491Z" fill="#4C3C8D"/>
<path d="M163.008 32.4175L162.548 32.3668C162.307 32.3668 162.066 32.2944 161.86 32.1714C161.736 32.07 161.668 31.9035 161.674 31.737C161.674 31.556 161.75 31.3823 161.888 31.2737C162.073 31.1434 162.293 31.0782 162.513 31.0927C162.74 31.0927 162.96 31.1289 163.173 31.2085C163.359 31.2737 163.538 31.3606 163.703 31.4692C163.744 31.5054 163.799 31.4909 163.827 31.4474L164.143 31.0276C164.177 30.9697 164.17 30.9262 164.122 30.89C163.916 30.7308 163.689 30.6077 163.442 30.5208C163.153 30.4195 162.857 30.3688 162.555 30.376C162.121 30.3471 161.688 30.4774 161.338 30.7525C161.049 31.0131 160.891 31.3968 160.911 31.7949C160.897 32.1352 161.014 32.4609 161.241 32.6998C161.523 32.946 161.867 33.0908 162.231 33.1052L162.699 33.1559C162.94 33.1559 163.18 33.2355 163.387 33.3731C163.503 33.4817 163.565 33.641 163.558 33.8075C163.558 34.0102 163.469 34.1984 163.318 34.3142C163.105 34.4662 162.843 34.5314 162.589 34.5169C162.328 34.5169 162.066 34.4662 161.826 34.3576C161.606 34.2635 161.399 34.1405 161.221 33.9812C161.221 33.9812 161.214 33.9667 161.207 33.9667C161.173 33.9378 161.117 33.945 161.09 33.9812L160.712 34.4083C160.712 34.4083 160.698 34.4228 160.691 34.43C160.664 34.4662 160.671 34.5169 160.712 34.5459C160.932 34.7413 161.173 34.9006 161.434 35.0164C161.599 35.0888 161.764 35.1467 161.936 35.1829C162.135 35.2264 162.335 35.2481 162.534 35.2481C163.008 35.2843 163.483 35.1395 163.861 34.8354C164.17 34.5603 164.335 34.1549 164.322 33.7278C164.335 33.3948 164.219 33.0618 163.992 32.8229C163.71 32.5695 163.359 32.4247 162.988 32.4175H163.008Z" fill="#4C3C8D"/>
<path d="M166.233 30.4919H165.642C165.642 30.4919 165.628 30.4919 165.621 30.4919C165.58 30.4919 165.545 30.5426 165.552 30.586V35.0454C165.552 35.0454 165.552 35.0599 165.552 35.0671C165.552 35.1105 165.6 35.1467 165.642 35.1395H166.233C166.233 35.1395 166.247 35.1395 166.253 35.1395C166.302 35.1395 166.329 35.0888 166.322 35.0454V30.586C166.322 30.586 166.322 30.5715 166.322 30.5643C166.322 30.5136 166.274 30.4846 166.233 30.4919Z" fill="#4C3C8D"/>
<path d="M166.246 28.5373H165.62C165.62 28.5373 165.606 28.5373 165.599 28.5373C165.551 28.5373 165.524 28.588 165.531 28.6314V29.3336C165.531 29.3336 165.531 29.3481 165.531 29.3553C165.531 29.3988 165.579 29.435 165.62 29.4277H166.246C166.246 29.4277 166.26 29.4277 166.266 29.4277C166.315 29.4277 166.342 29.3771 166.335 29.3336V28.6242C166.335 28.6242 166.335 28.6097 166.335 28.6025C166.335 28.5518 166.287 28.5228 166.239 28.5301L166.246 28.5373Z" fill="#4C3C8D"/>
<path d="M171.205 31.6357C171.102 31.2593 170.875 30.9335 170.566 30.7091C169.885 30.2747 169.039 30.2747 168.358 30.7091C168.049 30.9335 167.822 31.2593 167.719 31.6357C167.671 31.8022 167.63 31.9687 167.609 32.1425C167.581 32.3669 167.568 32.5913 167.575 32.8157C167.575 33.0401 167.581 33.2645 167.609 33.489C167.63 33.6627 167.671 33.8292 167.719 33.9957C167.829 34.3721 168.056 34.6979 168.358 34.9223C168.682 35.1468 169.067 35.2626 169.459 35.2553C169.851 35.2698 170.236 35.154 170.559 34.9223C170.868 34.6979 171.088 34.3721 171.198 33.9957C171.246 33.8292 171.288 33.6627 171.308 33.489C171.336 33.2645 171.35 33.0401 171.343 32.8157C171.343 32.5913 171.336 32.3669 171.308 32.1425C171.288 31.9687 171.246 31.8022 171.198 31.6357H171.205ZM170.538 33.3587C170.524 33.4962 170.497 33.6337 170.463 33.764C170.401 33.9812 170.27 34.1695 170.091 34.2998C169.906 34.4301 169.686 34.4952 169.466 34.488C169.245 34.4952 169.025 34.4301 168.84 34.2998C168.661 34.1695 168.53 33.9812 168.468 33.764C168.434 33.6337 168.407 33.4962 168.393 33.3587C168.372 33.1777 168.365 32.9967 168.372 32.8085C168.372 32.6275 168.372 32.4465 168.393 32.2655C168.407 32.128 168.434 31.9977 168.468 31.8674C168.53 31.6502 168.661 31.462 168.84 31.3316C169.225 31.0783 169.713 31.0783 170.098 31.3316C170.277 31.462 170.401 31.6502 170.469 31.8674C170.504 31.9977 170.531 32.128 170.545 32.2655C170.566 32.4465 170.573 32.6275 170.566 32.8085C170.566 32.9894 170.566 33.1777 170.545 33.3587H170.538Z" fill="#4C3C8D"/>
<path d="M174.622 30.3833C174.354 30.3761 174.093 30.434 173.859 30.5643C173.666 30.6656 173.501 30.8249 173.391 31.0131H173.378V30.586C173.378 30.586 173.378 30.5715 173.378 30.557C173.371 30.5136 173.329 30.4774 173.288 30.4847H172.697C172.697 30.4847 172.683 30.4847 172.676 30.4847C172.635 30.4847 172.601 30.5353 172.607 30.5788V35.0382C172.607 35.0382 172.607 35.0526 172.607 35.0599C172.607 35.1033 172.656 35.1395 172.697 35.1323H173.288C173.288 35.1323 173.302 35.1323 173.316 35.1323C173.357 35.1323 173.391 35.0816 173.384 35.0382V32.2655C173.371 31.9615 173.474 31.6574 173.666 31.433C173.859 31.2231 174.127 31.1145 174.402 31.1289C174.684 31.1072 174.959 31.2231 175.145 31.4402C175.323 31.6936 175.406 32.0049 175.392 32.3162V35.0382C175.392 35.0382 175.392 35.0526 175.392 35.0599C175.392 35.1106 175.44 35.1395 175.482 35.1323H176.073C176.073 35.1323 176.087 35.1323 176.094 35.1323C176.142 35.1323 176.169 35.0816 176.162 35.0382V32.1207C176.183 31.6574 176.039 31.2013 175.757 30.8466C175.468 30.5208 175.055 30.3471 174.629 30.3688L174.622 30.3833Z" fill="#4C3C8D"/>
<path d="M228.137 5.74075L221.344 10.5983L221.405 18.3878L228.199 13.5302L228.137 5.74075Z" fill="#4C3C8D"/>
<path d="M212.323 24.8742L218.923 20.1469V12.3068L212.323 17.034V24.8742Z" fill="#3FA0D9"/>
<path d="M218.923 0L212.323 4.71278V13.9356L218.923 9.21561V0Z" fill="#3FA0D9"/>
<path d="M237 30.1082L229.361 26.9519L223.29 31.404L230.936 34.5604L237.007 30.1082H237Z" fill="#4C3C8D"/>
<path d="M213.072 27.1618L220.505 30.2312L226.652 25.808L219.219 22.7386L213.079 27.1618H213.072Z" fill="#5C79B9"/>
<path d="M222.478 20.3931L221.66 20.9939L229.079 24.0634L236.299 18.8656L228.88 15.7889L222.478 20.4003V20.3931Z" fill="#4C3C8D"/>
<path d="M194.039 5.74075L200.826 10.5983L200.764 18.3878L193.97 13.5302L194.032 5.74075H194.039Z" fill="#44AC52"/>
<path d="M209.862 24.8742L203.261 20.1469V12.3068L209.862 17.034V24.867V24.8742Z" fill="#51B4C2"/>
<path d="M203.261 0V9.20837L209.855 13.9284V4.71278L203.261 0Z" fill="#51B4C2"/>
<path d="M185.176 30.1082L192.815 26.9519L198.887 31.404L191.241 34.5604L185.169 30.1082H185.176Z" fill="#44AC52"/>
<path d="M209.111 27.1618L201.678 30.2312L195.531 25.808L202.964 22.7386L209.104 27.1618H209.111Z" fill="#4CB27B"/>
<path d="M199.705 20.3931L200.523 20.9939L193.104 24.0634L185.884 18.8656L193.303 15.7889L199.705 20.4003V20.3931Z" fill="#44AC52"/>
</svg>
