<?xml version="1.0" encoding="utf-8"?>
<!-- Generator: Adobe Illustrator 24.3.0, SVG Export Plug-In . SVG Version: 6.00 Build 0)  -->
<svg version="1.1" id="Layer_1" xmlns="http://www.w3.org/2000/svg" xmlns:xlink="http://www.w3.org/1999/xlink" x="0px" y="0px"
	 viewBox="0 0 47.2 31.1" style="enable-background:new 0 0 47.2 31.1;" xml:space="preserve">
<style type="text/css">
	.st0{fill:#3B3B97;}
	.st1{fill:#0D90CD;}
	.st2{fill:#2A5CAA;}
	.st3{fill:#5BBA47;}
	.st4{fill:#03B2C2;}
	.st5{fill:#3EB873;}
</style>
<g>
	<g>
		<g>
			<polygon class="st0" points="38.2,5.8 32.4,9.8 32.4,16.2 38.3,12.2 			"/>
			<polygon class="st1" points="24.6,21.5 30.3,17.6 30.3,11.2 24.6,15.1 			"/>
			<polygon class="st1" points="30.3,1.1 24.6,5 24.6,11.7 24.6,12.5 30.3,8.7 			"/>
			<polygon class="st0" points="45.9,25.8 39.3,23.2 34.1,26.9 40.7,29.5 			"/>
			<polygon class="st2" points="25.2,23.4 31.6,25.9 37,22.3 30.5,19.8 			"/>
			<polygon class="st0" points="33.4,17.8 32.6,18.3 39.1,20.8 45.3,16.6 38.9,14 			"/>
			<polygon class="st3" points="8.8,5.8 14.7,9.8 14.6,16.2 8.7,12.2 			"/>
			<polygon class="st4" points="22.5,21.5 16.7,17.6 16.7,11.2 22.5,15.1 			"/>
			<polygon class="st4" points="16.7,1.1 16.7,8.7 22.4,12.5 22.5,11.7 22.5,5 			"/>
			<polygon class="st3" points="1.1,25.8 7.7,23.2 13,26.9 6.4,29.5 			"/>
			<polygon class="st5" points="21.8,23.4 15.4,25.9 10.1,22.3 16.5,19.8 			"/>
			<polygon class="st3" points="13.7,17.8 14.4,18.3 8,20.8 1.7,16.6 8.1,14 			"/>
		</g>
	</g>
</g>
</svg>
