<svg width="182" height="175" viewBox="0 0 182 175" fill="none" xmlns="http://www.w3.org/2000/svg">
<g id="Group 33790">
<path id="Vector" d="M182 10.7282V164.272C182 170.196 177.23 175 171.339 175H10.6605C4.77039 175 0 170.199 0 164.272V10.7282C0 4.80427 4.77039 0 10.6605 0H171.339C177.23 0 182 4.80427 182 10.7282Z" fill="#EFF2FA"/>
<path id="Vector_2" d="M171.34 0H145.764C151.654 0 156.424 4.80427 156.424 10.7282V164.272C156.424 170.196 151.654 175 145.764 175H171.34C177.23 175 182 170.199 182 164.272V10.7282C182 4.80427 177.23 0 171.34 0Z" fill="#D7DEED"/>
<path id="Vector_3" d="M182 10.7282V46.2827H0V10.7282C0 4.80427 4.77039 0 10.6605 0H171.339C177.23 0 182 4.80427 182 10.7282Z" fill="#5C546A"/>
<path id="Vector_4" d="M171.34 0H145.764C151.654 0 156.424 4.80427 156.424 10.7282V46.2827H182V10.7282C182 4.80427 177.23 0 171.34 0Z" fill="#4F495B"/>
<path id="Vector_5" d="M91.8495 133.074H89.7167C72.2454 133.074 58.0835 118.823 58.0835 101.24V99.0939C58.0835 81.5116 72.2454 67.2598 89.7167 67.2598H91.8495C109.321 67.2598 123.483 81.5116 123.483 99.0939V101.24C123.483 118.823 109.321 133.074 91.8495 133.074Z" fill="#5ED4CD"/>
<path id="Vector_6" d="M92.3829 113.285C90.9646 113.285 89.6067 112.72 88.6042 111.711L77.2612 100.296C75.1746 98.1924 75.1746 94.7904 77.2612 92.6906C79.3478 90.5907 82.7319 90.5871 84.8221 92.6906L92.39 100.303L124.112 68.8373C126.202 66.7339 129.583 66.7339 131.673 68.8373C133.759 70.9372 133.759 74.3428 131.673 76.4462L96.1686 111.714C95.1662 112.723 93.8083 113.288 92.3864 113.288L92.3829 113.285Z" fill="#2FA39B"/>
<path id="Vector_7" d="M122.594 149.601H58.9795C57.4581 149.601 56.2246 148.36 56.2246 146.829C56.2246 145.298 57.4581 144.057 58.9795 144.057H122.594C124.116 144.057 125.349 145.298 125.349 146.829C125.349 148.36 124.116 149.601 122.594 149.601Z" fill="#C7CFE2"/>
<path id="Vector_8" d="M106.31 162.351H75.2563C73.7349 162.351 72.5015 161.11 72.5015 159.579C72.5015 158.047 73.7349 156.806 75.2563 156.806H106.31C107.832 156.806 109.065 158.047 109.065 159.579C109.065 161.11 107.832 162.351 106.31 162.351Z" fill="#C7CFE2"/>
</g>
</svg>
