<svg width="155" height="169" viewBox="0 0 155 169" fill="none" xmlns="http://www.w3.org/2000/svg">
<g id="Layer_1" clip-path="url(#clip0_60_2581)">
<path id="Vector" d="M83.5282 78.08H1.5293C0.685549 78.08 0 77.3934 0 76.5484V60.3548C0 59.5098 0.685549 58.8232 1.5293 58.8232H83.5282C84.372 58.8232 85.0575 59.5098 85.0575 60.3548V76.5484C85.0575 77.3934 84.372 78.08 83.5282 78.08Z" fill="#EFF2FA"/>
<path id="Vector_2" d="M125.05 78.08H108.923C103.768 78.08 99.5891 73.8946 99.5891 68.7322V68.1711C99.5891 63.0086 103.768 58.8232 108.923 58.8232H125.05C130.205 58.8232 134.384 63.0086 134.384 68.1711V68.7322C134.384 73.8946 130.205 78.08 125.05 78.08Z" fill="#87DBFF"/>
<path id="Vector_3" d="M60.2624 130.787C60.2624 147.209 46.9733 160.517 30.5761 160.517C14.179 160.517 0.889893 147.205 0.889893 130.787C0.889893 114.369 14.179 101.054 30.5761 101.054C46.9733 101.054 60.2624 114.366 60.2624 130.787Z" fill="#CAFFF0"/>
<path id="Vector_4" d="M30.5762 101.054C28.0054 101.054 25.5137 101.38 23.134 101.998C35.9288 105.305 45.3814 116.94 45.3814 130.787C45.3814 144.634 35.9288 156.269 23.134 159.577C25.5104 160.191 28.0054 160.517 30.5762 160.517C46.9733 160.517 60.2624 147.209 60.2624 130.787C60.2624 114.366 46.97 101.054 30.5762 101.054Z" fill="#AAF2E4"/>
<path id="Vector_5" d="M30.5234 136.375C29.851 136.375 29.205 136.108 28.7304 135.633L18.5328 125.42C17.5441 124.43 17.5441 122.819 18.5328 121.829C19.5249 120.835 21.13 120.835 22.1221 121.829L30.5267 130.246L61.0336 99.6938C62.0257 98.7036 63.6308 98.7036 64.6228 99.6938C65.6149 100.687 65.6149 102.295 64.6228 103.288L32.3229 135.636C31.845 136.115 31.2023 136.379 30.5267 136.379L30.5234 136.375Z" fill="#5ED4CD"/>
<path id="Vector_6" d="M83.5282 48.6669H1.5293C0.685549 48.6669 0 47.9804 0 47.1354V30.9417C0 30.0967 0.685549 29.4102 1.5293 29.4102H83.5282C84.372 29.4102 85.0575 30.0967 85.0575 30.9417V47.1354C85.0575 47.9804 84.372 48.6669 83.5282 48.6669Z" fill="#EFF2FA"/>
<path id="Vector_7" d="M125.05 48.6669H108.923C103.768 48.6669 99.5891 44.4815 99.5891 39.3191V38.758C99.5891 33.5955 103.768 29.4102 108.923 29.4102H125.05C130.205 29.4102 134.384 33.5955 134.384 38.758V39.3191C134.384 44.4815 130.205 48.6669 125.05 48.6669Z" fill="#87DBFF"/>
<path id="Vector_8" d="M14.6437 70.9895H8.95826C7.5575 70.9895 6.42041 69.854 6.42041 68.4479C6.42041 67.0417 7.5575 65.9062 8.95826 65.9062H14.6437C16.0445 65.9062 17.1816 67.045 17.1816 68.4479C17.1816 69.8507 16.0445 70.9895 14.6437 70.9895Z" fill="#707487"/>
<path id="Vector_9" d="M83.5282 19.2568H1.5293C0.685549 19.2568 0 18.5702 0 17.7252V1.53156C0 0.686562 0.685549 0 1.5293 0H83.5282C84.372 0 85.0575 0.686562 85.0575 1.53156V17.7252C85.0575 18.5702 84.372 19.2568 83.5282 19.2568Z" fill="#EFF2FA"/>
<path id="Vector_10" d="M125.05 19.2568H108.923C103.768 19.2568 99.5891 15.0714 99.5891 9.90895V9.34781C99.5891 4.18539 103.768 0 108.923 0H125.05C130.205 0 134.384 4.18539 134.384 9.34781V9.90895C134.384 15.0714 130.205 19.2568 125.05 19.2568Z" fill="#87DBFF"/>
<path id="Vector_11" d="M124.77 58.8232H115.805C121.115 58.8232 125.419 63.1341 125.419 68.4516C125.419 73.7692 121.115 78.08 115.805 78.08H124.77C130.08 78.08 134.384 73.7692 134.384 68.4516C134.384 63.1341 130.08 58.8232 124.77 58.8232Z" fill="#6FC7FF"/>
<path id="Vector_12" d="M124.77 29.4102H115.805C121.115 29.4102 125.419 33.721 125.419 39.0385C125.419 44.3561 121.115 48.6669 115.805 48.6669H124.77C130.08 48.6669 134.384 44.3561 134.384 39.0385C134.384 33.721 130.08 29.4102 124.77 29.4102Z" fill="#6FC7FF"/>
<path id="Vector_13" d="M124.77 0H115.805C121.115 0 125.419 4.31082 125.419 9.62838C125.419 14.9459 121.115 19.2568 115.805 19.2568H124.77C130.08 19.2568 134.384 14.9459 134.384 9.62838C134.384 4.31082 130.08 0 124.77 0Z" fill="#6FC7FF"/>
<path id="Vector_14" d="M14.6437 41.5803H8.95826C7.5575 41.5803 6.42041 40.4415 6.42041 39.0387C6.42041 37.6358 7.5575 36.4971 8.95826 36.4971H14.6437C16.0445 36.4971 17.1816 37.6358 17.1816 39.0387C17.1816 40.4415 16.0445 41.5803 14.6437 41.5803Z" fill="#707487"/>
<path id="Vector_15" d="M14.6437 12.1697H8.95826C7.5575 12.1697 6.42041 11.031 6.42041 9.62814C6.42041 8.22531 7.5575 7.08984 8.95826 7.08984H14.6437C16.0445 7.08984 17.1816 8.22531 17.1816 9.62814C17.1816 11.031 16.0445 12.1697 14.6437 12.1697Z" fill="#707487"/>
<path id="Vector_16" d="M52.3918 70.9895H24.1558C22.755 70.9895 21.6179 69.854 21.6179 68.4479C21.6179 67.0417 22.7517 65.9062 24.1558 65.9062H52.3918C53.7926 65.9062 54.9264 67.045 54.9264 68.4479C54.9264 69.8507 53.7893 70.9895 52.3918 70.9895Z" fill="#C7CFE2"/>
<path id="Vector_17" d="M45.0946 41.5803H24.1589C22.7582 41.5803 21.6211 40.4415 21.6211 39.0387C21.6211 37.6358 22.7549 36.4971 24.1589 36.4971H45.0946C46.4953 36.4971 47.6324 37.6358 47.6324 39.0387C47.6324 40.4415 46.4953 41.5803 45.0946 41.5803Z" fill="#C7CFE2"/>
<path id="Vector_18" d="M62.8265 12.1697H24.1589C22.7582 12.1697 21.6211 11.031 21.6211 9.62814C21.6211 8.22531 22.7549 7.08984 24.1589 7.08984H62.8265C64.2273 7.08984 65.3611 8.22531 65.3611 9.62814C65.3611 11.031 64.2273 12.1697 62.8265 12.1697Z" fill="#C7CFE2"/>
<path id="Vector_19" d="M155 118.937V147.386C155 148.792 154.766 150.179 154.321 151.489C153.873 152.799 153.21 154.037 152.357 155.15C150.643 157.371 149.713 160.101 149.713 162.91V167.646C149.713 168.392 149.11 168.996 148.365 168.996H116.102C115.357 168.996 114.754 168.396 114.754 167.646V162.626C114.754 159.157 113.972 155.731 112.46 152.608L108.178 143.752L94.7837 117.399C93.6895 115.246 94.2761 112.589 96.2603 111.107C98.429 109.49 101.514 109.985 103.211 112.097L112.68 123.871V71.181C112.68 68.6526 114.602 66.4708 117.117 66.319C119.813 66.1605 122.071 68.2598 122.14 70.9235C122.433 81.8755 122.73 92.8308 123.023 103.783C123.026 103.846 123.069 103.892 123.125 103.898C123.185 103.905 123.25 103.855 123.254 103.783L123.26 101.951C123.26 99.6767 124.691 97.7358 126.701 96.9832C127.354 96.739 128.066 96.6201 128.807 96.6531C131.652 96.7885 133.844 99.2443 133.844 102.096V107.684C133.844 107.783 133.926 107.869 134.022 107.872C134.127 107.879 134.219 107.79 134.219 107.674C134.803 106.215 136.012 105.07 137.518 104.585C138.079 104.407 138.689 104.314 139.318 104.337C142.189 104.436 144.423 106.899 144.423 109.777V115.93C144.423 116.144 144.595 116.316 144.809 116.316C144.947 116.316 145.073 116.237 145.142 116.118C145.794 114.992 146.843 114.134 148.102 113.731C148.642 113.556 149.226 113.464 149.825 113.477C152.676 113.537 155.003 116.068 155.003 118.924L155 118.937Z" fill="#FDD7BD"/>
<path id="Vector_20" d="M113.643 73.6904V71.1851C113.643 69.0825 115.344 67.376 117.446 67.376C119.549 67.376 121.19 69.0198 121.246 71.0828L121.312 73.588C121.372 75.7501 119.638 77.5325 117.479 77.5325C115.36 77.5325 113.643 75.8128 113.643 73.6904Z" fill="#FFF2EA"/>
<path id="Vector_21" d="M148.098 113.742V125.767C148.098 127.8 146.454 129.451 144.42 129.451V115.941C144.42 116.155 144.592 116.327 144.806 116.327C144.944 116.327 145.069 116.247 145.139 116.129C145.791 115.003 146.839 114.145 148.098 113.742Z" fill="#FAC5AA"/>
<path id="Vector_22" d="M137.519 104.599V116.719C137.519 118.756 135.871 120.406 133.84 120.406V107.698C133.84 107.8 133.923 107.883 134.018 107.886C134.124 107.893 134.216 107.804 134.216 107.691C134.799 106.229 136.009 105.087 137.515 104.602L137.519 104.599Z" fill="#FAC5AA"/>
<path id="Vector_23" d="M126.698 96.9902V113.976C126.698 116.013 125.05 117.66 123.02 117.66V103.79C123.023 103.853 123.066 103.899 123.122 103.905C123.181 103.912 123.247 103.862 123.25 103.79L123.257 101.958C123.257 99.6837 124.688 97.7428 126.698 96.9902Z" fill="#FAC5AA"/>
</g>
<defs>
<clipPath id="clip0_60_2581">
<rect width="155" height="169" fill="white"/>
</clipPath>
</defs>
</svg>
