<svg width="333" height="218" viewBox="0 0 333 218" fill="none" xmlns="http://www.w3.org/2000/svg">
<g clip-path="url(#clip0_600_2047)">
<path d="M280.241 154.118V167.685H261.847V143.612H243.454V123.46H216.744V142.469H213.001V121.571H204.577V104.361H199.489V121.571H191.065V142.469H187.322V179.034H168.684V168.014L145.282 155.45V136.262H139.659V125.485L133.253 115.542L128.749 108.552V90.2887H124.945V108.552L120.441 115.542L114.035 125.485V136.262H108.413V142.607H98.282V122.455H71.7115V164.383L45.8718 164.453L33.9273 154.269L18.2847 154.311L18.5162 217.362C18.7576 216.943 306.952 217.446 306.952 217.286V154.118H280.241Z" fill="#EBECFF"/>
<path d="M152.199 62.7179H150.168C148.659 62.7179 147.436 61.4912 147.436 59.9779V59.5072C147.436 58.5787 148.187 57.8263 149.112 57.8263H153.255C154.181 57.8263 154.931 58.5787 154.931 59.5072V59.9779C154.931 61.4912 153.708 62.7179 152.199 62.7179ZM166.506 65.62H164.475C162.966 65.62 161.743 64.3933 161.743 62.8802V62.4095C161.743 61.4813 162.493 60.7286 163.419 60.7286H167.562C168.488 60.7286 169.238 61.4813 169.238 62.4095V62.8802C169.238 64.3933 168.015 65.62 166.506 65.62ZM182.523 63.1223L180.595 63.7646C179.163 64.2419 177.617 63.4644 177.141 62.0286L176.993 61.5819C176.701 60.7009 177.176 59.7496 178.055 59.4567L181.986 58.1466C182.865 57.8537 183.813 58.3306 184.105 59.2116L184.253 59.6583C184.729 61.0941 183.955 62.6451 182.523 63.1223Z" fill="#FFD461"/>
<path d="M185.963 3.28035C185.641 3.12302 185.252 3.24572 185.077 3.55974L178.007 16.2431L180.674 18.1638H180.804L186.298 4.13895C186.427 3.8091 186.281 3.43505 185.963 3.28035Z" fill="#8487FF"/>
<path d="M185.905 3.26451C185.595 3.14676 185.241 3.26385 185.076 3.5594L178.007 16.2431L180.673 18.1638H180.803L180.962 17.7581L178.69 16.1207L185.759 3.43736C185.798 3.36875 185.849 3.31366 185.905 3.26451Z" fill="#7A7CEB"/>
<path d="M186.646 4.92993C188.003 4.92993 189.104 3.82633 189.104 2.46497C189.104 1.1036 188.003 0 186.646 0C185.288 0 184.188 1.1036 184.188 2.46497C184.188 3.82633 185.288 4.92993 186.646 4.92993Z" fill="#FFD461"/>
<path d="M186.016 0.092041C185.303 0.523484 184.822 1.30028 184.822 2.19582C184.822 3.55711 185.923 4.66079 187.28 4.66079C187.499 4.66079 187.708 4.62286 187.91 4.56876C187.54 4.79306 187.11 4.92995 186.646 4.92995C185.289 4.92995 184.188 3.82627 184.188 2.46498C184.188 1.32337 184.966 0.372413 186.016 0.092041Z" fill="#EBC359"/>
<path d="M146.561 3.28035C146.884 3.12302 147.273 3.24572 147.448 3.55974L154.517 16.2431L151.851 18.1638H151.721L146.227 4.13895C146.098 3.8091 146.244 3.43505 146.561 3.28035Z" fill="#8487FF"/>
<path d="M146.62 3.26451C146.93 3.14676 147.283 3.26385 147.448 3.5594L154.518 16.2431L151.851 18.1638H151.721L151.562 17.7581L153.835 16.1207L146.765 3.43736C146.727 3.36875 146.675 3.31366 146.62 3.26451Z" fill="#7A7CEB"/>
<path d="M145.879 4.92993C147.236 4.92993 148.337 3.82633 148.337 2.46497C148.337 1.1036 147.236 0 145.879 0C144.521 0 143.421 1.1036 143.421 2.46497C143.421 3.82633 144.521 4.92993 145.879 4.92993Z" fill="#FFD461"/>
<path d="M146.508 0.092041C147.221 0.523484 147.702 1.30028 147.702 2.19582C147.702 3.55711 146.602 4.66079 145.244 4.66079C145.025 4.66079 144.817 4.62286 144.614 4.56876C144.985 4.79306 145.414 4.92995 145.878 4.92995C147.236 4.92995 148.336 3.82627 148.336 2.46498C148.336 1.32337 147.559 0.372413 146.508 0.092041Z" fill="#EBC359"/>
<path d="M166.024 62.7176C178.254 62.7176 188.168 58.3262 188.168 52.9092C188.168 47.4922 178.254 43.1008 166.024 43.1008C153.794 43.1008 143.88 47.4922 143.88 52.9092C143.88 58.3262 153.794 62.7176 166.024 62.7176Z" fill="#6A6CE6"/>
<path d="M185.408 48.1666C186.536 49.3432 187.16 50.6375 187.16 51.9965C187.16 57.4136 177.246 61.8049 165.016 61.8049C156.671 61.8049 149.407 59.7595 145.633 56.7394C149.001 60.2536 156.863 62.7183 166.025 62.7183C178.254 62.7183 188.168 58.327 188.168 52.9099C188.168 51.1887 187.165 49.5724 185.408 48.1666Z" fill="#5456D1"/>
<path d="M166.772 59.1378C184.784 59.1378 199.386 52.6699 199.386 44.6913C199.386 36.7128 184.784 30.2449 166.772 30.2449C148.759 30.2449 134.157 36.7128 134.157 44.6913C134.157 52.6699 148.759 59.1378 166.772 59.1378Z" fill="#8487FF"/>
<path d="M189.005 34.1263C193.815 36.643 196.72 39.8966 196.72 43.4521C196.72 51.4305 182.118 57.8985 164.105 57.8985C155.511 57.8985 147.698 56.4238 141.873 54.0172C147.855 57.1478 156.787 59.1374 166.772 59.1374C184.784 59.1374 199.386 52.6694 199.386 44.691C199.386 40.5197 195.389 36.7634 189.005 34.1263Z" fill="#7476F0"/>
<path d="M123.601 34.9248L120.622 34.1124L120.375 37.2671L122.853 38.0066C122.853 38.0066 124.349 37.1424 124.349 37.0936C124.349 37.0444 123.601 34.9248 123.601 34.9248Z" fill="#6A6CE6"/>
<path d="M211.924 34.2565L211.051 35.2306C210.166 33.6941 208.367 32.2474 205.814 30.9392C205.734 30.8973 205.65 30.8558 205.565 30.8139C205.485 30.772 205.4 30.7301 205.311 30.6899C201.406 28.7837 195.877 27.1872 189.281 26.0578C189.141 26.0317 188.997 26.0073 188.852 25.9842C188.707 25.9598 188.563 25.9351 188.418 25.912C181.937 24.8558 174.473 24.2436 166.52 24.2192C166.356 24.2176 166.186 24.2176 166.022 24.2176C165.857 24.2176 165.688 24.2176 165.523 24.2192C157.571 24.2436 150.107 24.8558 143.625 25.912C143.48 25.9351 143.336 25.9595 143.191 25.9826C143.046 26.007 142.907 26.0314 142.762 26.0575C136.166 27.1869 130.641 28.7833 126.737 30.6895C126.648 30.7298 126.563 30.7717 126.483 30.8136C126.398 30.8555 126.314 30.897 126.234 30.9389C122.579 32.8118 120.46 34.969 120.375 37.2667C120.37 37.3142 120.37 37.3634 120.37 37.4109C120.37 37.4584 120.37 37.5075 120.375 37.555C120.46 39.8531 122.574 42.01 126.234 43.8815C126.314 43.9248 126.398 43.9667 126.483 44.0085C126.568 44.0504 126.648 44.092 126.737 44.1326C130.646 46.0388 136.171 47.6352 142.762 48.7646C142.907 48.7891 143.046 48.8135 143.191 48.8382C143.336 48.8613 143.486 48.8857 143.63 48.9088C150.106 49.9663 157.57 50.5772 165.523 50.6019C165.687 50.6032 165.857 50.6032 166.021 50.6032C166.186 50.6032 166.356 50.6032 166.52 50.6019C174.473 50.5775 181.936 49.965 188.418 48.9088C188.563 48.8857 188.707 48.8613 188.852 48.8369C188.997 48.8138 189.141 48.7894 189.28 48.7633C195.877 47.6352 201.401 46.0388 205.31 44.1326C205.4 44.0923 205.48 44.0504 205.564 44.0085C205.649 43.9667 205.734 43.9248 205.814 43.8815C209.473 42.01 211.587 39.8531 211.672 37.555C211.677 37.5075 211.677 37.4584 211.677 37.4109C211.677 37.3634 211.677 37.3146 211.672 37.2667L211.924 34.2565Z" fill="#5E60E0"/>
<path d="M211.929 34.1124C211.929 34.1599 211.929 34.209 211.924 34.2565C211.839 36.5546 209.725 38.7115 206.066 40.5831C205.986 40.6263 205.901 40.6682 205.816 40.7097C205.732 40.7516 205.652 40.7932 205.562 40.8337C201.653 42.7399 196.129 44.3361 189.532 45.4645C189.393 45.4906 189.248 45.515 189.103 45.5381C188.959 45.5625 188.814 45.5869 188.67 45.61C182.188 46.6661 174.724 47.2783 166.772 47.3028C166.607 47.3041 166.437 47.3041 166.273 47.3041C166.109 47.3041 165.939 47.3041 165.774 47.3028C157.822 47.2783 150.358 46.6675 143.881 45.61C143.736 45.5869 143.587 45.5625 143.442 45.5394C143.298 45.515 143.158 45.4906 143.014 45.4658C136.422 44.3361 130.898 42.7399 126.989 40.8337C126.899 40.7935 126.819 40.7516 126.735 40.7097C126.65 40.6678 126.565 40.6263 126.485 40.5831C122.826 38.7115 120.712 36.5546 120.627 34.2565C120.622 34.209 120.622 34.1599 120.622 34.1124C120.622 34.0649 120.622 34.0158 120.627 33.9683C120.712 31.6702 122.831 29.5133 126.485 27.6404C126.565 27.5985 126.65 27.557 126.735 27.5151C126.815 27.4732 126.899 27.4316 126.989 27.3911C130.893 25.4849 136.417 23.8884 143.014 22.759C143.158 22.7329 143.298 22.7085 143.442 22.6841C143.587 22.661 143.732 22.6366 143.876 22.6135C150.358 21.5573 157.822 20.9451 165.774 20.9207C165.939 20.9194 166.109 20.9194 166.273 20.9194C166.437 20.9194 166.607 20.9194 166.772 20.9207C174.724 20.9451 182.188 21.5577 188.67 22.6135C188.814 22.6366 188.959 22.661 189.103 22.6857C189.248 22.7088 189.393 22.7332 189.532 22.7593C196.129 23.8887 201.658 25.4852 205.562 27.3914C205.652 27.4316 205.737 27.4735 205.816 27.5154C205.901 27.5573 205.986 27.5989 206.066 27.6407C209.72 29.5136 211.839 31.6705 211.924 33.9686C211.929 34.0158 211.929 34.0649 211.929 34.1124Z" fill="#8487FF"/>
<path d="M166.772 20.9207V34.1124H165.774V20.9207C165.939 20.9194 166.109 20.9194 166.273 20.9194C166.437 20.9191 166.607 20.9191 166.772 20.9207Z" fill="#7678F5"/>
<path d="M166.707 34.0405L166.278 34.1124H166.273L166.268 34.1137L165.844 34.1843L165.775 34.1497L165.7 34.1121L165.595 34.0586L165.416 33.9679H165.411L164.912 33.7186L143.014 22.759C143.159 22.7329 143.298 22.7085 143.443 22.6841C143.588 22.661 143.732 22.6366 143.877 22.6135L165.775 33.5734L166.274 33.8228L166.279 33.8241L166.458 33.9148L166.563 33.9683L166.638 34.0072L166.707 34.0405Z" fill="#7678F5"/>
<path d="M166.523 33.9871L166.273 34.1124L166.268 34.1137L166.024 34.2361L165.909 34.2173L165.78 34.1942H165.775L165.595 34.1638L165.281 34.1121H165.276L164.419 33.9679L126.486 27.6401C126.566 27.5982 126.65 27.5566 126.735 27.5147C126.815 27.4728 126.9 27.4313 126.989 27.3907L164.912 33.7186L165.775 33.861V33.8624L166.094 33.9142L166.273 33.9445L166.408 33.9676L166.523 33.9871Z" fill="#7678F5"/>
<path d="M166.273 33.9682V34.2565H120.627C120.622 34.209 120.622 34.1599 120.622 34.1124C120.622 34.0649 120.622 34.0157 120.627 33.9682H166.273Z" fill="#7678F5"/>
<path d="M166.523 34.2364L166.403 34.2565L166.273 34.278L166.094 34.3083L165.78 34.3601L165.775 34.3614L164.917 34.5039L126.989 40.8334C126.9 40.7932 126.82 40.7513 126.735 40.7094C126.65 40.6675 126.566 40.6259 126.486 40.5827L164.409 34.2562L165.271 34.1121H165.276L165.595 34.0586L165.775 34.0283L165.915 34.0052L166.024 33.9864L166.273 34.1117H166.278L166.523 34.2364Z" fill="#7678F5"/>
<path d="M166.707 34.1843L166.642 34.216L166.562 34.2562L166.458 34.308L166.278 34.4004L166.273 34.402L165.774 34.6514L143.881 45.61C143.737 45.5869 143.587 45.5625 143.443 45.5394C143.298 45.515 143.158 45.4906 143.014 45.4658L164.917 34.5043L165.41 34.2565L165.415 34.2552L165.595 34.1645L165.699 34.1127L165.774 34.0751L165.844 34.0405L166.273 34.1124H166.278L166.707 34.1843Z" fill="#7678F5"/>
<path d="M166.772 34.1124V47.3028C166.607 47.3041 166.437 47.3041 166.273 47.3041C166.109 47.3041 165.939 47.3041 165.774 47.3028V34.1124H166.772Z" fill="#7678F5"/>
<path d="M189.533 45.4642C189.393 45.4902 189.249 45.5146 189.104 45.5377C188.959 45.5621 188.815 45.5865 188.67 45.6096L166.772 34.6481L166.278 34.4004L166.273 34.399L166.094 34.3083L165.989 34.2565V34.2552L165.91 34.2179L165.845 34.1846L166.269 34.114L166.274 34.1127H166.279L166.707 34.0408L166.772 34.0738L166.852 34.1127L166.956 34.1645L167.136 34.2569H167.141L167.635 34.5062L189.533 45.4642Z" fill="#7678F5"/>
<path d="M206.066 40.583C205.986 40.6263 205.901 40.6681 205.816 40.7097C205.732 40.7516 205.652 40.7932 205.562 40.8337L167.634 34.5059L166.772 34.3618V34.3604L166.458 34.3086L166.273 34.2783L166.144 34.2569L166.024 34.2367L166.268 34.1144L166.273 34.113L166.523 33.9877L166.637 34.0078L166.772 34.0293L166.956 34.0596L167.27 34.113H167.275L168.138 34.2572L206.066 40.583Z" fill="#7678F5"/>
<path d="M211.929 34.1124C211.929 34.1599 211.929 34.209 211.924 34.2565H166.273V33.9682H211.924C211.929 34.0157 211.929 34.0649 211.929 34.1124Z" fill="#7678F5"/>
<path d="M206.066 27.6404L168.128 33.9683L167.27 34.1124H167.266L166.956 34.1642L166.772 34.1945H166.767L166.642 34.2163L166.523 34.2364L166.278 34.1124H166.273L166.024 33.9871L166.139 33.9683L166.273 33.9452L166.458 33.9148L166.772 33.863V33.8617L167.64 33.7176L205.562 27.3911C205.652 27.4313 205.736 27.4732 205.816 27.5151C205.901 27.557 205.986 27.5985 206.066 27.6404Z" fill="#7678F5"/>
<path d="M189.533 22.759L167.64 33.7176L167.141 33.9682H167.136L166.956 34.059L166.852 34.1124L166.772 34.1513L166.707 34.1843L166.279 34.1124H166.274L165.845 34.0405L165.914 34.0058L165.989 33.9699V33.9686L166.094 33.9151L166.273 33.8258L166.278 33.8244L166.772 33.5767L188.67 22.6138C188.815 22.6369 188.959 22.6613 189.104 22.6861C189.249 22.7085 189.393 22.7332 189.533 22.759Z" fill="#7678F5"/>
<path d="M166.024 38.7821C178.617 38.7821 188.825 36.3576 188.825 33.3669C188.825 30.3762 178.617 27.9518 166.024 27.9518C153.431 27.9518 143.222 30.3762 143.222 33.3669C143.222 36.3576 153.431 38.7821 166.024 38.7821Z" fill="#5E60E0"/>
<path d="M166.255 12.372C154.273 12.372 144.56 21.2117 144.56 32.1155V32.6907C151.553 39.0549 181.8 39.3613 187.951 32.6142V32.1158C187.951 21.2113 178.238 12.372 166.255 12.372Z" fill="#CBCDFF"/>
<path d="M177.926 15.4759C178.298 15.6636 178.653 15.8711 178.993 16.0957C187.077 21.4488 183.962 34.0943 174.375 35.4928C164.349 36.9554 150.949 35.9596 144.601 32.7257C151.667 39.0555 181.812 39.3488 187.951 32.6142V32.1158C187.951 25.1227 183.952 18.9835 177.926 15.4759Z" fill="#BBBBF5"/>
<path d="M163.678 28.3131C169.538 25.1673 172.824 19.8739 171.018 16.49C169.212 13.1061 162.997 12.9131 157.137 16.059C151.277 19.2048 147.991 24.4982 149.797 27.882C151.603 31.2659 157.817 31.4589 163.678 28.3131Z" fill="#D6D7FF"/>
<path d="M167.224 16.633C167.856 18.1378 166.256 20.2498 163.65 21.3505C161.045 22.4512 158.42 22.1237 157.788 20.6192C157.156 19.1145 158.756 17.0024 161.362 15.9017C163.968 14.801 166.592 15.1282 167.224 16.633ZM156.114 19.3546C156.458 19.8095 156.184 20.5971 155.504 21.1134C154.823 21.6299 153.994 21.6797 153.65 21.2248C153.307 20.77 153.58 19.9823 154.261 19.4661C154.941 18.9495 155.771 18.8997 156.114 19.3546Z" fill="#E5E6FF"/>
<path d="M135.438 26.0558C135.438 25.3856 136.522 24.842 137.859 24.842C139.196 24.842 140.279 25.3856 140.279 26.0558C140.279 26.7261 139.196 27.2697 137.859 27.2697C136.522 27.2697 135.438 26.7261 135.438 26.0558Z" fill="white"/>
<path d="M135.846 26.0558C135.846 25.498 136.747 25.0461 137.859 25.0461C138.971 25.0461 139.873 25.498 139.873 26.0558C139.873 26.6136 138.971 27.0655 137.859 27.0655C136.747 27.0655 135.846 26.6136 135.846 26.0558Z" fill="#FFD461"/>
<path d="M139.513 25.4815C139.603 25.5963 139.657 25.7207 139.657 25.8516C139.657 26.4094 138.756 26.8613 137.643 26.8613C136.957 26.8613 136.353 26.6885 135.99 26.4259C136.284 26.7999 137.008 27.0655 137.859 27.0655C138.971 27.0655 139.873 26.6136 139.873 26.0558C139.873 25.8421 139.739 25.6445 139.513 25.4815Z" fill="#EBD248"/>
<path d="M125.196 30.8139C125.196 30.0935 126.36 29.5093 127.797 29.5093C129.234 29.5093 130.398 30.0932 130.398 30.8139C130.398 31.5343 129.234 32.1184 127.797 32.1184C126.36 32.1181 125.196 31.534 125.196 30.8139Z" fill="white"/>
<path d="M127.797 31.8988C128.992 31.8988 129.961 31.4131 129.961 30.8139C129.961 30.2147 128.992 29.729 127.797 29.729C126.602 29.729 125.633 30.2147 125.633 30.8139C125.633 31.4131 126.602 31.8988 127.797 31.8988Z" fill="#FFD461"/>
<path d="M129.575 30.1967C129.672 30.3201 129.73 30.4537 129.73 30.5945C129.73 31.1939 128.761 31.6798 127.566 31.6798C126.828 31.6798 126.179 31.494 125.789 31.2117C126.105 31.6138 126.883 31.8991 127.798 31.8991C128.993 31.8991 129.961 31.4132 129.961 30.8142C129.961 30.584 129.817 30.3719 129.575 30.1967Z" fill="#EBD248"/>
<path d="M125.196 36.8785C125.196 36.0727 126.499 35.4193 128.106 35.4193C129.713 35.4193 131.016 36.0727 131.016 36.8785C131.016 37.6843 129.713 38.3378 128.106 38.3378C126.499 38.3378 125.196 37.6843 125.196 36.8785Z" fill="white"/>
<path d="M125.685 36.8785C125.685 36.2083 126.769 35.6647 128.106 35.6647C129.443 35.6647 130.527 36.2083 130.527 36.8785C130.527 37.5488 129.443 38.0924 128.106 38.0924C126.769 38.0924 125.685 37.5488 125.685 36.8785Z" fill="#FFD461"/>
<path d="M130.094 36.1878C130.203 36.326 130.267 36.4754 130.267 36.6328C130.267 37.303 129.183 37.8466 127.847 37.8466C127.022 37.8466 126.296 37.6388 125.858 37.3231C126.213 37.7731 127.083 38.092 128.106 38.092C129.443 38.092 130.527 37.5484 130.527 36.8782C130.527 36.6216 130.366 36.3841 130.094 36.1878Z" fill="#EBD248"/>
<path d="M139.271 43.6269C140.879 43.6269 142.182 42.9736 142.182 42.1677C142.182 41.3617 140.879 40.7084 139.271 40.7084C137.664 40.7084 136.361 41.3617 136.361 42.1677C136.361 42.9736 137.664 43.6269 139.271 43.6269Z" fill="white"/>
<path d="M136.85 42.1677C136.85 41.4974 137.934 40.9538 139.271 40.9538C140.608 40.9538 141.692 41.4974 141.692 42.1677C141.692 42.8379 140.608 43.3815 139.271 43.3815C137.934 43.3815 136.85 42.8379 136.85 42.1677Z" fill="#FFD461"/>
<path d="M141.259 41.4773C141.368 41.6155 141.432 41.7649 141.432 41.9222C141.432 42.5925 140.348 43.1361 139.012 43.1361C138.187 43.1361 137.461 42.9283 137.023 42.6126C137.378 43.0622 138.248 43.3815 139.271 43.3815C140.608 43.3815 141.692 42.8382 141.692 42.1677C141.692 41.9107 141.53 41.6732 141.259 41.4773Z" fill="#EBD248"/>
<path d="M153.356 44.5601C153.356 43.7542 154.659 43.1008 156.267 43.1008C157.874 43.1008 159.177 43.7542 159.177 44.5601C159.177 45.3659 157.874 46.0193 156.267 46.0193C154.659 46.0193 153.356 45.3659 153.356 44.5601Z" fill="white"/>
<path d="M153.846 44.56C153.846 43.8898 154.93 43.3462 156.267 43.3462C157.604 43.3462 158.688 43.8898 158.688 44.56C158.688 45.2303 157.604 45.7739 156.267 45.7739C154.93 45.7739 153.846 45.2306 153.846 44.56Z" fill="#FFD461"/>
<path d="M158.255 43.8697C158.364 44.0079 158.428 44.1573 158.428 44.3146C158.428 44.9849 157.344 45.5285 156.008 45.5285C155.183 45.5285 154.457 45.3207 154.02 45.005C154.374 45.4549 155.244 45.7739 156.267 45.7739C157.604 45.7739 158.688 45.2306 158.688 44.5601C158.688 44.3031 158.526 44.0659 158.255 43.8697Z" fill="#EBD248"/>
<path d="M171.525 44.3146C171.525 43.5088 172.828 42.8554 174.436 42.8554C176.043 42.8554 177.346 43.5088 177.346 44.3146C177.346 45.1205 176.043 45.7739 174.436 45.7739C172.829 45.7739 171.525 45.1205 171.525 44.3146Z" fill="white"/>
<path d="M172.015 44.3146C172.015 43.6444 173.098 43.1008 174.435 43.1008C175.772 43.1008 176.856 43.6444 176.856 44.3146C176.856 44.9849 175.772 45.5285 174.435 45.5285C173.098 45.5285 172.015 44.9849 172.015 44.3146Z" fill="#FFD461"/>
<path d="M176.424 43.6243C176.532 43.7625 176.597 43.9119 176.597 44.0692C176.597 44.7398 175.513 45.2831 174.176 45.2831C173.351 45.2831 172.625 45.0753 172.188 44.7596C172.543 45.2092 173.412 45.5285 174.436 45.5285C175.773 45.5285 176.856 44.9849 176.856 44.3146C176.856 44.0577 176.695 43.8202 176.424 43.6243Z" fill="#EBD248"/>
<path d="M192.287 43.2057C193.894 43.2057 195.197 42.5524 195.197 41.7464C195.197 40.9405 193.894 40.2872 192.287 40.2872C190.68 40.2872 189.377 40.9405 189.377 41.7464C189.377 42.5524 190.68 43.2057 192.287 43.2057Z" fill="white"/>
<path d="M189.867 41.7464C189.867 41.0762 190.95 40.5326 192.287 40.5326C193.624 40.5326 194.708 41.0762 194.708 41.7464C194.708 42.4167 193.624 42.9603 192.287 42.9603C190.95 42.9603 189.867 42.417 189.867 41.7464Z" fill="#FFD461"/>
<path d="M194.276 41.0561C194.385 41.1943 194.449 41.3437 194.449 41.501C194.449 42.1713 193.365 42.7149 192.028 42.7149C191.203 42.7149 190.477 42.5071 190.04 42.1914C190.395 42.6413 191.265 42.9603 192.288 42.9603C193.625 42.9603 194.708 42.4167 194.708 41.7464C194.708 41.4898 194.547 41.2523 194.276 41.0561Z" fill="#EBD248"/>
<path d="M205.286 38.6811C206.893 38.6811 208.196 38.0278 208.196 37.2219C208.196 36.416 206.893 35.7626 205.286 35.7626C203.678 35.7626 202.375 36.416 202.375 37.2219C202.375 38.0278 203.678 38.6811 205.286 38.6811Z" fill="white"/>
<path d="M202.865 37.2219C202.865 36.5516 203.948 36.008 205.285 36.008C206.622 36.008 207.706 36.5516 207.706 37.2219C207.706 37.8921 206.622 38.4357 205.285 38.4357C203.948 38.4357 202.865 37.8921 202.865 37.2219Z" fill="#FFD461"/>
<path d="M207.274 36.5315C207.383 36.6697 207.447 36.8191 207.447 36.9765C207.447 37.6467 206.363 38.1903 205.026 38.1903C204.201 38.1903 203.475 37.9825 203.038 37.6668C203.393 38.1168 204.263 38.4357 205.286 38.4357C206.623 38.4357 207.707 37.8921 207.707 37.2219C207.707 36.9649 207.545 36.7278 207.274 36.5315Z" fill="#EBD248"/>
<path d="M205.817 32.567C207.316 32.567 208.532 31.9574 208.532 31.2054C208.532 30.4534 207.316 29.8438 205.817 29.8438C204.317 29.8438 203.102 30.4534 203.102 31.2054C203.102 31.9574 204.317 32.567 205.817 32.567Z" fill="white"/>
<path d="M203.558 31.2054C203.558 30.58 204.569 30.0731 205.817 30.0731C207.064 30.0731 208.075 30.58 208.075 31.2054C208.075 31.8308 207.064 32.3378 205.817 32.3378C204.569 32.3378 203.558 31.8308 203.558 31.2054Z" fill="#FFD461"/>
<path d="M207.671 30.5612C207.773 30.6902 207.833 30.8294 207.833 30.9765C207.833 31.6019 206.821 32.1089 205.574 32.1089C204.805 32.1089 204.127 31.9153 203.719 31.6204C204.05 32.0399 204.862 32.3378 205.816 32.3378C207.064 32.3378 208.075 31.8308 208.075 31.2054C208.075 30.9656 207.925 30.7443 207.671 30.5612Z" fill="#EBD248"/>
<path d="M192.72 26.1845C192.72 25.5716 193.711 25.0748 194.933 25.0748C196.155 25.0748 197.145 25.5716 197.145 26.1845C197.145 26.7973 196.155 27.2941 194.933 27.2941C193.711 27.2941 192.72 26.7973 192.72 26.1845Z" fill="white"/>
<path d="M193.092 26.1845C193.092 25.6748 193.916 25.2615 194.933 25.2615C195.949 25.2615 196.773 25.6748 196.773 26.1845C196.773 26.6941 195.949 27.1074 194.933 27.1074C193.917 27.1074 193.092 26.6941 193.092 26.1845Z" fill="#FFD461"/>
<path d="M196.444 25.6597C196.527 25.7646 196.576 25.8784 196.576 25.9981C196.576 26.5077 195.752 26.921 194.735 26.921C194.108 26.921 193.556 26.763 193.224 26.5229C193.493 26.8649 194.155 27.1074 194.933 27.1074C195.949 27.1074 196.773 26.6941 196.773 26.1845C196.773 25.9892 196.651 25.8088 196.444 25.6597Z" fill="#EBD248"/>
<path d="M130.238 193.969L105.034 201.053L101.845 189.641L118.653 152.512L130.711 149.122L139.288 179.816L145.539 178.059L148.547 188.823L142.297 190.58L144.905 199.914L132.847 203.303L130.238 193.969ZM127.23 183.205L122.838 167.488L113.912 186.948L127.23 183.205ZM149.942 123.448C151.882 113.783 154.974 107.37 159.219 104.209C163.464 101.049 169.137 100.185 176.238 101.618C179.65 102.307 182.366 103.295 184.388 104.581C186.408 105.867 187.975 107.326 189.087 108.958C190.199 110.59 191.003 112.232 191.499 113.884C191.995 115.535 192.285 117.405 192.37 119.491C192.554 123.474 192.233 127.523 191.407 131.638C189.556 140.864 186.644 147.301 182.673 150.95C178.702 154.6 172.912 155.656 165.304 154.12C161.039 153.259 157.729 151.881 155.375 149.986C153.02 148.091 151.265 145.656 150.112 142.68C149.265 140.561 148.828 137.809 148.8 134.422C148.773 131.037 149.153 127.379 149.942 123.448ZM163.907 126.303C162.607 132.777 162.29 137.314 162.956 139.915C163.621 142.515 165.038 144.034 167.205 144.471C168.635 144.76 169.974 144.507 171.226 143.713C172.477 142.919 173.567 141.486 174.5 139.413C175.432 137.339 176.36 134.002 177.283 129.401C178.638 122.649 178.978 117.996 178.304 115.442C177.629 112.888 176.15 111.381 173.868 110.92C171.539 110.45 169.618 111.295 168.105 113.455C166.592 115.616 165.192 119.899 163.907 126.303ZM207.646 202.012L181.62 199.204L182.884 187.421L212.238 159.205L224.689 160.548L221.289 192.241L227.743 192.937L226.55 204.052L220.097 203.356L219.063 212.994L206.611 211.65L207.646 202.012ZM208.838 190.897L210.579 174.669L195.087 189.413L208.838 190.897Z" fill="#666AFF"/>
<path d="M255.733 99.2211L255.235 96.6697C255.227 96.6278 255.195 96.5948 255.154 96.5859L252.62 96.0341C252.507 96.0093 252.509 95.847 252.623 95.8249L255.167 95.3255C255.208 95.3173 255.241 95.285 255.25 95.2434L255.801 92.7029C255.825 92.5894 255.987 92.5911 256.009 92.7052L256.507 95.2566C256.515 95.2985 256.547 95.3315 256.589 95.3404L259.122 95.8922C259.235 95.917 259.234 96.0792 259.12 96.1013L256.576 96.6007C256.534 96.609 256.501 96.6413 256.492 96.6829L255.942 99.2234C255.918 99.3365 255.756 99.3349 255.733 99.2211ZM329.51 167.402L329.012 164.851C329.004 164.809 328.971 164.776 328.93 164.767L326.397 164.215C326.284 164.19 326.285 164.028 326.399 164.006L328.943 163.506C328.985 163.498 329.017 163.466 329.026 163.424L329.577 160.884C329.601 160.77 329.763 160.772 329.785 160.886L330.283 163.438C330.291 163.479 330.324 163.512 330.365 163.521L332.898 164.073C333.011 164.098 333.01 164.26 332.896 164.282L330.352 164.782C330.31 164.79 330.277 164.822 330.268 164.864L329.718 167.404C329.694 167.517 329.532 167.516 329.51 167.402ZM262.932 24.1773L262.434 21.6259C262.426 21.584 262.394 21.551 262.352 21.5421L259.819 20.9903C259.706 20.9656 259.708 20.8033 259.821 20.7812L262.365 20.2818C262.407 20.2735 262.44 20.2412 262.449 20.1997L262.999 17.6592C263.024 17.5457 263.186 17.5473 263.208 17.6615L263.706 20.2128C263.714 20.2547 263.746 20.2877 263.788 20.2966L266.321 20.8485C266.434 20.8732 266.432 21.0355 266.319 21.0576L263.774 21.557C263.733 21.5652 263.7 21.5976 263.691 21.6391L263.141 24.1796C263.116 24.2928 262.954 24.2911 262.932 24.1773ZM3.19704 157.083L2.69908 154.532C2.69085 154.49 2.65862 154.457 2.61718 154.448L0.0839586 153.896C-0.0291844 153.871 -0.0275386 153.709 0.0862621 153.687L2.63033 153.187C2.67211 153.179 2.70499 153.147 2.71388 153.105L3.26413 150.565C3.2888 150.451 3.45062 150.453 3.47266 150.567L3.97062 153.118C3.97884 153.16 4.01108 153.193 4.05252 153.202L6.58573 153.754C6.69888 153.779 6.69723 153.941 6.58343 153.963L4.03936 154.463C3.99759 154.471 3.9647 154.503 3.95582 154.545L3.40556 157.085C3.38123 157.198 3.2194 157.197 3.19704 157.083ZM80.4516 117.396L79.9537 114.845C79.9454 114.803 79.9132 114.77 79.8718 114.761L77.3386 114.209C77.2254 114.184 77.2271 114.022 77.3409 114L79.8849 113.501C79.9267 113.492 79.9596 113.46 79.9685 113.418L80.5187 110.878C80.5434 110.764 80.7052 110.766 80.7273 110.88L81.2252 113.432C81.2334 113.474 81.2657 113.507 81.3071 113.515L83.8403 114.067C83.9535 114.092 83.9518 114.254 83.838 114.276L81.294 114.776C81.2522 114.784 81.2193 114.816 81.2104 114.858L80.6602 117.398C80.6355 117.512 80.4737 117.51 80.4516 117.396ZM64.5353 48.796L63.9078 45.5819C63.8976 45.5291 63.8568 45.4876 63.8045 45.4764L60.6131 44.781C60.4707 44.75 60.4727 44.5455 60.6158 44.5175L63.8206 43.8881C63.8732 43.8779 63.9147 43.837 63.9259 43.7846L64.6192 40.584C64.6501 40.4412 64.854 40.4432 64.882 40.5867L65.5095 43.8007C65.5197 43.8535 65.5605 43.8951 65.6128 43.9063L68.8042 44.6016C68.9466 44.6326 68.9446 44.8371 68.8015 44.8652L65.5967 45.4942C65.5441 45.5044 65.5026 45.5453 65.4914 45.5977L64.7981 48.7983C64.7672 48.9414 64.5633 48.9395 64.5353 48.796Z" fill="#FFD461"/>
<path d="M299.194 130.963C299.194 129.683 300.228 128.645 301.505 128.645C302.782 128.645 303.817 129.683 303.817 130.963C303.817 132.243 302.782 133.281 301.505 133.281C300.228 133.281 299.194 132.243 299.194 130.963ZM318.035 75.4818C318.035 74.2017 319.069 73.1636 320.346 73.1636C321.623 73.1636 322.658 74.2013 322.658 75.4818C322.658 76.7619 321.623 77.8 320.346 77.8C319.069 77.8 318.035 76.7623 318.035 75.4818ZM240.16 57.8263C240.16 56.5461 241.195 55.5081 242.471 55.5081C243.748 55.5081 244.783 56.5461 244.783 57.8263C244.783 59.1064 243.748 60.1445 242.471 60.1445C241.194 60.1445 240.16 59.1064 240.16 57.8263ZM104.807 80.2254C104.807 78.9452 105.842 77.9072 107.119 77.9072C108.395 77.9072 109.43 78.9449 109.43 80.2254C109.43 81.5055 108.396 82.5435 107.119 82.5435C105.842 82.5435 104.807 81.5055 104.807 80.2254ZM16.4941 90.2046C16.4941 88.9245 17.5292 87.8865 18.8057 87.8865C20.0822 87.8865 21.1172 88.9242 21.1172 90.2046C21.1172 91.4848 20.0825 92.5228 18.8057 92.5228C17.5289 92.5228 16.4941 91.4848 16.4941 90.2046ZM99.5332 10.6917C99.5332 9.4116 100.568 8.37357 101.845 8.37357C103.121 8.37357 104.156 9.41127 104.156 10.6917C104.156 11.9722 103.122 13.0099 101.845 13.0099C100.568 13.0099 99.5332 11.9719 99.5332 10.6917Z" fill="#CCCFFF"/>
</g>
<defs>
<clipPath id="clip0_600_2047">
<rect width="333" height="218" fill="white"/>
</clipPath>
</defs>
</svg>
