<?xml version="1.0" encoding="UTF-8"?>
<svg id="Layer_2" data-name="Layer 2" xmlns="http://www.w3.org/2000/svg" viewBox="0 0 43.81 43.73">
  <defs>
    <style>
      .cls-1 {
        fill: #f8f9fc;
      }

      .cls-2 {
        fill: #f9fafc;
      }
    </style>
  </defs>
  <g id="Layer_1-2" data-name="Layer 1">
    <g>
      <path class="cls-2" d="M12.85,43.72c-4.89-.07-8.59-2.31-11.02-6.49-2.68-4.62-2.39-9.35,.62-13.64,2.78-3.96,6.28-7.33,10.55-9.72,4.54-2.55,10.73-1.25,14.16,2.6,1.2,1.35,.75,2.3,.03,3.5-.89,1.5-1.83,1.39-3.29,.64-7.03-3.66-16.46,.82-18.26,8.62-.7,3.04,.19,5.66,2.67,7.55,2.86,2.18,5.98,2.05,8.83,.12,1.94-1.31,3.66-2.7,5.26,.07,1.6,2.78-1.38,3.18-2.63,4.38-1.9,1.81-4.31,2.42-6.91,2.37Z"/>
      <path class="cls-1" d="M29.87,.03c6.22,0,10.13,2.71,12.45,7.25,2.25,4.4,2.07,9-1.26,13.06-2.84,3.47-5.73,6.87-9.73,9.12-4.82,2.7-11.61,1.71-15.16-2.25-1.09-1.22-1.15-2.33-.02-3.48,.96-.97,1.79-1.61,3.42-.8,7.3,3.65,15.64,.26,18.32-7.45,1.13-3.25,.39-6.28-2.44-8.49-2.99-2.34-6.18-2.44-9.13-.05-1.72,1.4-3.05,2.58-4.87,.23-1.02-1.31-1.14-2.4,.28-3.34C24.47,2.01,27.04-.29,29.87,.03Z"/>
    </g>
  </g>
</svg>