<?xml version="1.0" encoding="UTF-8"?>
<svg id="Layer_2" data-name="Layer 2" xmlns="http://www.w3.org/2000/svg" viewBox="0 0 22 22">
  <defs>
    <style>
      .cls-1 {
        fill: #4c3d8f;
      }

      .cls-1, .cls-2 {
        fill-rule: evenodd;
      }

      .cls-2 {
        fill: #c9c4dd;
      }
    </style>
  </defs>
  <g id="Layer_1-2" data-name="Layer 1">
    <g>
      <path id="Fill_5" data-name="Fill 5" class="cls-2" d="M15.77,22H6.23c-3.73,0-6.23-2.62-6.23-6.51V6.51C0,2.62,2.5,0,6.23,0H15.77c3.73,0,6.23,2.62,6.23,6.51V15.49c0,3.89-2.5,6.51-6.23,6.51Z"/>
      <path class="cls-1" d="M12.99,7.64c-.52-.21-1.09-.38-1.45-.03-.3,.3-.46,1.45-.51,2.72H5.55c-.37,0-.67,.3-.67,.67s.3,.67,.67,.67h5.48c.04,1.27,.21,2.42,.51,2.72,.16,.16,.35,.21,.57,.21,.3,0,.64-.12,.93-.24,1.05-.43,4.07-2.26,4.07-3.36s-3.16-2.96-4.12-3.36Z"/>
    </g>
  </g>
</svg>