<svg width="27" height="27" viewBox="0 0 27 27" fill="none" xmlns="http://www.w3.org/2000/svg">
<g clip-path="url(#clip0_8_1680)">
<path d="M25.875 12.3747H1.12498C0.503664 12.3747 -1.52588e-05 12.8783 -1.52588e-05 13.4997C-1.52588e-05 14.121 0.503664 14.6247 1.12498 14.6247H25.875C26.4963 14.6247 27 14.121 27 13.4997C27 12.8783 26.4963 12.3747 25.875 12.3747Z" fill="#4C3D8F"/>
<path d="M25.875 4.50034H1.12498C0.503664 4.50034 -1.52588e-05 5.00401 -1.52588e-05 5.62533C-1.52588e-05 6.24665 0.503664 6.75033 1.12498 6.75033H25.875C26.4963 6.75033 27 6.24665 27 5.62533C27 5.00401 26.4963 4.50034 25.875 4.50034Z" fill="#4C3D8F"/>
<path d="M25.875 20.25H1.12498C0.503664 20.25 -1.52588e-05 20.7537 -1.52588e-05 21.375C-1.52588e-05 21.9963 0.503664 22.5 1.12498 22.5H25.875C26.4963 22.5 27 21.9963 27 21.375C27 20.7537 26.4963 20.25 25.875 20.25Z" fill="#4C3D8F"/>
</g>
<defs>
<clipPath id="clip0_8_1680">
<rect width="27" height="27" fill="white"/>
</clipPath>
</defs>
</svg>
