<?xml version="1.0" encoding="UTF-8"?>
<svg id="Layer_2" data-name="Layer 2" xmlns="http://www.w3.org/2000/svg" viewBox="0 0 47.57 48.58">
  <defs>
    <style>
      .cls-1 {
        fill: #fafbfd;
      }
    </style>
  </defs>
  <g id="Layer_1-2" data-name="Layer 1">
    <path class="cls-1" d="M47.43,35.79c-2.82-2.81-5.65-5.62-8.44-8.46-1.94-1.96-3.73-2.27-6.04-.34-3.58,3.01-7.29,2.71-10.53-1.22-2.41-2.92-5.74-6.23-1.29-10.26,.59-.54,1.15-1.27,1.38-2.02C23.38,10.69,12.42-.63,9.54,.03,5.61,.92-.56,9.76,.04,13.98c1.67,11.7,6.32,22.15,16.82,28.03,12.96,7.26,21.71,10.33,29.46-.44,.83-1.84,1.57-3.69,1.11-5.78Zm-6.45,3.32c-1.17,2.09-2.9,4.2-4.49,4C17.61,40.91,7.12,29.19,5.45,13.01c-.31-3.01,2.01-4.77,4.09-5.74,2.37-1.1,3.49,1.82,5.07,3.08,2.23,1.77,1.26,3.42-.42,4.94-.12,.11-.23,.25-.31,.39-1.76,3.2,.61,9.74,5.12,14.17,4.31,4.23,10.83,6.56,13.75,4.5,1.94-1.36,3.55-2.78,5.45-.37,1.22,1.55,4.21,2.56,2.78,5.13Z"/>
  </g>
</svg>