<?xml version="1.0" encoding="UTF-8"?>
<svg id="Layer_2" data-name="Layer 2" xmlns="http://www.w3.org/2000/svg" viewBox="0 0 42 42">
  <defs>
    <style>
      .cls-1 {
        fill: #4c3d8f;
      }

      .cls-2 {
        fill: #c9c4dd;
        fill-rule: evenodd;
      }

      .cls-3 {
        fill: #edebf3;
      }
    </style>
  </defs>
  <g id="Layer_1-2" data-name="Layer 1">
    <g>
      <path class="cls-3" d="M0,8C0,3.58,3.58,0,8,0h26c4.42,0,8,3.58,8,8v26c0,4.42-3.58,8-8,8H8c-4.42,0-8-3.58-8-8V8Z"/>
      <g>
        <path class="cls-2" d="M25.77,32h-9.53c-3.73,0-6.23-2.62-6.23-6.51v-8.98c0-3.89,2.5-6.51,6.23-6.51h9.54c3.73,0,6.23,2.62,6.23,6.51v8.98c0,3.89-2.5,6.51-6.23,6.51Z"/>
        <path class="cls-1" d="M16.32,25.68c-.43-.43-.43-1.13,0-1.56l7.8-7.8c.43-.43,1.13-.43,1.56,0,.43,.43,.43,1.13,0,1.56l-7.8,7.8c-.43,.43-1.13,.43-1.56,0Z"/>
        <path class="cls-1" d="M16.32,16.32c-.43,.43-.43,1.13,0,1.56l7.8,7.8c.43,.43,1.13,.43,1.56,0,.43-.43,.43-1.13,0-1.56l-7.8-7.8c-.43-.43-1.13-.43-1.56,0Z"/>
      </g>
    </g>
  </g>
</svg>