<svg width="90" height="90" viewBox="0 0 90 90" fill="none" xmlns="http://www.w3.org/2000/svg">
<g id="svgexport-37 (10) 1">
<path id="Vector" d="M43.5938 11.25H29.5312C28.755 11.25 28.125 10.62 28.125 9.84375C28.125 9.0675 28.755 8.4375 29.5312 8.4375H43.5938C44.37 8.4375 45 9.0675 45 9.84375C45 10.62 44.37 11.25 43.5938 11.25ZM37.9688 81.5625H35.1562C34.38 81.5625 33.75 80.9325 33.75 80.1562C33.75 79.38 34.38 78.75 35.1562 78.75H37.9688C38.745 78.75 39.375 79.38 39.375 80.1562C39.375 80.9325 38.745 81.5625 37.9688 81.5625Z" fill="#4C3D8F"/>
<path id="Vector_2" d="M52.0312 87.1875H21.0938C17.2153 87.1875 14.0625 84.0347 14.0625 80.1562V9.84375C14.0625 5.96531 17.2153 2.8125 21.0938 2.8125H52.0312C55.9097 2.8125 59.0625 5.96531 59.0625 9.84375V23.9062C59.0625 24.6825 58.4325 25.3125 57.6562 25.3125C56.88 25.3125 56.25 24.6825 56.25 23.9062V9.84375C56.25 7.51781 54.3572 5.625 52.0312 5.625H21.0938C18.7678 5.625 16.875 7.51781 16.875 9.84375V80.1562C16.875 82.4822 18.7678 84.375 21.0938 84.375H52.0312C54.3572 84.375 56.25 82.4822 56.25 80.1562V52.0312C56.25 51.255 56.88 50.625 57.6562 50.625C58.4325 50.625 59.0625 51.255 59.0625 52.0312V80.1562C59.0625 84.0347 55.9097 87.1875 52.0312 87.1875Z" fill="#4C3D8F"/>
<path id="Vector_3" d="M80.1562 47.8125H26.7188C25.9425 47.8125 25.3125 47.1825 25.3125 46.4062V29.5312C25.3125 28.755 25.9425 28.125 26.7188 28.125H80.1562C80.9325 28.125 81.5625 28.755 81.5625 29.5312V46.4062C81.5625 47.1825 80.9325 47.8125 80.1562 47.8125ZM28.125 45H78.75V30.9375H28.125V45Z" fill="#4C3D8F"/>
<path id="Vector_4" d="M73.7072 39.9572C73.7072 40.3172 73.5694 40.6772 73.2966 40.9528C72.7481 41.5013 71.8566 41.5013 71.3081 40.9528L67.3312 36.9759C66.7828 36.4275 66.7828 35.5359 67.3312 34.9875C67.8797 34.4391 68.7712 34.4391 69.3197 34.9875L73.2966 38.9644C73.5694 39.2372 73.7072 39.5972 73.7072 39.9572Z" fill="#4C3D8F"/>
<path id="Vector_5" d="M68.3241 41.3634C67.9641 41.3634 67.6041 41.2256 67.3284 40.9528C66.78 40.4044 66.78 39.5128 67.3284 38.9644L71.3053 34.9875C71.8537 34.4391 72.7453 34.4391 73.2937 34.9875C73.8422 35.5359 73.8422 36.4275 73.2937 36.9759L69.3169 40.9528C69.0441 41.2256 68.6841 41.3634 68.3241 41.3634ZM62.4572 39.9572C62.4572 40.3172 62.3194 40.6772 62.0466 40.9528C61.4981 41.5013 60.6066 41.5013 60.0581 40.9528L56.0812 36.9759C55.5328 36.4275 55.5328 35.5359 56.0812 34.9875C56.6297 34.4391 57.5212 34.4391 58.0697 34.9875L62.0466 38.9644C62.3194 39.2372 62.4572 39.5972 62.4572 39.9572Z" fill="#4C3D8F"/>
<path id="Vector_6" d="M57.0741 41.3634C56.7141 41.3634 56.3541 41.2256 56.0784 40.9528C55.53 40.4044 55.53 39.5128 56.0784 38.9644L60.0553 34.9875C60.6038 34.4391 61.4953 34.4391 62.0437 34.9875C62.5922 35.5359 62.5922 36.4275 62.0437 36.9759L58.0669 40.9528C57.7941 41.2256 57.4341 41.3634 57.0741 41.3634ZM51.2072 39.9572C51.2072 40.3172 51.0694 40.6772 50.7966 40.9528C50.2481 41.5013 49.3566 41.5013 48.8081 40.9528L44.8312 36.9759C44.2828 36.4275 44.2828 35.5359 44.8312 34.9875C45.3797 34.4391 46.2712 34.4391 46.8197 34.9875L50.7966 38.9644C51.0694 39.2372 51.2072 39.5972 51.2072 39.9572Z" fill="#4C3D8F"/>
<path id="Vector_7" d="M45.8239 41.3634C45.4639 41.3634 45.1039 41.2256 44.8283 40.9528C44.2799 40.4044 44.2799 39.5128 44.8283 38.9644L48.8052 34.9875C49.3536 34.4391 50.2452 34.4391 50.7936 34.9875C51.3421 35.5359 51.3421 36.4275 50.7936 36.9759L46.8168 40.9528C46.5439 41.2256 46.1839 41.3634 45.8239 41.3634Z" fill="#4C3D8F"/>
<g id="Group">
<path id="Vector_8" d="M39.9572 39.9572C39.9572 40.3172 39.8194 40.6772 39.5466 40.9528C38.9981 41.5013 38.1066 41.5013 37.5581 40.9528L33.5812 36.9759C33.0328 36.4275 33.0328 35.5359 33.5812 34.9875C34.1297 34.4391 35.0213 34.4391 35.5697 34.9875L39.5466 38.9644C39.8194 39.2372 39.9572 39.5972 39.9572 39.9572Z" fill="#4C3D8F"/>
<path id="Vector_9" d="M34.5739 41.3634C34.2139 41.3634 33.8539 41.2256 33.5783 40.9528C33.0299 40.4044 33.0299 39.5128 33.5783 38.9644L37.5552 34.9875C38.1036 34.4391 38.9952 34.4391 39.5436 34.9875C40.0921 35.5359 40.0921 36.4275 39.5436 36.9759L35.5668 40.9528C35.2939 41.2256 34.9339 41.3634 34.5739 41.3634Z" fill="#4C3D8F"/>
</g>
</g>
</svg>
