<svg width="90" height="90" viewBox="0 0 90 90" fill="none" xmlns="http://www.w3.org/2000/svg">
<path d="M83.7691 79.4619V43.3944C83.7691 40.338 82.2535 37.5057 79.666 35.7858L67.9291 28.5246V6.3C67.9291 5.82261 67.7394 5.36477 67.4019 5.02721C67.0643 4.68964 66.6065 4.5 66.1291 4.5H23.8705C23.3931 4.5 22.9353 4.68964 22.5977 5.02721C22.2601 5.36477 22.0705 5.82261 22.0705 6.3V28.5255L10.2841 35.8182C9.03508 36.648 8.01114 37.7744 7.30377 39.0966C6.59641 40.4189 6.22766 41.8958 6.23048 43.3953V79.4619C6.23048 82.7919 8.93949 85.5 12.2686 85.5H77.7301C81.0601 85.5 83.7691 82.791 83.7691 79.4619ZM9.83049 79.4619V43.3944C9.83049 41.5458 10.7458 39.834 12.2281 38.8467L22.0714 32.7573V39.465H19.24C18.7626 39.465 18.3048 39.6546 17.9672 39.9922C17.6296 40.3298 17.44 40.7876 17.44 41.265C17.44 41.7424 17.6296 42.2002 17.9672 42.5378C18.3048 42.8754 18.7626 43.065 19.24 43.065H30.751C31.2284 43.065 31.6862 42.8754 32.0238 42.5378C32.3613 42.2002 32.551 41.7424 32.551 41.265C32.551 40.7876 32.3613 40.3298 32.0238 39.9922C31.6862 39.6546 31.2284 39.465 30.751 39.465H25.6714V8.1H64.33V39.4659H35.8495C35.3721 39.4659 34.9143 39.6555 34.5767 39.9931C34.2391 40.3307 34.0495 40.7885 34.0495 41.2659C34.0495 41.7433 34.2391 42.2011 34.5767 42.5387C34.9143 42.8763 35.3721 43.0659 35.8495 43.0659H70.7605C71.2379 43.0659 71.6957 42.8763 72.0333 42.5387C72.3708 42.2011 72.5605 41.7433 72.5605 41.2659C72.5605 40.7885 72.3708 40.3307 72.0333 39.9931C71.6957 39.6555 71.2379 39.4659 70.7605 39.4659H67.9291V32.7573L77.722 38.8152C78.4764 39.317 79.0947 39.9978 79.5217 40.7969C79.9487 41.596 80.1712 42.4884 80.1691 43.3944V79.461C80.1684 80.1074 79.9113 80.7271 79.4542 81.1842C78.9971 81.6413 78.3774 81.8984 77.731 81.8991H12.2686C11.6222 81.8989 11.0023 81.642 10.5452 81.1851C10.088 80.7281 9.83096 80.1083 9.83049 79.4619Z" fill="#4C3D8F"/>
<path d="M74.9492 75.0807L48.9896 61.956L61.7984 55.4805C62.0093 55.3739 62.1971 55.2267 62.3512 55.0474C62.5052 54.8682 62.6224 54.6603 62.6961 54.4358C62.7699 54.2112 62.7986 53.9743 62.7808 53.7387C62.7629 53.503 62.6989 53.2731 62.5922 53.0622C62.4855 52.8513 62.3384 52.6635 62.1591 52.5094C61.9798 52.3554 61.772 52.2382 61.5474 52.1645C61.3229 52.0908 61.086 52.062 60.8503 52.0798C60.6147 52.0977 60.3848 52.1618 60.1739 52.2684L44.9999 59.9391L16.6751 45.6192C16.2502 45.4129 15.7612 45.3819 15.3137 45.5328C14.8661 45.6838 14.4958 46.0046 14.2826 46.4261C14.0695 46.8476 14.0305 47.336 14.1742 47.7859C14.3178 48.2359 14.6326 48.6113 15.0506 48.8313L41.0111 61.956L29.7017 67.6737C29.3395 67.8558 29.0494 68.1549 28.8784 68.5225C28.7075 68.8902 28.6657 69.3047 28.7599 69.6991C28.8541 70.0934 29.0787 70.4444 29.3973 70.695C29.7159 70.9457 30.1099 71.0815 30.5153 71.0802C30.7889 71.0802 31.0661 71.0181 31.3262 70.8858L44.9999 63.9729L73.3256 78.2928C73.5364 78.3998 73.7663 78.4642 74.0021 78.4822C74.2378 78.5002 74.4748 78.4715 74.6995 78.3977C74.9241 78.324 75.132 78.2067 75.3112 78.0524C75.4904 77.8982 75.6375 77.7102 75.7439 77.499C75.9592 77.073 75.9964 76.5788 75.8474 76.1253C75.6983 75.6718 75.3753 75.296 74.9492 75.0807ZM73.3256 45.6192L64.7243 49.968C64.3621 50.1501 64.072 50.4492 63.901 50.8168C63.7301 51.1845 63.6883 51.599 63.7825 51.9934C63.8767 52.3877 64.1013 52.7387 64.4199 52.9893C64.7385 53.24 65.1325 53.3758 65.5379 53.3745C65.8115 53.3745 66.0887 53.3124 66.3488 53.1801L74.9501 48.8322C75.3622 48.6089 75.6709 48.2337 75.8108 47.7863C75.9506 47.3389 75.9106 46.8547 75.6991 46.4364C75.4876 46.0181 75.1213 45.6987 74.6782 45.5461C74.235 45.3936 73.7498 45.4198 73.3256 45.6192ZM24.5528 70.2765L15.0506 75.0807C14.6884 75.2628 14.3983 75.5619 14.2273 75.9295C14.0564 76.2972 14.0146 76.7117 14.1088 77.1061C14.203 77.5004 14.4276 77.8514 14.7462 78.1021C15.0648 78.3527 15.4588 78.4885 15.8642 78.4872C16.1378 78.4872 16.415 78.4251 16.6751 78.2928L26.1773 73.4895C26.5894 73.2662 26.8981 72.8909 27.038 72.4436C27.1778 71.9962 27.1378 71.512 26.9263 71.0937C26.7148 70.6754 26.3485 70.356 25.9054 70.2034C25.4622 70.0509 24.977 70.0771 24.5528 70.2765ZM42.2765 32.6358C42.4611 32.821 42.6839 32.9636 42.9294 33.0538C43.1748 33.144 43.437 33.1795 43.6976 33.1579C43.9582 33.1363 44.2109 33.0581 44.4382 32.9288C44.6655 32.7994 44.8617 32.622 45.0134 32.409L55.8422 17.2494C55.9796 17.0571 56.0778 16.8395 56.1311 16.6092C56.1844 16.379 56.1918 16.1404 56.153 15.9072C56.1141 15.6741 56.0297 15.4509 55.9046 15.2503C55.7794 15.0498 55.616 14.8758 55.4237 14.7384C55.2313 14.601 55.0138 14.5029 54.7835 14.4495C54.5532 14.3962 54.3147 14.3888 54.0815 14.4276C53.8483 14.4665 53.6251 14.5509 53.4246 14.676C53.224 14.8012 53.0501 14.9646 52.9127 15.1569L43.3187 28.5876L36.8936 22.1625C36.7275 21.9906 36.5289 21.8535 36.3093 21.7591C36.0897 21.6648 35.8535 21.6151 35.6145 21.6131C35.3755 21.611 35.1385 21.6565 34.9173 21.747C34.6961 21.8375 34.4951 21.9712 34.3261 22.1402C34.1571 22.3092 34.0234 22.5102 33.9329 22.7314C33.8424 22.9526 33.7969 23.1896 33.7989 23.4286C33.801 23.6676 33.8507 23.9038 33.945 24.1235C34.0393 24.3431 34.1765 24.5417 34.3484 24.7077L42.2765 32.6358Z" fill="#4C3D8F"/>
</svg>
