<?xml version="1.0" encoding="UTF-8"?>
<svg id="Layer_2" data-name="Layer 2" xmlns="http://www.w3.org/2000/svg" viewBox="0 0 51.39 41">
  <defs>
    <style>
      .cls-1 {
        fill: #fdfdfe;
      }
    </style>
  </defs>
  <g id="Layer_1-2" data-name="Layer 1">
    <path class="cls-1" d="M51.32,6.1c-.03-4-2.01-6.13-6.19-6.07-6.48,.07-12.96,.02-19.44,.02V.03C19.55,.03,13.39-.04,7.25,.05,1.18,.13,.11,1.14,.05,6.98-.01,15.96-.02,24.95,.06,33.93c.05,5.24,1.74,7.01,6.83,7.04,12.62,.08,25.25,0,37.88,.03,4.37,0,6.48-2.36,6.53-6.45,.13-9.48,.08-18.97,.02-28.45Zm-6.17-.59c.55,0,.67,0,.89,0-5.74,4.49-11.99,10.08-17.74,14.55-1.34,1.05-2.7,1.94-4.45,.56C17.76,15.84,11.63,11.12,4.38,5.51H45.15Zm-2.69,30.38c-11.28-.06-22.57-.02-33.85-.03-1.75,0-3.39-.13-3.38-2.53,0-6.41,0-12.82,0-20.32,6.21,4.75,11.67,8.68,16.84,12.97,2.73,2.27,4.73,2.11,7.35-.11,4.29-3.64,8.89-6.93,13.29-10.45,2.14-1.71,3.27-1.45,3.3,1.41,.05,5.15,0,10.3,.03,15.45,0,2.45-1,3.62-3.58,3.61Z"/>
  </g>
</svg>