<svg width="24" height="24" viewBox="0 0 24 24" fill="none" xmlns="http://www.w3.org/2000/svg">
<g id="ICON" clip-path="url(#clip0_60_4024)">
<path id="Vector" d="M15.008 24.0001C14.4538 24.001 13.9101 23.8487 13.4369 23.56C12.9638 23.2713 12.5797 22.8574 12.327 22.3641L9.2 15.6601L5.658 18.7531C5.51338 18.8795 5.33542 18.9615 5.14541 18.9895C4.95539 19.0174 4.76135 18.99 4.58649 18.9106C4.41162 18.8312 4.26332 18.7031 4.15932 18.5416C4.05531 18.3802 4 18.1922 4 18.0001V2.98012C3.99997 2.40224 4.16685 1.83664 4.48058 1.35133C4.7943 0.866015 5.24152 0.48164 5.76847 0.244413C6.29542 0.007185 6.87967 -0.0727992 7.45099 0.0140752C8.02231 0.10095 8.55638 0.350985 8.989 0.734124L19.689 10.9721C19.8278 11.1047 19.9256 11.2745 19.9705 11.4612C20.0154 11.6479 20.0057 11.8435 19.9424 12.0248C19.8792 12.2061 19.765 12.3653 19.6137 12.4835C19.4624 12.6016 19.2802 12.6737 19.089 12.6911L14.621 13.0981L17.686 19.6671C17.9125 20.1238 18.0189 20.6306 17.9952 21.1398C17.9714 21.649 17.8184 22.1437 17.5504 22.5774C17.2824 23.011 16.9083 23.3691 16.4635 23.6181C16.0187 23.867 15.5177 23.9985 15.008 24.0001ZM9.543 13.0321C9.61253 13.0322 9.68188 13.0392 9.75 13.0531C9.90181 13.0851 10.0441 13.1521 10.1656 13.2486C10.2871 13.3451 10.3845 13.4685 10.45 13.6091L14.125 21.4851C14.1867 21.6011 14.2707 21.7039 14.3721 21.7874C14.4735 21.871 14.5904 21.9338 14.7161 21.9722C14.8418 22.0106 14.9738 22.0239 15.1046 22.0112C15.2354 21.9986 15.3625 21.9603 15.4785 21.8986C15.5945 21.8369 15.6973 21.7529 15.7808 21.6515C15.8644 21.5501 15.9272 21.4332 15.9656 21.3075C16.004 21.1818 16.0172 21.0498 16.0046 20.919C15.992 20.7882 15.9537 20.6611 15.892 20.5451L12.21 12.6541C12.1421 12.5087 12.1102 12.3491 12.1169 12.1888C12.1237 12.0284 12.169 11.8721 12.2489 11.7329C12.3288 11.5938 12.4411 11.4759 12.5762 11.3892C12.7112 11.3026 12.8652 11.2497 13.025 11.2351L16.725 10.8981L7.634 2.20612C7.49154 2.08506 7.31718 2.00765 7.13183 1.98317C6.94648 1.95869 6.75801 1.98819 6.589 2.06812C6.41235 2.14582 6.26238 2.27364 6.15768 2.43576C6.05298 2.59787 5.99815 2.78715 6 2.98012V15.8001L8.885 13.2801C9.06708 13.1205 9.30088 13.0324 9.543 13.0321Z" fill="#F7B375"/>
</g>
<defs>
<clipPath id="clip0_60_4024">
<rect width="24" height="24" fill="white"/>
</clipPath>
</defs>
</svg>
