<svg width="90" height="90" viewBox="0 0 90 90" fill="none" xmlns="http://www.w3.org/2000/svg">
<g id="Frame">
<g id="Id Card">
<g id="&#38;lt;Group&#38;gt;">
<path id="&#38;lt;Rectangle&#38;gt;" d="M88.125 67.5V22.5C88.125 19.3934 85.6066 16.875 82.5 16.875L7.5 16.875C4.39339 16.875 1.875 19.3934 1.875 22.5V67.5C1.875 70.6066 4.39339 73.125 7.5 73.125H82.5C85.6066 73.125 88.125 70.6066 88.125 67.5Z" fill="white" stroke="#4C3D8F" stroke-width="3" stroke-linecap="round" stroke-linejoin="round"/>
<g id="&#38;lt;Path&#38;gt;">
<path d="M50.625 58.125H76.875H50.625ZM50.625 46.875H76.875H50.625ZM50.625 35.625H76.875H50.625Z" fill="#4C3D8F"/>
<path d="M50.625 58.125H76.875M50.625 46.875H76.875M50.625 35.625H76.875" stroke="#4C3D8F" stroke-width="3" stroke-linecap="round" stroke-linejoin="round"/>
</g>
<path id="&#38;lt;Path&#38;gt;_2" d="M26.25 43.125C29.3566 43.125 31.875 40.6066 31.875 37.5C31.875 34.3934 29.3566 31.875 26.25 31.875C23.1434 31.875 20.625 34.3934 20.625 37.5C20.625 40.6066 23.1434 43.125 26.25 43.125Z" fill="white" stroke="#4C3D8F" stroke-width="3" stroke-linecap="round" stroke-linejoin="round"/>
<path id="&#38;lt;Path&#38;gt;_3" d="M26.25 48.75C22.6397 48.8408 19.0935 49.7241 15.8625 51.3375C15.0611 51.7039 14.3792 52.2887 13.895 53.025C13.4108 53.7612 13.1439 54.619 13.125 55.5V56.25C13.1445 56.7308 13.3519 57.1847 13.7025 57.5143C14.0531 57.8438 14.5189 58.0227 15 58.0125H37.5C37.9811 58.0227 38.4469 57.8438 38.7975 57.5143C39.1481 57.1847 39.3555 56.7308 39.375 56.25V55.5C39.3631 54.6126 39.0995 53.7468 38.6149 53.0033C38.1303 52.2598 37.4446 51.6691 36.6375 51.3C33.4035 49.6996 29.8575 48.8291 26.25 48.75Z" fill="white" stroke="#4C3D8F" stroke-width="3" stroke-linecap="round" stroke-linejoin="round"/>
</g>
</g>
</g>
</svg>
