<svg width="50" height="62" viewBox="0 0 50 62" fill="none" xmlns="http://www.w3.org/2000/svg">
<g id="Frame" clip-path="url(#clip0_60_2429)">
<g id="Group 6">
<g id="Clip path group">
<mask id="mask0_60_2429" style="mask-type:luminance" maskUnits="userSpaceOnUse" x="0" y="0" width="50" height="62">
<g id="clip-path">
<path id="Rectangle 4" d="M49.7498 0H0V61.6068H49.7498V0Z" fill="white"/>
</g>
</mask>
<g mask="url(#mask0_60_2429)">
<g id="Group 5">
<path id="Path 1" d="M44.3948 13.9123L34.9784 5.01825C33.3996 3.52216 31.3066 2.68962 29.1316 2.69264H11.2007C8.94571 2.69287 6.783 3.58823 5.18771 5.18201C3.59241 6.77579 2.69501 8.93764 2.69263 11.1927V50.4112C2.69524 52.6663 3.59267 54.8282 5.18786 56.4223C6.78305 58.0163 8.94562 58.9121 11.2007 58.9131H38.5498C40.8048 58.9119 42.9671 58.0159 44.5621 56.4219C46.1571 54.828 47.0544 52.6662 47.057 50.4112V20.0921C47.0556 18.9353 46.8189 17.7909 46.3613 16.7285C45.9036 15.6661 45.2345 14.7079 44.3948 13.9123ZM32.1034 23.5962H37.856V49.7156H11.8946V11.8901H25.5484V17.0475C25.5496 18.7849 26.2403 20.4508 27.4689 21.6794C28.6974 22.9079 30.3633 23.5986 32.1007 23.5998" fill="#4CB27B"/>
<path id="Path 2" d="M44.3948 13.9123L34.9784 5.01825C33.3996 3.52216 31.3066 2.68962 29.1316 2.69264H11.2007C8.94571 2.69287 6.783 3.58823 5.18771 5.18201C3.59241 6.77579 2.69501 8.93764 2.69263 11.1927V50.4112C2.69524 52.6663 3.59267 54.8282 5.18786 56.4223C6.78305 58.0163 8.94562 58.9121 11.2007 58.9131H38.5498C40.8048 58.9119 42.9671 58.0159 44.5621 56.4219C46.1571 54.828 47.0544 52.6662 47.057 50.4112V20.0921C47.0556 18.9353 46.8189 17.7909 46.3613 16.7285C45.9036 15.6661 45.2345 14.7079 44.3948 13.9123ZM32.1034 23.5962H37.856V49.7156H11.8946V11.8901H25.5484V17.0475C25.5506 18.7848 26.2421 20.4502 27.4711 21.678C28.7001 22.9058 30.3662 23.5958 32.1034 23.5962Z" stroke="white" stroke-width="6"/>
<path id="Path 3" d="M32.1034 20.4647C31.198 20.4645 30.3297 20.1053 29.6887 19.466C29.0476 18.8267 28.6862 17.9593 28.6836 17.0539V8.75586H11.2007C10.5538 8.75586 9.93336 9.01258 9.47561 9.46966C9.01787 9.92673 8.76023 10.5468 8.75928 11.1937V50.4123C8.76023 51.0593 9.01781 51.6795 9.47551 52.1369C9.9332 52.5943 10.5536 52.8514 11.2007 52.8519H38.5497C39.1969 52.8514 39.8174 52.5943 40.2752 52.1369C40.7331 51.6796 40.9909 51.0594 40.992 50.4123V20.4647H32.1034ZM35.3266 36.0753H13.8377C13.4495 36.0753 13.0771 35.9211 12.8026 35.6465C12.528 35.372 12.3738 34.9996 12.3738 34.6114C12.3738 34.2231 12.528 33.8507 12.8026 33.5762C13.0771 33.3017 13.4495 33.1474 13.8377 33.1474H35.3266C35.7148 33.1474 36.0872 33.3017 36.3617 33.5762C36.6363 33.8507 36.7905 34.2231 36.7905 34.6114C36.7905 34.9996 36.6363 35.372 36.3617 35.6465C36.0872 35.9211 35.7148 36.0753 35.3266 36.0753ZM35.3266 28.2664H13.8377C13.4497 28.2664 13.0776 28.1123 12.8032 27.8379C12.5288 27.5635 12.3747 27.1914 12.3747 26.8034C12.3747 26.4153 12.5288 26.0432 12.8032 25.7688C13.0776 25.4945 13.4497 25.3403 13.8377 25.3403H35.3266C35.5187 25.3403 35.7089 25.3782 35.8864 25.4517C36.0639 25.5252 36.2252 25.633 36.3611 25.7688C36.4969 25.9047 36.6047 26.066 36.6782 26.2435C36.7518 26.421 36.7896 26.6112 36.7896 26.8034C36.7896 26.9955 36.7518 27.1857 36.6782 27.3633C36.6047 27.5408 36.4969 27.702 36.3611 27.8379C36.2252 27.9738 36.0639 28.0815 35.8864 28.1551C35.7089 28.2286 35.5187 28.2664 35.3266 28.2664Z" fill="white"/>
<path id="Path 4" d="M13.8378 28.7079H35.3266C35.5802 28.7134 35.8325 28.6682 36.0684 28.5749C36.3044 28.4816 36.5193 28.3422 36.7007 28.1647C36.882 27.9873 37.0261 27.7754 37.1245 27.5415C37.2228 27.3077 37.2735 27.0565 37.2735 26.8028C37.2735 26.549 37.2228 26.2979 37.1245 26.064C37.0261 25.8301 36.882 25.6182 36.7007 25.4408C36.5193 25.2633 36.3044 25.1239 36.0684 25.0306C35.8325 24.9374 35.5802 24.8922 35.3266 24.8977H13.8378C13.5841 24.8922 13.3319 24.9374 13.0959 25.0306C12.86 25.1239 12.645 25.2633 12.4637 25.4408C12.2823 25.6182 12.1383 25.8301 12.0399 26.064C11.9415 26.2979 11.8909 26.549 11.8909 26.8028C11.8909 27.0565 11.9415 27.3077 12.0399 27.5415C12.1383 27.7754 12.2823 27.9873 12.4637 28.1647C12.645 28.3422 12.86 28.4816 13.0959 28.5749C13.3319 28.6682 13.5841 28.7134 13.8378 28.7079Z" fill="#4CB27B"/>
<path id="Path 5" d="M35.3265 32.7024H13.8377C13.5839 32.6968 13.3316 32.7421 13.0955 32.8354C12.8595 32.9287 12.6444 33.0682 12.463 33.2457C12.2816 33.4233 12.1374 33.6353 12.039 33.8692C11.9406 34.1032 11.8899 34.3545 11.8899 34.6084C11.8899 34.8622 11.9406 35.1135 12.039 35.3475C12.1374 35.5814 12.2816 35.7934 12.463 35.971C12.6444 36.1485 12.8595 36.288 13.0955 36.3813C13.3316 36.4746 13.5839 36.5199 13.8377 36.5143H35.3265C35.5803 36.5199 35.8326 36.4746 36.0687 36.3813C36.3048 36.288 36.5198 36.1485 36.7012 35.971C36.8827 35.7934 37.0268 35.5814 37.1252 35.3475C37.2236 35.1135 37.2743 34.8622 37.2743 34.6084C37.2743 34.3545 37.2236 34.1032 37.1252 33.8692C37.0268 33.6353 36.8827 33.4233 36.7012 33.2457C36.5198 33.0682 36.3048 32.9287 36.0687 32.8354C35.8326 32.7421 35.5803 32.6968 35.3265 32.7024Z" fill="#4CB27B"/>
<path id="Path 6" d="M35.0403 40.5056H17.1678C16.914 40.5001 16.6617 40.5453 16.4256 40.6386C16.1895 40.7319 15.9745 40.8714 15.7931 41.049C15.6116 41.2265 15.4675 41.4385 15.3691 41.6725C15.2707 41.9065 15.22 42.1577 15.22 42.4116C15.22 42.6654 15.2707 42.9167 15.3691 43.1507C15.4675 43.3847 15.6116 43.5966 15.7931 43.7742C15.9745 43.9517 16.1895 44.0912 16.4256 44.1845C16.6617 44.2779 16.914 44.3231 17.1678 44.3176H35.0403C35.2941 44.3231 35.5464 44.2779 35.7824 44.1845C36.0185 44.0912 36.2336 43.9517 36.415 43.7742C36.5964 43.5966 36.7406 43.3847 36.839 43.1507C36.9374 42.9167 36.9881 42.6654 36.9881 42.4116C36.9881 42.1577 36.9374 41.9065 36.839 41.6725C36.7406 41.4385 36.5964 41.2265 36.415 41.049C36.2336 40.8714 36.0185 40.7319 35.7824 40.6386C35.5464 40.5453 35.2941 40.5001 35.0403 40.5056Z" fill="#4CB27B"/>
</g>
</g>
</g>
</g>
</g>
<defs>
<clipPath id="clip0_60_2429">
<rect width="49.7498" height="61.6068" fill="white"/>
</clipPath>
</defs>
</svg>
