<?xml version="1.0" encoding="UTF-8"?>
<svg id="Layer_2" data-name="Layer 2" xmlns="http://www.w3.org/2000/svg" viewBox="0 0 556.55 443.2">
  <defs>
    <style>
      .cls-1 {
        fill: none;
      }

      .cls-1, .cls-2 {
        stroke: #fff;
        stroke-miterlimit: 10;
      }

      .cls-2 {
        fill: #fff;
      }
    </style>
  </defs>
  <g id="Object">
    <g>
      <path class="cls-1" d="M341.56,341.03l35.31,35.31c6.23,6.22,13.49,10.64,21.64,13.48,8.12,2.83,17.17,4.01,26.61,3.38,18.86-1.24,39.08-9.86,55.34-26.12,12.19-12.2,20.09-26.59,23.79-41.02,3.73-14.43,3.2-28.75-1.05-40.93-2.84-8.15-7.29-15.39-13.5-21.62L353.71,127.52c-6.23-6.22-13.48-10.64-21.62-13.48-8.15-2.83-17.19-4.03-26.61-3.4-3.55,.24-7.16,.74-10.76,1.49l55.84,55.86c11.63,11.6,20.06,25.49,25.2,40.27,5.14,14.8,7.06,30.49,6.02,46.12-2.11,31.13-15.86,62.15-40.22,86.66Z"/>
      <path class="cls-1" d="M249.88,137.04c-12.07,12.13-19.89,26.44-23.55,40.75-3.71,14.45-3.2,28.75,1.07,40.93,2.84,8.15,7.27,15.4,13.48,21.62l65.8,65.82c12.06-12.15,19.88-26.44,23.56-40.75,3.71-14.45,3.18-28.75-1.07-40.93-2.85-8.15-7.27-15.4-13.49-21.62l-65.8-65.82Z"/>
      <path class="cls-1" d="M215,102.17l-35.3-35.31c-6.25-6.2-13.48-10.64-21.64-13.48-8.13-2.83-17.16-4.03-26.6-3.4-18.88,1.25-39.1,9.87-55.34,26.14-12.21,12.19-20.11,26.59-23.83,41.01-3.71,14.44-3.18,28.75,1.07,40.94,2.84,8.15,7.29,15.39,13.5,21.62l136.01,136c6.22,6.2,13.47,10.64,21.61,13.48,8.13,2.83,17.18,4.01,26.61,3.38,3.55-.24,7.15-.72,10.76-1.48l-55.85-55.85c-11.63-11.61-20.06-25.5-25.19-40.28-5.14-14.8-7.07-30.49-6.03-46.12,2.11-31.13,15.86-62.15,40.2-86.66Z"/>
      <path class="cls-2" d="M306.69,306.16l34.87,34.87c24.36-24.5,38.11-55.53,40.22-86.66,1.04-15.62-.88-31.31-6.02-46.12-5.13-14.78-13.56-28.67-25.2-40.27l-55.84-55.86-38.71-38.71-41.43-41.43c-11.63-11.63-25.51-20.06-40.28-25.19C152.08-.93,127.92-1.38,104.85,4.55c-23.06,5.92-45.22,18.3-63.62,36.68C16.72,65.78,2.89,96.91,.78,128.17c-1.06,15.61,.87,31.31,6.01,46.1,5.14,14.79,13.58,28.67,25.21,40.28l136,136c11.61,11.61,25.49,20.05,40.28,25.18,22.22,7.72,46.35,8.18,69.42,2.27,7.76-2,15.41-4.78,22.86-8.21l-38.71-38.71c-3.61,.75-7.21,1.24-10.76,1.48-9.43,.63-18.48-.55-26.61-3.38-8.13-2.85-15.39-7.29-21.61-13.48L66.87,179.68c-6.22-6.23-10.66-13.47-13.5-21.62-4.25-12.19-4.78-26.5-1.07-40.94,3.72-14.41,11.61-28.81,23.83-41.01,16.24-16.27,36.46-24.89,55.34-26.14,9.44-.63,18.47,.57,26.6,3.4,8.15,2.85,15.39,7.29,21.64,13.48l35.3,35.31,34.88,34.87,65.8,65.82c6.22,6.22,10.64,13.47,13.49,21.62,4.25,12.18,4.78,26.48,1.07,40.93-3.69,14.32-11.5,28.61-23.56,40.75Z"/>
      <path class="cls-2" d="M249.88,137.04l-34.88-34.87c-24.34,24.5-38.1,55.53-40.2,86.66-1.04,15.62,.88,31.31,6.03,46.12,5.13,14.78,13.56,28.67,25.19,40.28l55.85,55.85,38.71,38.71,41.43,41.43c11.61,11.63,25.49,20.05,40.28,25.19,22.22,7.73,46.35,8.18,69.42,2.25,23.08-5.93,45.22-18.3,63.62-36.69,24.52-24.54,38.35-55.69,40.45-86.93,1.04-15.62-.88-31.3-6.02-46.12-5.13-14.78-13.57-28.66-25.19-40.27L388.58,92.67c-11.63-11.63-25.49-20.08-40.28-25.21-22.22-7.71-46.36-8.18-69.43-2.27-7.75,2-15.42,4.8-22.86,8.23l38.71,38.71c3.6-.75,7.21-1.26,10.76-1.49,9.42-.63,18.46,.57,26.61,3.4,8.13,2.85,15.38,7.27,21.62,13.48l135.98,136c6.22,6.23,10.66,13.47,13.5,21.62,4.25,12.18,4.78,26.5,1.05,40.93-3.7,14.43-11.6,28.83-23.79,41.02-16.26,16.26-36.48,24.88-55.34,26.12-9.44,.63-18.49-.55-26.61-3.38-8.15-2.85-15.4-7.27-21.64-13.48l-35.31-35.31-34.87-34.87-65.8-65.82c-6.22-6.22-10.64-13.47-13.48-21.62-4.27-12.18-4.78-26.48-1.07-40.93,3.67-14.32,11.49-28.62,23.55-40.75Z"/>
    </g>
  </g>
</svg>