<?xml version="1.0" encoding="UTF-8"?>
<svg id="Layer_2" data-name="Layer 2" xmlns="http://www.w3.org/2000/svg" viewBox="0 0 41.07 51.07">
  <defs>
    <style>
      .cls-1 {
        fill: #6b8cc1;
      }

      .cls-2 {
        fill: #fafbfd;
      }

      .cls-3 {
        fill: #f8fafc;
      }
    </style>
  </defs>
  <g id="Layer_1-2" data-name="Layer 1">
    <g>
      <path class="cls-2" d="M20.46,10.33c-5.93,.07-9.86,4.21-9.79,10.3,.07,6.06,4.03,9.96,10.06,9.92,5.51-.03,10.12-4.71,10.05-10.19-.06-5.47-4.82-10.09-10.32-10.03Zm.11,14.93c-2.87,.06-4.61-1.71-4.75-4.61-.14-2.99,1.85-4.31,4.11-5.02,3.09,.33,5.12,1.41,5.29,4.5,.18,3.25-1.55,5.06-4.65,5.13Z"/>
      <path class="cls-2" d="M34.68,5.74C27.68-1,16.7-1.86,9.05,3.48,.7,9.3-2.28,19.72,1.82,29.62c3.38,8.16,8.95,14.67,15.85,20.11,1.58,1.24,3.16,1.99,4.93,.6,9.66-7.58,17.2-16.52,18.46-29.36,.12-6.08-2.16-11.16-6.38-15.23Zm-12.57,38.06c-1.01,.93-2.12,1-3.1,.07-6.57-6.2-12.75-12.7-13.52-22.36-.68-8.59,6.08-15.9,14.61-16.06,8.73-.17,16.01,7.02,15.74,17.19-1.16,8.04-6.91,14.93-13.73,21.16Z"/>
      <path class="cls-1" d="M20.46,10.33c-5.93,.07-9.86,4.21-9.79,10.3,.07,6.06,4.03,9.96,10.06,9.92,5.51-.03,10.12-4.71,10.05-10.19-.06-5.47-4.82-10.09-10.32-10.03Zm.11,14.93c-2.87,.06-4.61-1.71-4.75-4.61-.14-2.99,1.85-4.31,4.11-5.02,3.09,.33,5.12,1.41,5.29,4.5,.18,3.25-1.55,5.06-4.65,5.13Z"/>
      <path class="cls-3" d="M20.46,10.33c-5.93,.07-9.86,4.21-9.79,10.3,.07,6.06,4.03,9.96,10.06,9.92,5.51-.03,10.12-4.71,10.05-10.19-.06-5.47-4.82-10.09-10.32-10.03Zm.11,14.93c-2.87,.06-4.61-1.71-4.75-4.61-.14-2.99,1.85-4.31,4.11-5.02,3.09,.33,5.12,1.41,5.29,4.5,.18,3.25-1.55,5.06-4.65,5.13Z"/>
    </g>
  </g>
</svg>