<svg width="28" height="28" viewBox="0 0 28 28" fill="none" xmlns="http://www.w3.org/2000/svg">
<g id="ICON" clip-path="url(#clip0_60_2022)">
<path id="Vector" d="M23.2749 6.45918L19.2079 2.39218C18.4514 1.63161 17.5516 1.02861 16.5605 0.618084C15.5695 0.207557 14.5068 -0.00234737 13.4341 0.00051721H8.16658C6.62006 0.00236971 5.1374 0.617546 4.04384 1.71111C2.95028 2.80467 2.3351 4.28732 2.33325 5.83385V22.1672C2.3351 23.7137 2.95028 25.1964 4.04384 26.2899C5.1374 27.3835 6.62006 27.9987 8.16658 28.0005H19.8333C21.3798 27.9987 22.8624 27.3835 23.956 26.2899C25.0496 25.1964 25.6647 23.7137 25.6666 22.1672V12.233C25.6694 11.1603 25.4595 10.0976 25.049 9.10657C24.6385 8.1155 24.0355 7.21568 23.2749 6.45918ZM21.6252 8.10885C21.9811 8.47566 22.2875 8.8875 22.5364 9.33385H17.4999C17.1905 9.33385 16.8938 9.21093 16.675 8.99214C16.4562 8.77335 16.3333 8.4766 16.3333 8.16718V3.13068C16.7796 3.37963 17.1914 3.68596 17.5583 4.04185L21.6252 8.10885ZM23.3333 22.1672C23.3333 23.0954 22.9645 23.9857 22.3081 24.6421C21.6517 25.2984 20.7615 25.6672 19.8333 25.6672H8.16658C7.23833 25.6672 6.34809 25.2984 5.69171 24.6421C5.03533 23.9857 4.66659 23.0954 4.66659 22.1672V5.83385C4.66659 4.90559 5.03533 4.01535 5.69171 3.35898C6.34809 2.7026 7.23833 2.33385 8.16658 2.33385H13.4341C13.6266 2.33385 13.8109 2.37118 13.9999 2.38868V8.16718C13.9999 9.09544 14.3687 9.98568 15.025 10.6421C15.6814 11.2984 16.5717 11.6672 17.4999 11.6672H23.2784C23.2959 11.8562 23.3333 12.0405 23.3333 12.233V22.1672ZM19.5113 15.53C19.7243 15.7541 19.8396 16.0536 19.832 16.3627C19.8243 16.6718 19.6943 16.9652 19.4704 17.1785L15.2833 21.1615C14.6251 21.8093 13.7375 22.1708 12.814 22.1671C11.8905 22.1634 11.0059 21.7948 10.3529 21.1417L8.55625 19.5387C8.32512 19.3326 8.18531 19.0432 8.16759 18.734C8.15881 18.5809 8.18027 18.4276 8.23075 18.2828C8.28122 18.1381 8.35971 18.0046 8.46175 17.8902C8.56379 17.7757 8.68737 17.6825 8.82544 17.6158C8.9635 17.5491 9.11335 17.5103 9.26643 17.5015C9.57558 17.4838 9.87912 17.5896 10.1103 17.7957L11.9594 19.4454C12.0653 19.5642 12.1943 19.6602 12.3387 19.7273C12.483 19.7945 12.6395 19.8313 12.7987 19.8357C12.9578 19.8401 13.1161 19.8118 13.2639 19.7527C13.4117 19.6936 13.5459 19.6049 13.6581 19.492L17.8581 15.4892C17.9691 15.383 18.1001 15.2998 18.2434 15.2444C18.3867 15.1889 18.5395 15.1623 18.6932 15.1661C18.8468 15.1699 18.9981 15.204 19.1385 15.2665C19.2789 15.3289 19.4056 15.4185 19.5113 15.53Z" fill="#F7B375"/>
</g>
<defs>
<clipPath id="clip0_60_2022">
<rect width="28" height="28" fill="white"/>
</clipPath>
</defs>
</svg>
