<svg width="28" height="28" viewBox="0 0 28 28" fill="none" xmlns="http://www.w3.org/2000/svg">
<g clip-path="url(#clip0_60_2013)">
<path d="M19.8335 16.3333C19.8335 16.6427 19.7106 16.9395 19.4918 17.1583C19.273 17.377 18.9762 17.5 18.6668 17.5H9.3335C9.02408 17.5 8.72733 17.377 8.50854 17.1583C8.28975 16.9395 8.16683 16.6427 8.16683 16.3333C8.16683 16.0239 8.28975 15.7271 8.50854 15.5083C8.72733 15.2895 9.02408 15.1666 9.3335 15.1666H18.6668C18.9762 15.1666 19.273 15.2895 19.4918 15.5083C19.7106 15.7271 19.8335 16.0239 19.8335 16.3333ZM15.1668 19.8333H9.3335C9.02408 19.8333 8.72733 19.9562 8.50854 20.175C8.28975 20.3938 8.16683 20.6905 8.16683 21C8.16683 21.3094 8.28975 21.6061 8.50854 21.8249C8.72733 22.0437 9.02408 22.1666 9.3335 22.1666H15.1668C15.4762 22.1666 15.773 22.0437 15.9918 21.8249C16.2106 21.6061 16.3335 21.3094 16.3335 21C16.3335 20.6905 16.2106 20.3938 15.9918 20.175C15.773 19.9562 15.4762 19.8333 15.1668 19.8333ZM25.6668 12.2325V22.1666C25.665 23.7132 25.0498 25.1958 23.9562 26.2894C22.8627 27.3829 21.38 27.9981 19.8335 28H8.16683C6.6203 27.9981 5.13765 27.3829 4.04409 26.2894C2.95053 25.1958 2.33535 23.7132 2.3335 22.1666V5.8333C2.33535 4.28677 2.95053 2.80412 4.04409 1.71056C5.13765 0.616995 6.6203 0.00181836 8.16683 -3.4145e-05H13.4343C14.5072 -0.00279556 15.57 0.207152 16.5613 0.617668C17.5525 1.02818 18.4525 1.63113 19.2093 2.39163L23.274 6.45863C24.0349 7.21491 24.6383 8.11467 25.049 9.10577C25.4597 10.0969 25.6697 11.1596 25.6668 12.2325ZM17.5597 4.0413C17.1925 3.68565 16.7803 3.37971 16.3335 3.1313V8.16663C16.3335 8.47605 16.4564 8.7728 16.6752 8.99159C16.894 9.21038 17.1907 9.3333 17.5002 9.3333H22.5355C22.2869 8.88669 21.9806 8.4748 21.6243 8.1083L17.5597 4.0413ZM23.3335 12.2325C23.3335 12.04 23.2962 11.8556 23.2787 11.6666H17.5002C16.5719 11.6666 15.6817 11.2979 15.0253 10.6415C14.3689 9.98513 14.0002 9.09489 14.0002 8.16663V2.38813C13.8112 2.37063 13.6257 2.3333 13.4343 2.3333H8.16683C7.23857 2.3333 6.34833 2.70205 5.69196 3.35843C5.03558 4.0148 4.66683 4.90504 4.66683 5.8333V22.1666C4.66683 23.0949 5.03558 23.9851 5.69196 24.6415C6.34833 25.2979 7.23857 25.6666 8.16683 25.6666H19.8335C20.7618 25.6666 21.652 25.2979 22.3084 24.6415C22.9647 23.9851 23.3335 23.0949 23.3335 22.1666V12.2325Z" fill="#F7B375"/>
</g>
<defs>
<clipPath id="clip0_60_2013">
<rect width="28" height="28" fill="white"/>
</clipPath>
</defs>
</svg>
