<svg width="24" height="24" viewBox="0 0 24 24" fill="none" xmlns="http://www.w3.org/2000/svg">
<g clip-path="url(#clip0_60_1971)">
<path d="M23.2199 5.74294L20.2089 1.67494C19.8386 1.15727 19.3503 0.735308 18.7844 0.444016C18.2186 0.152723 17.5914 0.000492686 16.9549 -5.92728e-05H7.04493C6.41156 -0.00065377 5.7871 0.149164 5.22295 0.437064C4.6588 0.724964 4.17108 1.14272 3.79993 1.65594L0.734925 5.75294C0.235889 6.45663 -0.0218295 7.30301 0.000343227 8.16541C0.022516 9.0278 0.323388 9.85983 0.857925 10.5369L9.64993 22.8649C9.93011 23.2197 10.2872 23.5062 10.6943 23.7029C11.1014 23.8995 11.5478 24.0011 11.9999 23.9999C12.4598 23.999 12.9133 23.8926 13.3255 23.6889C13.7378 23.4852 14.0978 23.1896 14.3779 22.8249L23.0999 10.6339C23.6584 9.94693 23.9732 9.09403 23.9949 8.20893C24.0166 7.32382 23.744 6.45652 23.2199 5.74294ZM18.5919 2.85094L21.6099 6.92894C21.6259 6.95094 21.6299 6.97694 21.6459 6.99994H16.7539L15.3259 1.99994H16.9549C17.2759 2.00094 17.5919 2.0787 17.8767 2.22674C18.1615 2.37479 18.4067 2.58881 18.5919 2.85094ZM11.9999 19.1179L9.29993 8.99994H14.6999L11.9999 19.1179ZM9.32593 6.99994L10.7539 1.99994H13.2459L14.6739 6.99994H9.32593ZM5.41692 2.83694C5.60247 2.57833 5.84687 2.36756 6.12994 2.22202C6.41301 2.07649 6.72664 2.00037 7.04493 1.99994H8.67393L7.24592 6.99994H2.31793C2.33193 6.97794 2.33593 6.95094 2.35193 6.92994L5.41692 2.83694ZM2.44793 9.32494C2.37572 9.22295 2.31375 9.11409 2.26293 8.99994H7.23193L10.2259 20.2299L2.44793 9.32494ZM13.7709 20.2399L16.7709 8.99994H21.7569C21.6925 9.14921 21.6109 9.29049 21.5139 9.42094L13.7709 20.2399Z" fill="#F7B375"/>
</g>
<defs>
<clipPath id="clip0_60_1971">
<rect width="24" height="24" fill="white"/>
</clipPath>
</defs>
</svg>
