<svg width="28" height="28" viewBox="0 0 28 28" fill="none" xmlns="http://www.w3.org/2000/svg">
<g clip-path="url(#clip0_60_2010)">
<path d="M12.8333 14C13.1428 14 13.4395 14.1229 13.6583 14.3417C13.8771 14.5605 14 14.8572 14 15.1667C14 15.4761 13.8771 15.7728 13.6583 15.9916C13.4395 16.2104 13.1428 16.3333 12.8333 16.3333H9.33333C9.02391 16.3333 8.72717 16.2104 8.50838 15.9916C8.28958 15.7728 8.16667 15.4761 8.16667 15.1667C8.16667 14.8572 8.28958 14.5605 8.50838 14.3417C8.72717 14.1229 9.02391 14 9.33333 14H12.8333ZM19.8333 10.5C19.8333 10.1906 19.7104 9.89383 19.4916 9.67504C19.2728 9.45625 18.9761 9.33333 18.6667 9.33333H9.33333C9.02391 9.33333 8.72717 9.45625 8.50838 9.67504C8.28958 9.89383 8.16667 10.1906 8.16667 10.5C8.16667 10.8094 8.28958 11.1062 8.50838 11.325C8.72717 11.5437 9.02391 11.6667 9.33333 11.6667H18.6667C18.9761 11.6667 19.2728 11.5437 19.4916 11.325C19.7104 11.1062 19.8333 10.8094 19.8333 10.5ZM9.33333 7H18.6667C18.9761 7 19.2728 6.87708 19.4916 6.65829C19.7104 6.4395 19.8333 6.14275 19.8333 5.83333C19.8333 5.52391 19.7104 5.22717 19.4916 5.00838C19.2728 4.78958 18.9761 4.66667 18.6667 4.66667H9.33333C9.02391 4.66667 8.72717 4.78958 8.50838 5.00838C8.28958 5.22717 8.16667 5.52391 8.16667 5.83333C8.16667 6.14275 8.28958 6.4395 8.50838 6.65829C8.72717 6.87708 9.02391 7 9.33333 7ZM23.3333 22.6847V27.1565C23.3334 27.3229 23.2841 27.4856 23.1917 27.624C23.0993 27.7624 22.9679 27.8703 22.8141 27.934C22.6604 27.9977 22.4912 28.0144 22.328 27.9819C22.1647 27.9494 22.0148 27.8692 21.8972 27.7515L21 26.8555L20.1028 27.7515C19.9852 27.8692 19.8353 27.9494 19.6721 27.9819C19.5088 28.0144 19.3396 27.9977 19.1859 27.934C19.0321 27.8703 18.9007 27.7624 18.8083 27.624C18.7159 27.4856 18.6666 27.3229 18.6667 27.1565V22.6847C17.7769 22.1735 17.0812 21.3824 16.6878 20.4346C16.2944 19.4868 16.2255 18.4356 16.4918 17.4445C16.758 16.4535 17.3445 15.5784 18.1599 14.9554C18.9753 14.3323 19.9738 13.9965 21 14C21.3944 14.0049 21.7865 14.0606 22.1667 14.1657V5.83333C22.1667 4.90508 21.7979 4.01484 21.1415 3.35846C20.4852 2.70208 19.5949 2.33333 18.6667 2.33333H9.33333C8.40508 2.33333 7.51484 2.70208 6.85846 3.35846C6.20208 4.01484 5.83333 4.90508 5.83333 5.83333V19.8333C5.83333 20.7616 6.20208 21.6518 6.85846 22.3082C7.51484 22.9646 8.40508 23.3333 9.33333 23.3333H15.1667C15.4761 23.3333 15.7728 23.4562 15.9916 23.675C16.2104 23.8938 16.3333 24.1906 16.3333 24.5C16.3333 24.8094 16.2104 25.1062 15.9916 25.325C15.7728 25.5438 15.4761 25.6667 15.1667 25.6667H9.33333C7.78681 25.6648 6.30415 25.0496 5.21059 23.9561C4.11703 22.8625 3.50185 21.3799 3.5 19.8333V5.83333C3.50185 4.28681 4.11703 2.80415 5.21059 1.71059C6.30415 0.617029 7.78681 0.0018525 9.33333 0L18.6667 0C20.2132 0.0018525 21.6959 0.617029 22.7894 1.71059C23.883 2.80415 24.4981 4.28681 24.5 5.83333V15.6123C24.957 16.1255 25.2934 16.7345 25.4847 17.3945C25.6759 18.0546 25.7171 18.749 25.6053 19.4271C25.4934 20.1051 25.2314 20.7495 24.8383 21.3132C24.4452 21.8768 23.931 22.3454 23.3333 22.6847ZM23.3333 18.6667C23.3333 18.2052 23.1965 17.7541 22.9401 17.3703C22.6837 16.9866 22.3193 16.6876 21.8929 16.5109C21.4666 16.3343 20.9974 16.2881 20.5448 16.3782C20.0922 16.4682 19.6764 16.6904 19.3501 17.0168C19.0238 17.3431 18.8015 17.7588 18.7115 18.2115C18.6215 18.6641 18.6677 19.1332 18.8443 19.5596C19.0209 19.986 19.32 20.3504 19.7037 20.6068C20.0874 20.8632 20.5385 21 21 21C21.6188 21 22.2123 20.7542 22.6499 20.3166C23.0875 19.879 23.3333 19.2855 23.3333 18.6667Z" fill="#F7B375"/>
</g>
<defs>
<clipPath id="clip0_60_2010">
<rect width="28" height="28" fill="white"/>
</clipPath>
</defs>
</svg>
