<svg width="28" height="28" viewBox="0 0 28 28" fill="none" xmlns="http://www.w3.org/2000/svg">
<g id="ICON" clip-path="url(#clip0_60_2025)">
<path id="Vector" d="M22.1667 3.50033H14.5507C14.3702 3.50152 14.1919 3.46162 14.0292 3.38366L10.3472 1.53566C9.86112 1.29363 9.32563 1.16744 8.78267 1.16699H5.83333C4.28681 1.16884 2.80415 1.78402 1.71059 2.87758C0.617029 3.97114 0.0018525 5.4538 0 7.00033L0 21.0003C0.0018525 22.5469 0.617029 24.0295 1.71059 25.1231C2.80415 26.2166 4.28681 26.8318 5.83333 26.8337H22.1667C23.7132 26.8318 25.1959 26.2166 26.2894 25.1231C27.383 24.0295 27.9981 22.5469 28 21.0003V9.33366C27.9981 7.78713 27.383 6.30448 26.2894 5.21092C25.1959 4.11735 23.7132 3.50218 22.1667 3.50033ZM5.83333 3.50033H8.78267C8.9631 3.49913 9.14144 3.53903 9.30417 3.61699L12.9862 5.45916C13.4717 5.70321 14.0072 5.8314 14.5507 5.83366H22.1667C22.8644 5.8348 23.5458 6.04444 24.1235 6.43567C24.7012 6.82691 25.1488 7.38187 25.4088 8.02933L2.33333 8.15999V7.00033C2.33333 6.07207 2.70208 5.18183 3.35846 4.52545C4.01484 3.86907 4.90508 3.50033 5.83333 3.50033ZM22.1667 24.5003H5.83333C4.90508 24.5003 4.01484 24.1316 3.35846 23.4752C2.70208 22.8188 2.33333 21.9286 2.33333 21.0003V10.4933L25.6667 10.3615V21.0003C25.6667 21.9286 25.2979 22.8188 24.6415 23.4752C23.9852 24.1316 23.0949 24.5003 22.1667 24.5003Z" fill="#F7B375"/>
</g>
<defs>
<clipPath id="clip0_60_2025">
<rect width="28" height="28" fill="white"/>
</clipPath>
</defs>
</svg>
