<svg width="28" height="28" viewBox="0 0 28 28" fill="none" xmlns="http://www.w3.org/2000/svg">
<g id="ICON" clip-path="url(#clip0_60_2016)">
<path id="Vector" d="M18.6668 7C18.9762 7 19.273 7.12292 19.4918 7.34171C19.7106 7.5605 19.8335 7.85725 19.8335 8.16667C19.8335 8.47609 19.7106 8.77283 19.4918 8.99162C19.273 9.21042 18.9762 9.33333 18.6668 9.33333H9.3335C9.02408 9.33333 8.72733 9.21042 8.50854 8.99162C8.28975 8.77283 8.16683 8.47609 8.16683 8.16667C8.16683 7.85725 8.28975 7.5605 8.50854 7.34171C8.72733 7.12292 9.02408 7 9.3335 7H18.6668ZM27.6583 27.6582C27.4395 27.8769 27.1429 27.9998 26.8335 27.9998C26.5241 27.9998 26.2274 27.8769 26.0087 27.6582L23.2005 24.85C22.3689 25.3808 21.4034 25.664 20.4168 25.6667C19.3785 25.6667 18.3634 25.3588 17.5001 24.7819C16.6367 24.205 15.9638 23.3851 15.5665 22.4258C15.1691 21.4664 15.0651 20.4108 15.2677 19.3924C15.4703 18.374 15.9703 17.4386 16.7045 16.7044C17.4387 15.9701 18.3742 15.4701 19.3926 15.2675C20.411 15.065 21.4666 15.1689 22.4259 15.5663C23.3852 15.9637 24.2052 16.6366 24.782 17.4999C25.3589 18.3633 25.6668 19.3783 25.6668 20.4167C25.6642 21.4032 25.3809 22.3687 24.8502 23.2003L27.6583 26.0085C27.877 26.2273 27.9999 26.524 27.9999 26.8333C27.9999 27.1427 27.877 27.4394 27.6583 27.6582ZM20.4168 23.3333C20.9937 23.3333 21.5576 23.1623 22.0372 22.8418C22.5169 22.5213 22.8907 22.0658 23.1115 21.5328C23.3322 20.9999 23.39 20.4134 23.2775 19.8477C23.1649 19.2819 22.8871 18.7622 22.4792 18.3543C22.0713 17.9464 21.5516 17.6686 20.9858 17.556C20.4201 17.4435 19.8336 17.5013 19.3007 17.722C18.7677 17.9428 18.3122 18.3166 17.9917 18.7963C17.6712 19.2759 17.5002 19.8398 17.5002 20.4167C17.5002 21.1902 17.8075 21.9321 18.3544 22.4791C18.9014 23.026 19.6433 23.3333 20.4168 23.3333ZM15.1668 25.6667H8.16683C7.23857 25.6667 6.34833 25.2979 5.69196 24.6415C5.03558 23.9852 4.66683 23.0949 4.66683 22.1667V5.83333C4.66683 4.90508 5.03558 4.01484 5.69196 3.35846C6.34833 2.70208 7.23857 2.33333 8.16683 2.33333H22.1668C22.4762 2.33333 22.773 2.45625 22.9918 2.67504C23.2106 2.89383 23.3335 3.19058 23.3335 3.5V12.8333C23.3335 13.1428 23.4564 13.4395 23.6752 13.6583C23.894 13.8771 24.1907 14 24.5002 14C24.8096 14 25.1063 13.8771 25.3251 13.6583C25.5439 13.4395 25.6668 13.1428 25.6668 12.8333V3.5C25.6668 2.57174 25.2981 1.6815 24.6417 1.02513C23.9853 0.368749 23.0951 0 22.1668 0L8.16683 0C6.6203 0.0018525 5.13765 0.617029 4.04409 1.71059C2.95053 2.80415 2.33535 4.28681 2.3335 5.83333V22.1667C2.33535 23.7132 2.95053 25.1959 4.04409 26.2894C5.13765 27.383 6.6203 27.9981 8.16683 28H15.1668C15.4762 28 15.773 27.8771 15.9918 27.6583C16.2106 27.4395 16.3335 27.1428 16.3335 26.8333C16.3335 26.5239 16.2106 26.2272 15.9918 26.0084C15.773 25.7896 15.4762 25.6667 15.1668 25.6667Z" fill="#F7B375"/>
</g>
<defs>
<clipPath id="clip0_60_2016">
<rect width="28" height="28" fill="white"/>
</clipPath>
</defs>
</svg>
