<svg width="28" height="28" viewBox="0 0 28 28" fill="none" xmlns="http://www.w3.org/2000/svg">
<g id="ICON" clip-path="url(#clip0_60_2019)">
<path id="Vector" d="M1.16667 5.54197H4.35867C4.60908 6.46332 5.1557 7.27668 5.91421 7.85656C6.67273 8.43643 7.60097 8.7506 8.55575 8.7506C9.51053 8.7506 10.4388 8.43643 11.1973 7.85656C11.9558 7.27668 12.5024 6.46332 12.7528 5.54197H26.8333C27.1428 5.54197 27.4395 5.41905 27.6583 5.20026C27.8771 4.98147 28 4.68472 28 4.3753C28 4.06588 27.8771 3.76914 27.6583 3.55034C27.4395 3.33155 27.1428 3.20864 26.8333 3.20864H12.7528C12.5024 2.28728 11.9558 1.47393 11.1973 0.894049C10.4388 0.314173 9.51053 0 8.55575 0C7.60097 0 6.67273 0.314173 5.91421 0.894049C5.1557 1.47393 4.60908 2.28728 4.35867 3.20864H1.16667C0.857247 3.20864 0.560501 3.33155 0.341709 3.55034C0.122916 3.76914 0 4.06588 0 4.3753C0 4.68472 0.122916 4.98147 0.341709 5.20026C0.560501 5.41905 0.857247 5.54197 1.16667 5.54197ZM8.55517 2.33364C8.95897 2.33364 9.35371 2.45338 9.68946 2.67772C10.0252 2.90206 10.2869 3.22092 10.4414 3.59399C10.5959 3.96706 10.6364 4.37757 10.5576 4.77361C10.4788 5.16966 10.2844 5.53345 9.99884 5.81898C9.71331 6.10451 9.34952 6.29896 8.95348 6.37774C8.55743 6.45652 8.14692 6.41609 7.77385 6.26156C7.40079 6.10703 7.08192 5.84534 6.85758 5.50959C6.63324 5.17384 6.5135 4.77911 6.5135 4.3753C6.51412 3.83401 6.72942 3.31506 7.11217 2.93231C7.49493 2.54956 8.01387 2.33425 8.55517 2.33364Z" fill="#F7B375"/>
<path id="Vector_2" d="M26.8333 12.8323H23.6413C23.3913 11.9108 22.8449 11.0971 22.0865 10.517C21.328 9.93688 20.3997 9.62256 19.4448 9.62256C18.49 9.62256 17.5616 9.93688 16.8032 10.517C16.0447 11.0971 15.4983 11.9108 15.2483 12.8323H1.16667C0.857247 12.8323 0.560501 12.9552 0.341709 13.174C0.122916 13.3928 0 13.6896 0 13.999C0 14.3084 0.122916 14.6052 0.341709 14.8239C0.560501 15.0427 0.857247 15.1657 1.16667 15.1657H15.2483C15.4983 16.0872 16.0447 16.9009 16.8032 17.481C17.5616 18.0611 18.49 18.3754 19.4448 18.3754C20.3997 18.3754 21.328 18.0611 22.0865 17.481C22.8449 16.9009 23.3913 16.0872 23.6413 15.1657H26.8333C27.1428 15.1657 27.4395 15.0427 27.6583 14.8239C27.8771 14.6052 28 14.3084 28 13.999C28 13.6896 27.8771 13.3928 27.6583 13.174C27.4395 12.9552 27.1428 12.8323 26.8333 12.8323ZM19.4448 16.0407C19.041 16.0407 18.6463 15.9209 18.3105 15.6966C17.9748 15.4722 17.7131 15.1534 17.5586 14.7803C17.4041 14.4072 17.3636 13.9967 17.4424 13.6007C17.5212 13.2046 17.7156 12.8408 18.0012 12.5553C18.2867 12.2698 18.6505 12.0753 19.0465 11.9966C19.4426 11.9178 19.8531 11.9582 20.2261 12.1127C20.5992 12.2673 20.9181 12.529 21.1424 12.8647C21.3668 13.2005 21.4865 13.5952 21.4865 13.999C21.4859 14.5403 21.2706 15.0592 20.8878 15.442C20.5051 15.8247 19.9861 16.04 19.4448 16.0407Z" fill="#F7B375"/>
<path id="Vector_3" d="M26.8333 22.4587H12.7528C12.5024 21.5374 11.9558 20.724 11.1973 20.1442C10.4388 19.5643 9.51053 19.2501 8.55575 19.2501C7.60097 19.2501 6.67273 19.5643 5.91421 20.1442C5.1557 20.724 4.60908 21.5374 4.35867 22.4587H1.16667C0.857247 22.4587 0.560501 22.5817 0.341709 22.8005C0.122916 23.0192 0 23.316 0 23.6254C0 23.9348 0.122916 24.2316 0.341709 24.4504C0.560501 24.6692 0.857247 24.7921 1.16667 24.7921H4.35867C4.60908 25.7134 5.1557 26.5268 5.91421 27.1066C6.67273 27.6865 7.60097 28.0007 8.55575 28.0007C9.51053 28.0007 10.4388 27.6865 11.1973 27.1066C11.9558 26.5268 12.5024 25.7134 12.7528 24.7921H26.8333C27.1428 24.7921 27.4395 24.6692 27.6583 24.4504C27.8771 24.2316 28 23.9348 28 23.6254C28 23.316 27.8771 23.0192 27.6583 22.8005C27.4395 22.5817 27.1428 22.4587 26.8333 22.4587ZM8.55517 25.6671C8.15136 25.6671 7.75663 25.5473 7.42088 25.323C7.08513 25.0986 6.82344 24.7798 6.66891 24.4067C6.51438 24.0337 6.47395 23.6231 6.55273 23.2271C6.63151 22.8311 6.82596 22.4673 7.11149 22.1817C7.39702 21.8962 7.76081 21.7018 8.15686 21.623C8.5529 21.5442 8.96341 21.5846 9.33648 21.7392C9.70954 21.8937 10.0284 22.1554 10.2527 22.4911C10.4771 22.8269 10.5968 23.2216 10.5968 23.6254C10.5959 24.1666 10.3805 24.6854 9.99782 25.0681C9.61513 25.4507 9.09637 25.6661 8.55517 25.6671Z" fill="#F7B375"/>
</g>
<defs>
<clipPath id="clip0_60_2019">
<rect width="28" height="28" fill="white"/>
</clipPath>
</defs>
</svg>
