<svg width="24" height="24" viewBox="0 0 24 24" fill="none" xmlns="http://www.w3.org/2000/svg">
<g id="ICON" clip-path="url(#clip0_60_3957)">
<path id="Vector" d="M22.4997 3.97607H19.4137C19.216 3.97612 19.0227 4.03479 18.8583 4.14467C18.6939 4.25456 18.5657 4.41072 18.49 4.59342C18.4144 4.77612 18.3946 4.97715 18.4331 5.17111C18.4717 5.36506 18.5669 5.54322 18.7067 5.68307L19.7927 6.76907L16.2067 10.3541C16.0162 10.5362 15.7628 10.6378 15.4992 10.6378C15.2357 10.6378 14.9823 10.5362 14.7917 10.3541L14.6217 10.1831C14.0503 9.63715 13.2905 9.3325 12.5002 9.3325C11.71 9.3325 10.9501 9.63715 10.3787 10.1831L5.27873 15.2831C5.09082 15.4715 4.98547 15.7269 4.98584 15.993C4.98622 16.2591 5.09229 16.5142 5.28073 16.7021C5.46916 16.89 5.72453 16.9953 5.99064 16.995C6.25675 16.9946 6.51182 16.8885 6.69973 16.7001L11.7997 11.6001C11.9901 11.4178 12.2436 11.316 12.5072 11.316C12.7709 11.316 13.0243 11.4178 13.2147 11.6001L13.3847 11.7711C13.9563 12.3165 14.7161 12.6209 15.5062 12.6209C16.2963 12.6209 17.0561 12.3165 17.6277 11.7711L21.2137 8.18508L22.2997 9.27107C22.44 9.40862 22.6178 9.50178 22.8107 9.53892C23.0037 9.57606 23.2033 9.55553 23.3847 9.47989C23.566 9.40426 23.7211 9.27687 23.8305 9.11364C23.9398 8.95041 23.9987 8.75857 23.9997 8.56208V5.47607C23.9997 5.07825 23.8417 4.69672 23.5604 4.41541C23.2791 4.13411 22.8976 3.97607 22.4997 3.97607Z" fill="#F7B375"/>
<path id="Vector_2" d="M23 21.976H5C4.20435 21.976 3.44129 21.6599 2.87868 21.0973C2.31607 20.5347 2 19.7716 2 18.976V1C2 0.734784 1.89464 0.48043 1.70711 0.292893C1.51957 0.105357 1.26522 0 1 0C0.734784 0 0.48043 0.105357 0.292893 0.292893C0.105357 0.48043 0 0.734784 0 1L0 18.976C0.00158786 20.3016 0.528882 21.5724 1.46622 22.5098C2.40356 23.4471 3.67441 23.9744 5 23.976H23C23.2652 23.976 23.5196 23.8706 23.7071 23.6831C23.8946 23.4956 24 23.2412 24 22.976C24 22.7108 23.8946 22.4564 23.7071 22.2689C23.5196 22.0814 23.2652 21.976 23 21.976Z" fill="#F7B375"/>
</g>
<defs>
<clipPath id="clip0_60_3957">
<rect width="24" height="24" fill="white"/>
</clipPath>
</defs>
</svg>
