<svg width="28" height="28" viewBox="0 0 28 28" fill="none" xmlns="http://www.w3.org/2000/svg">
<g id="ICON" clip-path="url(#clip0_60_2496)">
<path id="Vector" d="M23.274 6.45918L19.2093 2.39218C18.4525 1.63168 17.5525 1.02873 16.5613 0.618218C15.57 0.207701 14.5072 -0.00224624 13.4343 0.000515171H8.16683C6.6203 0.00236767 5.13765 0.617544 4.04409 1.7111C2.95053 2.80467 2.33535 4.28732 2.3335 5.83385V22.1672C2.33535 23.7137 2.95053 25.1964 4.04409 26.2899C5.13765 27.3835 6.6203 27.9987 8.16683 28.0005H19.8335C21.38 27.9987 22.8627 27.3835 23.9562 26.2899C25.0498 25.1964 25.665 23.7137 25.6668 22.1672V12.233C25.6697 11.1602 25.4597 10.0974 25.049 9.10632C24.6383 8.11522 24.0349 7.21546 23.274 6.45918ZM21.6243 8.10885C21.9806 8.47535 22.2869 8.88724 22.5355 9.33385H17.5002C17.1907 9.33385 16.894 9.21093 16.6752 8.99214C16.4564 8.77335 16.3335 8.4766 16.3335 8.16718V3.13185C16.7803 3.38026 17.1925 3.6862 17.5597 4.04185L21.6243 8.10885ZM23.3335 22.1672C23.3335 23.0954 22.9647 23.9857 22.3084 24.6421C21.652 25.2984 20.7618 25.6672 19.8335 25.6672H8.16683C7.23857 25.6672 6.34833 25.2984 5.69196 24.6421C5.03558 23.9857 4.66683 23.0954 4.66683 22.1672V5.83385C4.66683 4.90559 5.03558 4.01535 5.69196 3.35897C6.34833 2.7026 7.23857 2.33385 8.16683 2.33385H13.4343C13.6257 2.33385 13.8112 2.37118 14.0002 2.38868V8.16718C14.0002 9.09544 14.3689 9.98568 15.0253 10.6421C15.6817 11.2984 16.5719 11.6672 17.5002 11.6672H23.2787C23.2962 11.8562 23.3335 12.0405 23.3335 12.233V22.1672Z" fill="#F7B375"/>
</g>
<defs>
<clipPath id="clip0_60_2496">
<rect width="28" height="28" fill="white"/>
</clipPath>
</defs>
</svg>
