<svg width="28" height="28" viewBox="0 0 28 28" fill="none" xmlns="http://www.w3.org/2000/svg">
<g id="ICON" clip-path="url(#clip0_60_2502)">
<path id="Vector" d="M22.1667 28H5.83333C4.28681 27.9981 2.80415 27.383 1.71059 26.2894C0.617029 25.1959 0.0018525 23.7132 0 22.1667L0 5.83333C0.0018525 4.28681 0.617029 2.80415 1.71059 1.71059C2.80415 0.617029 4.28681 0.0018525 5.83333 0L22.1667 0C23.7132 0.0018525 25.1959 0.617029 26.2894 1.71059C27.383 2.80415 27.9981 4.28681 28 5.83333V22.1667C27.9981 23.7132 27.383 25.1959 26.2894 26.2894C25.1959 27.383 23.7132 27.9981 22.1667 28ZM5.83333 2.33333C4.90508 2.33333 4.01484 2.70208 3.35846 3.35846C2.70208 4.01484 2.33333 4.90508 2.33333 5.83333V22.1667C2.33333 23.0949 2.70208 23.9852 3.35846 24.6415C4.01484 25.2979 4.90508 25.6667 5.83333 25.6667H22.1667C23.0949 25.6667 23.9852 25.2979 24.6415 24.6415C25.2979 23.9852 25.6667 23.0949 25.6667 22.1667V5.83333C25.6667 4.90508 25.2979 4.01484 24.6415 3.35846C23.9852 2.70208 23.0949 2.33333 22.1667 2.33333H5.83333ZM10.899 19.8392C10.4126 19.8375 9.93534 19.7075 9.51533 19.4623C9.1004 19.2248 8.75601 18.8814 8.5174 18.4671C8.27879 18.0528 8.15453 17.5826 8.15733 17.1045V10.8955C8.15694 10.4173 8.2823 9.94748 8.52084 9.53306C8.75939 9.11865 9.10272 8.77426 9.5164 8.53444C9.93008 8.29463 10.3996 8.16782 10.8777 8.16675C11.3559 8.16568 11.8259 8.29038 12.2407 8.52833L18.3983 11.6025C18.8261 11.8334 19.1842 12.1745 19.4358 12.5904C19.6873 13.0063 19.823 13.482 19.8289 13.968C19.8347 14.454 19.7104 14.9328 19.4689 15.3546C19.2275 15.7765 18.8776 16.1261 18.4555 16.3672L12.1835 19.502C11.7923 19.7251 11.3493 19.8414 10.899 19.8392ZM10.8698 10.5058C10.8055 10.5058 10.7424 10.5227 10.6867 10.5548C10.6262 10.5885 10.5759 10.638 10.5414 10.698C10.5069 10.758 10.4893 10.8263 10.4907 10.8955V17.1045C10.4911 17.1727 10.5092 17.2396 10.5433 17.2987C10.5773 17.3578 10.6262 17.407 10.685 17.4414C10.7439 17.4759 10.8107 17.4945 10.8789 17.4954C10.9471 17.4962 11.0143 17.4793 11.074 17.4463L17.346 14.3103C17.3927 14.2738 17.4299 14.2265 17.4542 14.1724C17.4786 14.1184 17.4895 14.0592 17.486 14C17.4875 13.9306 17.4699 13.8621 17.4351 13.8021C17.4003 13.742 17.3497 13.6926 17.2888 13.6593L11.1358 10.5852C11.0556 10.536 10.9639 10.5086 10.8698 10.5058Z" fill="#F7B375"/>
</g>
<defs>
<clipPath id="clip0_60_2502">
<rect width="28" height="28" fill="white"/>
</clipPath>
</defs>
</svg>
