<svg width="28" height="28" viewBox="0 0 28 28" fill="none" xmlns="http://www.w3.org/2000/svg">
<g id="ICON" clip-path="url(#clip0_60_2490)">
<path id="Vector" d="M22.1667 1.1665H5.83333C4.28681 1.16836 2.80415 1.78353 1.71059 2.87709C0.617029 3.97065 0.0018525 5.45331 0 6.99984L0 16.3332C0.0018525 17.8797 0.617029 19.3624 1.71059 20.4559C2.80415 21.5495 4.28681 22.1647 5.83333 22.1665H12.8333V24.4998H8.16667C7.85725 24.4998 7.5605 24.6228 7.34171 24.8415C7.12292 25.0603 7 25.3571 7 25.6665C7 25.9759 7.12292 26.2727 7.34171 26.4915C7.5605 26.7103 7.85725 26.8332 8.16667 26.8332H19.8333C20.1428 26.8332 20.4395 26.7103 20.6583 26.4915C20.8771 26.2727 21 25.9759 21 25.6665C21 25.3571 20.8771 25.0603 20.6583 24.8415C20.4395 24.6228 20.1428 24.4998 19.8333 24.4998H15.1667V22.1665H22.1667C23.7132 22.1647 25.1959 21.5495 26.2894 20.4559C27.383 19.3624 27.9981 17.8797 28 16.3332V6.99984C27.9981 5.45331 27.383 3.97065 26.2894 2.87709C25.1959 1.78353 23.7132 1.16836 22.1667 1.1665ZM5.83333 3.49984H22.1667C23.0949 3.49984 23.9852 3.86859 24.6415 4.52496C25.2979 5.18134 25.6667 6.07158 25.6667 6.99984V15.1665H2.33333V6.99984C2.33333 6.07158 2.70208 5.18134 3.35846 4.52496C4.01484 3.86859 4.90508 3.49984 5.83333 3.49984ZM22.1667 19.8332H5.83333C5.11203 19.8302 4.40927 19.6044 3.82118 19.1867C3.2331 18.7691 2.78843 18.1799 2.548 17.4998H25.452C25.2116 18.1799 24.7669 18.7691 24.1788 19.1867C23.5907 19.6044 22.888 19.8302 22.1667 19.8332Z" fill="#F7B375"/>
</g>
<defs>
<clipPath id="clip0_60_2490">
<rect width="28" height="28" fill="white"/>
</clipPath>
</defs>
</svg>
