<svg width="24" height="24" viewBox="0 0 24 24" fill="none" xmlns="http://www.w3.org/2000/svg">
<g id="ICON" clip-path="url(#clip0_60_1974)">
<path id="Vector" d="M19 0H5C3.67441 0.00158786 2.40356 0.528882 1.46622 1.46622C0.528882 2.40356 0.00158786 3.67441 0 5L0 19C0.00158786 20.3256 0.528882 21.5964 1.46622 22.5338C2.40356 23.4711 3.67441 23.9984 5 24H19C20.3256 23.9984 21.5964 23.4711 22.5338 22.5338C23.4711 21.5964 23.9984 20.3256 24 19V5C23.9984 3.67441 23.4711 2.40356 22.5338 1.46622C21.5964 0.528882 20.3256 0.00158786 19 0V0ZM7 22V21C7 19.6739 7.52678 18.4021 8.46447 17.4645C9.40215 16.5268 10.6739 16 12 16C13.3261 16 14.5979 16.5268 15.5355 17.4645C16.4732 18.4021 17 19.6739 17 21V22H7ZM22 19C22 19.7956 21.6839 20.5587 21.1213 21.1213C20.5587 21.6839 19.7956 22 19 22V21C19 19.1435 18.2625 17.363 16.9497 16.0503C15.637 14.7375 13.8565 14 12 14C10.1435 14 8.36301 14.7375 7.05025 16.0503C5.7375 17.363 5 19.1435 5 21V22C4.20435 22 3.44129 21.6839 2.87868 21.1213C2.31607 20.5587 2 19.7956 2 19V5C2 4.20435 2.31607 3.44129 2.87868 2.87868C3.44129 2.31607 4.20435 2 5 2H19C19.7956 2 20.5587 2.31607 21.1213 2.87868C21.6839 3.44129 22 4.20435 22 5V19Z" fill="#F7B375"/>
<path id="Vector_2" d="M12 4.00024C11.2089 4.00024 10.4355 4.23484 9.77772 4.67437C9.11993 5.11389 8.60723 5.73861 8.30448 6.46951C8.00173 7.20042 7.92252 8.00468 8.07686 8.78061C8.2312 9.55653 8.61216 10.2693 9.17157 10.8287C9.73098 11.3881 10.4437 11.769 11.2196 11.9234C11.9956 12.0777 12.7998 11.9985 13.5307 11.6958C14.2616 11.393 14.8864 10.8803 15.3259 10.2225C15.7654 9.56473 16 8.79137 16 8.00024C16 6.93938 15.5786 5.92196 14.8284 5.17182C14.0783 4.42167 13.0609 4.00024 12 4.00024ZM12 10.0002C11.6044 10.0002 11.2178 9.88295 10.8889 9.66318C10.56 9.44342 10.3036 9.13106 10.1522 8.76561C10.0009 8.40016 9.96126 7.99803 10.0384 7.61006C10.1156 7.2221 10.3061 6.86574 10.5858 6.58603C10.8655 6.30633 11.2219 6.11584 11.6098 6.03867C11.9978 5.9615 12.3999 6.00111 12.7654 6.15248C13.1308 6.30386 13.4432 6.56021 13.6629 6.8891C13.8827 7.218 14 7.60468 14 8.00024C14 8.53068 13.7893 9.03938 13.4142 9.41446C13.0391 9.78953 12.5304 10.0002 12 10.0002Z" fill="#F7B375"/>
</g>
<defs>
<clipPath id="clip0_60_1974">
<rect width="24" height="24" fill="white"/>
</clipPath>
</defs>
</svg>
