<?xml version="1.0" encoding="UTF-8"?>
<svg id="Layer_2" data-name="Layer 2" xmlns="http://www.w3.org/2000/svg" viewBox="0 0 97.84 127.56">
  <defs>
    <style>
      .cls-1 {
        fill: #4c3d8f;
      }
    </style>
  </defs>
  <g id="Layer_1-2" data-name="Layer 1">
    <g>
      <path class="cls-1" d="M49.35,0c22.28,.15,41.6,15.57,47.09,37.58,5.28,21.15-4.8,43.54-24.13,54.41-2.63,1.48-5.06,4.17-6.41,6.88-3.85,7.73-6.84,15.89-10.71,23.61-1.15,2.29-4.11,5.07-6.26,5.08-2.14,.01-5.16-2.73-6.31-5.01-3.88-7.71-6.86-15.88-10.7-23.61-1.35-2.72-3.75-5.44-6.38-6.91C5.85,81-4.11,58.34,1.59,36.7,7.35,14.85,26.86-.15,49.35,0Zm27.33,78.73c10.94-7.17,16.43-26.18,11.99-41.44-5.08-17.43-21.19-29.55-39.48-29.72-18.19-.16-34.55,11.8-39.89,29.16-4.73,15.38,.59,34.4,11.73,41.97,6.91-17.17,15.14-24.01,28.62-23.76,12.65,.23,21.13,7.69,27.05,23.79Zm-27.79,39.82c4.19-9.53,7.69-17.94,11.62-26.14,1.05-2.19,3.1-4.29,5.23-5.48,2.55-1.44,3.61-2.85,3.3-5.82-1.07-10.22-10.04-18.74-20.07-18.79-10-.05-19.05,8.43-20.14,18.67-.3,2.86,.44,4.47,3.13,5.91,2.14,1.14,4.21,3.25,5.26,5.43,3.95,8.23,7.47,16.66,11.68,26.23Z"/>
      <path class="cls-1" d="M64.81,34.04c0,8.65-7.23,15.9-15.89,15.91-8.69,.01-15.9-7.17-15.91-15.86,0-8.67,7.22-15.93,15.86-15.95,8.6-.01,15.94,7.3,15.94,15.9Zm-16.16-8.21c-4.64,.12-8.06,3.69-8,8.35,.06,4.63,3.6,8.12,8.24,8.13,4.84,0,8.42-3.74,8.24-8.62-.17-4.64-3.77-7.98-8.48-7.86Z"/>
    </g>
  </g>
</svg>