<svg width="368" height="227" viewBox="0 0 368 227" fill="none" xmlns="http://www.w3.org/2000/svg">
<g clip-path="url(#clip0_163_206)">
<path d="M123.459 59.7111C123.489 60.4733 123.505 61.2355 123.505 61.9977C123.505 95.5957 96.1086 122.822 62.3349 122.822C28.5612 122.822 1.14978 95.5957 1.14978 61.9977C1.14978 57.1348 1.73235 52.2872 2.88216 47.5615C4.03197 42.8358 5.67236 38.5065 7.84933 34.2991C10.0263 30.0918 12.6019 26.2655 15.622 22.7136C18.6422 19.1617 22.061 15.9757 25.7863 13.2013C29.5117 10.4269 33.6357 8.04879 37.9437 6.18901C43.938 3.59752 50.4689 1.93591 56.9845 1.41761C61.9516 1.02126 66.9342 1.15846 71.9167 1.15846C72.024 1.15846 72.1313 1.15846 72.2233 1.15846C73.925 1.15846 75.6267 1.15846 77.3284 1.15846C79.3214 1.15846 81.3144 1.15846 83.3074 1.15846C85.5764 1.15846 87.8453 1.15846 90.1143 1.15846C92.6285 1.15846 95.1428 1.15846 97.657 1.15846C100.401 1.15846 103.145 1.15846 105.874 1.15846C108.818 1.15846 111.761 1.15846 114.705 1.15846C117.832 1.15846 120.944 1.15846 124.072 1.15846C127.353 1.15846 130.634 1.15846 133.914 1.15846C137.195 1.15846 140.737 1.15846 144.155 1.15846C147.574 1.15846 151.192 1.15846 154.718 1.15846C158.244 1.15846 161.939 1.15846 165.542 1.15846C169.144 1.15846 172.885 1.15846 176.549 1.15846C180.213 1.15846 183.969 1.15846 187.679 1.15846C191.389 1.15846 195.13 1.15846 198.856 1.15846C202.581 1.15846 206.291 1.15846 210.016 1.15846C213.742 1.15846 217.406 1.15846 221.085 1.15846C224.765 1.15846 228.367 1.15846 232.001 1.15846C235.634 1.15846 239.129 1.15846 242.686 1.15846C246.243 1.15846 249.616 1.15846 253.08 1.15846C256.545 1.15846 259.765 1.15846 263.107 1.15846C266.449 1.15846 269.5 1.15846 272.689 1.15846C275.709 1.15846 278.744 1.15846 281.764 1.15846C284.601 1.15846 287.437 1.15846 290.273 1.15846C292.895 1.15846 295.516 1.15846 298.138 1.15846C300.514 1.15846 302.906 1.15846 305.282 1.15846C307.397 1.15846 309.513 1.15846 311.644 1.15846C313.484 1.15846 315.308 1.15846 317.148 1.15846C318.681 1.15846 320.199 1.15846 321.732 1.15846C322.928 1.15846 324.123 1.15846 325.319 1.15846C326.162 1.15846 327.005 1.15846 327.833 1.15846C328.293 1.15846 328.753 1.15846 329.213 1.15846C329.305 1.15846 329.382 1.15846 329.474 1.15846C350.124 1.15846 366.866 17.805 366.866 38.3388V187.716C366.866 208.25 350.124 224.896 329.474 224.896H207.793" stroke="#4C3D8F" stroke-width="2.5" stroke-miterlimit="10" stroke-linecap="round"/>
<path d="M197.001 227C198.127 227 199.04 226.093 199.04 224.973C199.04 223.853 198.127 222.945 197.001 222.945C195.874 222.945 194.962 223.853 194.962 224.973C194.962 226.093 195.874 227 197.001 227Z" fill="#C5CFE6"/>
<path d="M185.671 227C186.797 227 187.71 226.093 187.71 224.973C187.71 223.853 186.797 222.945 185.671 222.945C184.545 222.945 183.632 223.853 183.632 224.973C183.632 226.093 184.545 227 185.671 227Z" fill="#C5CFE6"/>
<path d="M174.342 227C175.468 227 176.381 226.093 176.381 224.973C176.381 223.853 175.468 222.945 174.342 222.945C173.216 222.945 172.303 223.853 172.303 224.973C172.303 226.093 173.216 227 174.342 227Z" fill="#C5CFE6"/>
<path d="M163.012 227C164.138 227 165.051 226.093 165.051 224.973C165.051 223.853 164.138 222.945 163.012 222.945C161.886 222.945 160.973 223.853 160.973 224.973C160.973 226.093 161.886 227 163.012 227Z" fill="#C5CFE6"/>
<path d="M151.683 227C152.809 227 153.722 226.093 153.722 224.973C153.722 223.853 152.809 222.945 151.683 222.945C150.557 222.945 149.644 223.853 149.644 224.973C149.644 226.093 150.557 227 151.683 227Z" fill="#C5CFE6"/>
<path d="M140.353 227C141.479 227 142.392 226.093 142.392 224.973C142.392 223.853 141.479 222.945 140.353 222.945C139.227 222.945 138.314 223.853 138.314 224.973C138.314 226.093 139.227 227 140.353 227Z" fill="#C5CFE6"/>
<path d="M129.024 227C130.15 227 131.063 226.093 131.063 224.973C131.063 223.853 130.15 222.945 129.024 222.945C127.898 222.945 126.985 223.853 126.985 224.973C126.985 226.093 127.898 227 129.024 227Z" fill="#C5CFE6"/>
<path d="M117.694 227C118.82 227 119.733 226.093 119.733 224.973C119.733 223.853 118.82 222.945 117.694 222.945C116.568 222.945 115.655 223.853 115.655 224.973C115.655 226.093 116.568 227 117.694 227Z" fill="#C5CFE6"/>
<circle cx="63" cy="64" r="34" fill="#F7B375"/>
<path d="M106.365 227C107.491 227 108.404 226.093 108.404 224.973C108.404 223.853 107.491 222.945 106.365 222.945C105.239 222.945 104.326 223.853 104.326 224.973C104.326 226.093 105.239 227 106.365 227Z" fill="#C5CFE6"/>
<path d="M95.0355 227C96.1616 227 97.0744 226.093 97.0744 224.973C97.0744 223.853 96.1616 222.945 95.0355 222.945C93.9094 222.945 92.9965 223.853 92.9965 224.973C92.9965 226.093 93.9094 227 95.0355 227Z" fill="#C5CFE6"/>
<rect x="18" y="168" width="63" height="59" rx="10" fill="#E3EDFF"/>
<path d="M55.2963 191.488C55.2963 192.403 55.1003 193.196 54.7083 193.868C54.3349 194.54 53.8216 195.091 53.1683 195.52C52.5336 195.949 51.8056 196.267 50.9843 196.472V196.556C52.5896 196.743 53.8029 197.228 54.6243 198.012C55.4643 198.796 55.8843 199.851 55.8843 201.176C55.8843 202.333 55.5949 203.379 55.0163 204.312C54.4563 205.227 53.5789 205.955 52.3843 206.496C51.2083 207.019 49.6869 207.28 47.8203 207.28C46.7189 207.28 45.6923 207.187 44.7403 207C43.7883 206.813 42.8923 206.543 42.0523 206.188V202.604C42.9109 203.033 43.8069 203.36 44.7403 203.584C45.6923 203.808 46.5696 203.92 47.3723 203.92C48.8843 203.92 49.9389 203.659 50.5363 203.136C51.1523 202.613 51.4603 201.876 51.4603 200.924C51.4603 200.364 51.3203 199.897 51.0403 199.524C50.7603 199.132 50.2656 198.843 49.5563 198.656C48.8656 198.451 47.8949 198.348 46.6443 198.348H45.1323V195.1H46.6723C47.9043 195.1 48.8376 194.988 49.4723 194.764C50.1256 194.521 50.5643 194.204 50.7883 193.812C51.0309 193.401 51.1523 192.935 51.1523 192.412C51.1523 191.703 50.9283 191.152 50.4803 190.76C50.0509 190.349 49.3229 190.144 48.2963 190.144C47.6616 190.144 47.0829 190.228 46.5603 190.396C46.0376 190.545 45.5616 190.732 45.1323 190.956C44.7216 191.18 44.3576 191.395 44.0403 191.6L42.0803 188.688C42.6029 188.315 43.1816 187.979 43.8163 187.68C44.4696 187.381 45.1883 187.148 45.9723 186.98C46.7563 186.812 47.6336 186.728 48.6043 186.728C50.6576 186.728 52.2816 187.148 53.4763 187.988C54.6896 188.809 55.2963 189.976 55.2963 191.488Z" fill="#4C3D8F"/>
<g clip-path="url(#clip1_163_206)">
<path d="M77.0001 62.9801C76.9977 62.0304 76.705 61.1041 76.1614 60.3253C75.6179 59.5465 74.8493 58.9524 73.9586 58.6226L73.9143 58.5164C72.7569 55.6854 70.5412 53.4174 67.738 52.1943L67.3541 52.0263C67.0237 51.1383 66.4296 50.3727 65.6516 49.8321C64.8735 49.2915 63.9487 49.0017 63.0013 49.0017C62.0539 49.0017 61.1291 49.2915 60.3511 49.8321C59.573 50.3727 58.9789 51.1383 58.6485 52.0263L58.1608 52.2456C55.3824 53.5075 53.1957 55.7895 52.0533 58.6191C51.1612 58.9441 50.3902 59.5348 49.8442 60.3116C49.2981 61.0883 49.0034 62.0138 48.9995 62.9632C48.9957 63.9127 49.2831 64.8405 49.8228 65.6216C50.3626 66.4027 51.1289 66.9996 52.0183 67.3318L52.1676 67.6818C53.3382 70.3988 55.488 72.5761 58.19 73.7811L58.6485 73.9864C58.9799 74.8731 59.5742 75.6374 60.3519 76.177C61.1296 76.7165 62.0536 77.0057 63.0001 77.0057C63.9467 77.0057 64.8707 76.7165 65.6484 76.177C66.4261 75.6374 67.0204 74.8731 67.3518 73.9864L67.78 73.7963C70.6063 72.5325 72.8284 70.2163 73.9738 67.3399C74.8614 67.0067 75.6265 66.411 76.1671 65.6321C76.7077 64.8533 76.9983 63.9282 77.0001 62.9801ZM63.0001 51.3333C63.4616 51.3333 63.9128 51.4701 64.2965 51.7265C64.6802 51.9829 64.9793 52.3473 65.1559 52.7737C65.3325 53.2 65.3787 53.6692 65.2886 54.1218C65.1986 54.5744 64.9764 54.9902 64.6501 55.3165C64.3237 55.6428 63.908 55.8651 63.4554 55.9551C63.0027 56.0451 62.5336 55.9989 62.1072 55.8223C61.6809 55.6457 61.3164 55.3466 61.0601 54.9629C60.8037 54.5792 60.6668 54.1281 60.6668 53.6666C60.6668 53.0478 60.9126 52.4543 61.3502 52.0167C61.7878 51.5791 62.3813 51.3333 63.0001 51.3333ZM53.6528 60.6491L53.7485 60.6853L53.7601 60.6561C54.3448 60.7084 54.8852 60.989 55.2643 61.4371C55.6434 61.8852 55.8306 62.4647 55.7854 63.0499C55.7401 63.6351 55.466 64.1789 55.0225 64.5634C54.579 64.9478 54.0019 65.142 53.4162 65.1038C52.8305 65.0656 52.2834 64.7981 51.8936 64.3593C51.5038 63.9205 51.3027 63.3457 51.3338 62.7596C51.365 62.1734 51.6259 61.6232 52.0599 61.2281C52.494 60.8331 53.0664 60.625 53.6528 60.6491V60.6491ZM63.0001 74.6666C62.5387 74.6666 62.0875 74.5298 61.7038 74.2734C61.3201 74.017 61.021 73.6526 60.8444 73.2262C60.6678 72.7998 60.6216 72.3307 60.7116 71.8781C60.8017 71.4254 61.0239 71.0097 61.3502 70.6834C61.6766 70.357 62.0923 70.1348 62.5449 70.0448C62.9976 69.9547 63.4667 70.0009 63.8931 70.1775C64.3194 70.3542 64.6839 70.6532 64.9402 71.0369C65.1966 71.4206 65.3335 71.8718 65.3335 72.3333C65.3335 72.9521 65.0876 73.5456 64.6501 73.9832C64.2125 74.4208 63.619 74.6666 63.0001 74.6666ZM67.542 71.2996C67.3097 70.2683 66.7335 69.3467 65.9079 68.6864C65.0824 68.0261 64.0567 67.6663 62.9996 67.6663C61.9424 67.6663 60.9168 68.0261 60.0912 68.6864C59.2657 69.3467 58.6894 70.2683 58.4571 71.2996C56.8642 70.4303 55.5554 69.1204 54.6876 67.5266C55.7157 67.2943 56.6346 66.7201 57.294 65.8978C57.9533 65.0755 58.3142 64.0539 58.3176 62.9999C58.321 61.9459 57.9667 60.9219 57.3126 60.0954C56.6585 59.2689 55.7434 58.6888 54.7168 58.4499C55.5878 56.8786 56.8842 55.5847 58.4571 54.7166C58.6904 55.7468 59.2669 56.667 60.0921 57.3263C60.9173 57.9856 61.9422 58.3447 62.9984 58.3447C64.0546 58.3447 65.0795 57.9856 65.9047 57.3263C66.7299 56.667 67.3064 55.7468 67.5396 54.7166C69.1115 55.5837 70.4085 56.8743 71.2835 58.4418C70.2538 58.677 69.3346 59.2553 68.6769 60.0817C68.0192 60.9082 67.6621 61.9338 67.6641 62.99C67.6661 64.0462 68.0272 65.0704 68.6881 65.8943C69.349 66.7183 70.2704 67.293 71.301 67.5243C70.4304 69.113 69.1269 70.4221 67.542 71.2996ZM72.3335 65.3134C71.872 65.3134 71.4209 65.1766 71.0371 64.9202C70.6534 64.6638 70.3544 64.2994 70.1778 63.873C70.0012 63.4467 69.9549 62.9775 70.045 62.5249C70.135 62.0723 70.3572 61.6565 70.6836 61.3302C71.0099 61.0039 71.4256 60.7816 71.8783 60.6916C72.3309 60.6016 72.8 60.6478 73.2264 60.8244C73.6528 61.001 74.0172 61.3001 74.2736 61.6838C74.53 62.0675 74.6668 62.5186 74.6668 62.9801C74.6668 63.5989 74.421 64.1924 73.9834 64.63C73.5458 65.0676 72.9523 65.3134 72.3335 65.3134Z" fill="white"/>
</g>
</g>
<defs>
<clipPath id="clip0_163_206">
<rect width="368" height="227" fill="white"/>
</clipPath>
<clipPath id="clip1_163_206">
<rect width="28" height="28" fill="white" transform="translate(49 49)"/>
</clipPath>
</defs>
</svg>
