<svg width="368" height="227" viewBox="0 0 368 227" fill="none" xmlns="http://www.w3.org/2000/svg">
<g clip-path="url(#clip0_163_208)">
<path d="M244.541 59.7111C244.51 60.4733 244.495 61.2355 244.495 61.9977C244.495 95.5957 271.891 122.822 305.665 122.822C339.439 122.822 366.85 95.5957 366.85 61.9977C366.85 57.1348 366.268 52.2872 365.118 47.5615C363.968 42.8358 362.328 38.5065 360.151 34.2991C357.974 30.0918 355.398 26.2655 352.378 22.7136C349.358 19.1617 345.939 15.9757 342.214 13.2013C338.488 10.4269 334.364 8.04879 330.056 6.18901C324.062 3.59752 317.531 1.93591 311.015 1.41761C306.048 1.02126 301.066 1.15846 296.083 1.15846C295.976 1.15846 295.869 1.15846 295.777 1.15846C294.075 1.15846 292.373 1.15846 290.671 1.15846C288.678 1.15846 286.685 1.15846 284.692 1.15846C282.423 1.15846 280.155 1.15846 277.886 1.15846C275.371 1.15846 272.857 1.15846 270.343 1.15846C267.599 1.15846 264.854 1.15846 262.126 1.15846C259.182 1.15846 256.239 1.15846 253.295 1.15846C250.168 1.15846 247.055 1.15846 243.928 1.15846C240.647 1.15846 237.366 1.15846 234.086 1.15846C230.805 1.15846 227.263 1.15846 223.845 1.15846C220.426 1.15846 216.808 1.15846 213.282 1.15846C209.756 1.15846 206.061 1.15846 202.458 1.15846C198.855 1.15846 195.115 1.15846 191.451 1.15846C187.787 1.15846 184.031 1.15846 180.321 1.15846C176.61 1.15846 172.87 1.15846 169.144 1.15846C165.419 1.15846 161.709 1.15846 157.984 1.15846C154.258 1.15846 150.594 1.15846 146.915 1.15846C143.235 1.15846 139.633 1.15846 135.999 1.15846C132.366 1.15846 128.87 1.15846 125.314 1.15846C121.757 1.15846 118.384 1.15846 114.919 1.15846C111.455 1.15846 108.235 1.15846 104.893 1.15846C101.551 1.15846 98.5001 1.15846 95.3113 1.15846C92.2912 1.15846 89.2557 1.15846 86.2355 1.15846C83.3993 1.15846 80.5631 1.15846 77.7269 1.15846C75.1054 1.15846 72.4838 1.15846 69.8622 1.15846C67.486 1.15846 65.0944 1.15846 62.7181 1.15846C60.6024 1.15846 58.4868 1.15846 56.3558 1.15846C54.5161 1.15846 52.6918 1.15846 50.8521 1.15846C49.319 1.15846 47.8012 1.15846 46.2682 1.15846C45.0724 1.15846 43.8766 1.15846 42.6808 1.15846C41.8376 1.15846 40.9944 1.15846 40.1665 1.15846C39.7066 1.15846 39.2467 1.15846 38.7867 1.15846C38.6948 1.15846 38.6181 1.15846 38.5261 1.15846C17.8756 1.15846 1.13435 17.805 1.13435 38.3388V187.716C1.13435 208.25 17.8756 224.896 38.5261 224.896H160.207" stroke="#4C3D8F" stroke-width="2.5" stroke-miterlimit="10" stroke-linecap="round"/>
<path d="M171 227C169.873 227 168.961 226.093 168.961 224.973C168.961 223.853 169.873 222.945 171 222.945C172.126 222.945 173.039 223.853 173.039 224.973C173.039 226.093 172.126 227 171 227Z" fill="#C5CFE6"/>
<path d="M182.329 227C181.203 227 180.29 226.093 180.29 224.973C180.29 223.853 181.203 222.945 182.329 222.945C183.455 222.945 184.368 223.853 184.368 224.973C184.368 226.093 183.455 227 182.329 227Z" fill="#C5CFE6"/>
<path d="M193.658 227C192.532 227 191.619 226.093 191.619 224.973C191.619 223.853 192.532 222.945 193.658 222.945C194.784 222.945 195.697 223.853 195.697 224.973C195.697 226.093 194.784 227 193.658 227Z" fill="#C5CFE6"/>
<path d="M204.988 227C203.862 227 202.949 226.093 202.949 224.973C202.949 223.853 203.862 222.945 204.988 222.945C206.114 222.945 207.027 223.853 207.027 224.973C207.027 226.093 206.114 227 204.988 227Z" fill="#C5CFE6"/>
<path d="M216.317 227C215.191 227 214.278 226.093 214.278 224.973C214.278 223.853 215.191 222.945 216.317 222.945C217.443 222.945 218.356 223.853 218.356 224.973C218.356 226.093 217.443 227 216.317 227Z" fill="#C5CFE6"/>
<path d="M227.647 227C226.521 227 225.608 226.093 225.608 224.973C225.608 223.853 226.521 222.945 227.647 222.945C228.773 222.945 229.686 223.853 229.686 224.973C229.686 226.093 228.773 227 227.647 227Z" fill="#C5CFE6"/>
<path d="M238.976 227C237.85 227 236.937 226.093 236.937 224.973C236.937 223.853 237.85 222.945 238.976 222.945C240.102 222.945 241.015 223.853 241.015 224.973C241.015 226.093 240.102 227 238.976 227Z" fill="#C5CFE6"/>
<path d="M250.306 227C249.18 227 248.267 226.093 248.267 224.973C248.267 223.853 249.18 222.945 250.306 222.945C251.432 222.945 252.345 223.853 252.345 224.973C252.345 226.093 251.432 227 250.306 227Z" fill="#C5CFE6"/>
<circle cx="34" cy="34" r="34" transform="matrix(-1 0 0 1 339 30)" fill="#F7B375"/>
<g clip-path="url(#clip1_163_208)">
<path d="M317.568 58.0082C317.021 57.3777 316.345 56.8722 315.586 56.5258C314.826 56.1794 314.001 56.0002 313.167 56.0004H308.513L308.905 53.6192C309.044 52.7807 308.876 51.9202 308.433 51.1948C307.99 50.4694 307.302 49.9273 306.492 49.6674C305.683 49.4076 304.807 49.4473 304.025 49.7793C303.243 50.1113 302.606 50.7135 302.23 51.476L299.997 56.0004H296.833C295.287 56.0022 293.804 56.6174 292.711 57.7109C291.617 58.8045 291.002 60.2872 291 61.8337V67.667C291.002 69.2136 291.617 70.6962 292.711 71.7898C293.804 72.8833 295.287 73.4985 296.833 73.5004H312.35C313.754 73.4946 315.109 72.9851 316.169 72.0644C317.229 71.1437 317.924 69.8731 318.126 68.4837L318.949 62.6504C319.064 61.8229 319.001 60.9802 318.763 60.1793C318.525 59.3784 318.118 58.638 317.568 58.0082ZM293.333 67.667V61.8337C293.333 60.9054 293.702 60.0152 294.358 59.3588C295.015 58.7024 295.905 58.3337 296.833 58.3337H299.167V71.167H296.833C295.905 71.167 295.015 70.7983 294.358 70.1419C293.702 69.4855 293.333 68.5953 293.333 67.667ZM316.633 62.3225L315.809 68.1559C315.689 68.9888 315.273 69.7509 314.639 70.3035C314.004 70.8561 313.192 71.1626 312.35 71.167H301.5V58.0234C301.61 57.9276 301.701 57.812 301.768 57.6827L304.322 52.5085C304.418 52.3358 304.553 52.1882 304.717 52.078C304.881 51.9677 305.069 51.898 305.265 51.8744C305.461 51.8508 305.66 51.8741 305.845 51.9424C306.031 52.0106 306.197 52.1219 306.331 52.267C306.446 52.4003 306.53 52.5573 306.577 52.7267C306.624 52.8961 306.633 53.0737 306.603 53.247L305.987 56.9804C305.96 57.1472 305.969 57.3179 306.015 57.4806C306.06 57.6434 306.141 57.7944 306.25 57.9231C306.36 58.0518 306.496 58.1551 306.649 58.226C306.803 58.2969 306.97 58.3337 307.138 58.3337H313.167C313.668 58.3336 314.163 58.4411 314.619 58.6489C315.074 58.8566 315.48 59.1598 315.809 59.538C316.138 59.9161 316.381 60.3604 316.523 60.8408C316.665 61.3212 316.703 61.8265 316.633 62.3225Z" fill="white"/>
</g>
<path d="M261.635 227C260.509 227 259.596 226.093 259.596 224.973C259.596 223.853 260.509 222.945 261.635 222.945C262.761 222.945 263.674 223.853 263.674 224.973C263.674 226.093 262.761 227 261.635 227Z" fill="#C5CFE6"/>
<path d="M272.964 227C271.838 227 270.925 226.093 270.925 224.973C270.925 223.853 271.838 222.945 272.964 222.945C274.091 222.945 275.003 223.853 275.003 224.973C275.003 226.093 274.091 227 272.964 227Z" fill="#C5CFE6"/>
<rect width="63" height="59" rx="10" transform="matrix(-1 0 0 1 350 168)" fill="#E3EDFF"/>
<path d="M319.388 194.232C320.602 194.232 321.684 194.465 322.636 194.932C323.588 195.399 324.335 196.08 324.876 196.976C325.436 197.872 325.716 198.983 325.716 200.308C325.716 201.745 325.418 202.987 324.82 204.032C324.223 205.077 323.327 205.88 322.132 206.44C320.956 207 319.491 207.28 317.736 207.28C316.691 207.28 315.702 207.187 314.768 207C313.854 206.813 313.051 206.543 312.36 206.188V202.548C313.051 202.903 313.882 203.211 314.852 203.472C315.823 203.715 316.738 203.836 317.596 203.836C318.436 203.836 319.136 203.724 319.696 203.5C320.275 203.276 320.714 202.931 321.012 202.464C321.311 201.997 321.46 201.4 321.46 200.672C321.46 199.683 321.134 198.936 320.48 198.432C319.827 197.909 318.819 197.648 317.456 197.648C316.934 197.648 316.392 197.704 315.832 197.816C315.272 197.909 314.806 198.003 314.432 198.096L312.752 197.2L313.508 187.008H324.344V190.592H317.204L316.84 194.512C317.158 194.456 317.494 194.4 317.848 194.344C318.222 194.269 318.735 194.232 319.388 194.232Z" fill="#4C3D8F"/>
</g>
<defs>
<clipPath id="clip0_163_208">
<rect width="368" height="227" fill="white" transform="matrix(-1 0 0 1 368 0)"/>
</clipPath>
<clipPath id="clip1_163_208">
<rect width="28" height="28" fill="white" transform="translate(291 49)"/>
</clipPath>
</defs>
</svg>
