<svg width="368" height="227" viewBox="0 0 368 227" fill="none" xmlns="http://www.w3.org/2000/svg">
<g clip-path="url(#clip0_163_207)">
<path d="M244.541 59.7111C244.51 60.4733 244.495 61.2355 244.495 61.9977C244.495 95.5957 271.891 122.822 305.665 122.822C339.439 122.822 366.85 95.5957 366.85 61.9977C366.85 57.1348 366.268 52.2872 365.118 47.5615C363.968 42.8358 362.328 38.5065 360.151 34.2991C357.974 30.0918 355.398 26.2655 352.378 22.7136C349.358 19.1617 345.939 15.9757 342.214 13.2013C338.488 10.4269 334.364 8.04879 330.056 6.18901C324.062 3.59752 317.531 1.93591 311.015 1.41761C306.048 1.02126 301.066 1.15846 296.083 1.15846C295.976 1.15846 295.869 1.15846 295.777 1.15846C294.075 1.15846 292.373 1.15846 290.671 1.15846C288.678 1.15846 286.685 1.15846 284.692 1.15846C282.423 1.15846 280.155 1.15846 277.886 1.15846C275.371 1.15846 272.857 1.15846 270.343 1.15846C267.599 1.15846 264.854 1.15846 262.126 1.15846C259.182 1.15846 256.239 1.15846 253.295 1.15846C250.168 1.15846 247.055 1.15846 243.928 1.15846C240.647 1.15846 237.366 1.15846 234.086 1.15846C230.805 1.15846 227.263 1.15846 223.845 1.15846C220.426 1.15846 216.808 1.15846 213.282 1.15846C209.756 1.15846 206.061 1.15846 202.458 1.15846C198.855 1.15846 195.115 1.15846 191.451 1.15846C187.787 1.15846 184.031 1.15846 180.321 1.15846C176.61 1.15846 172.87 1.15846 169.144 1.15846C165.419 1.15846 161.709 1.15846 157.984 1.15846C154.258 1.15846 150.594 1.15846 146.915 1.15846C143.235 1.15846 139.633 1.15846 135.999 1.15846C132.366 1.15846 128.87 1.15846 125.314 1.15846C121.757 1.15846 118.384 1.15846 114.919 1.15846C111.455 1.15846 108.235 1.15846 104.893 1.15846C101.551 1.15846 98.5001 1.15846 95.3113 1.15846C92.2912 1.15846 89.2557 1.15846 86.2355 1.15846C83.3993 1.15846 80.5631 1.15846 77.7269 1.15846C75.1054 1.15846 72.4838 1.15846 69.8622 1.15846C67.486 1.15846 65.0944 1.15846 62.7181 1.15846C60.6024 1.15846 58.4868 1.15846 56.3558 1.15846C54.5161 1.15846 52.6918 1.15846 50.8521 1.15846C49.319 1.15846 47.8012 1.15846 46.2682 1.15846C45.0724 1.15846 43.8766 1.15846 42.6808 1.15846C41.8376 1.15846 40.9944 1.15846 40.1665 1.15846C39.7066 1.15846 39.2467 1.15846 38.7867 1.15846C38.6948 1.15846 38.6181 1.15846 38.5261 1.15846C17.8756 1.15846 1.13435 17.805 1.13435 38.3388V187.716C1.13435 208.25 17.8756 224.896 38.5261 224.896H160.207" stroke="#4C3D8F" stroke-width="2.5" stroke-miterlimit="10" stroke-linecap="round"/>
<path d="M171 227C169.873 227 168.961 226.093 168.961 224.973C168.961 223.853 169.873 222.945 171 222.945C172.126 222.945 173.039 223.853 173.039 224.973C173.039 226.093 172.126 227 171 227Z" fill="#C5CFE6"/>
<path d="M182.329 227C181.203 227 180.29 226.093 180.29 224.973C180.29 223.853 181.203 222.945 182.329 222.945C183.455 222.945 184.368 223.853 184.368 224.973C184.368 226.093 183.455 227 182.329 227Z" fill="#C5CFE6"/>
<path d="M193.658 227C192.532 227 191.619 226.093 191.619 224.973C191.619 223.853 192.532 222.945 193.658 222.945C194.784 222.945 195.697 223.853 195.697 224.973C195.697 226.093 194.784 227 193.658 227Z" fill="#C5CFE6"/>
<path d="M204.988 227C203.862 227 202.949 226.093 202.949 224.973C202.949 223.853 203.862 222.945 204.988 222.945C206.114 222.945 207.027 223.853 207.027 224.973C207.027 226.093 206.114 227 204.988 227Z" fill="#C5CFE6"/>
<path d="M216.317 227C215.191 227 214.278 226.093 214.278 224.973C214.278 223.853 215.191 222.945 216.317 222.945C217.443 222.945 218.356 223.853 218.356 224.973C218.356 226.093 217.443 227 216.317 227Z" fill="#C5CFE6"/>
<path d="M227.647 227C226.521 227 225.608 226.093 225.608 224.973C225.608 223.853 226.521 222.945 227.647 222.945C228.773 222.945 229.686 223.853 229.686 224.973C229.686 226.093 228.773 227 227.647 227Z" fill="#C5CFE6"/>
<path d="M238.976 227C237.85 227 236.937 226.093 236.937 224.973C236.937 223.853 237.85 222.945 238.976 222.945C240.102 222.945 241.015 223.853 241.015 224.973C241.015 226.093 240.102 227 238.976 227Z" fill="#C5CFE6"/>
<path d="M250.306 227C249.18 227 248.267 226.093 248.267 224.973C248.267 223.853 249.18 222.945 250.306 222.945C251.432 222.945 252.345 223.853 252.345 224.973C252.345 226.093 251.432 227 250.306 227Z" fill="#C5CFE6"/>
<circle cx="34" cy="34" r="34" transform="matrix(-1 0 0 1 339 30)" fill="#F7B375"/>
<g clip-path="url(#clip1_163_207)">
<path d="M296.833 52.5257C296.833 52.5163 296.833 52.5093 296.833 52.5V50.1667C296.833 49.8572 296.956 49.5605 297.175 49.3417C297.394 49.1229 297.691 49 298 49C298.309 49 298.606 49.1229 298.825 49.3417C299.044 49.5605 299.167 49.8572 299.167 50.1667V51.45C299.551 51.372 299.942 51.3329 300.333 51.3333H301.5V50.1667C301.5 49.8572 301.623 49.5605 301.842 49.3417C302.061 49.1229 302.357 49 302.667 49C302.976 49 303.273 49.1229 303.492 49.3417C303.71 49.5605 303.833 49.8572 303.833 50.1667V51.3333H306.167V50.1667C306.167 49.8572 306.29 49.5605 306.508 49.3417C306.727 49.1229 307.024 49 307.333 49C307.643 49 307.939 49.1229 308.158 49.3417C308.377 49.5605 308.5 49.8572 308.5 50.1667V51.3333H309.667C310.058 51.3329 310.449 51.372 310.833 51.45V50.1667C310.833 49.8572 310.956 49.5605 311.175 49.3417C311.394 49.1229 311.691 49 312 49C312.309 49 312.606 49.1229 312.825 49.3417C313.044 49.5605 313.167 49.8572 313.167 50.1667V52.5V52.5257C313.889 53.0651 314.476 53.7653 314.881 54.5708C315.286 55.3763 315.498 56.2651 315.5 57.1667V71.1667C315.498 72.7132 314.883 74.1958 313.789 75.2894C312.696 76.383 311.213 76.9981 309.667 77H300.333C298.787 76.9981 297.304 76.383 296.211 75.2894C295.117 74.1958 294.502 72.7132 294.5 71.1667V57.1667C294.502 56.2651 294.714 55.3763 295.119 54.5708C295.524 53.7653 296.111 53.0651 296.833 52.5257V52.5257ZM296.833 71.1667C296.833 72.0949 297.202 72.9852 297.858 73.6415C298.515 74.2979 299.405 74.6667 300.333 74.6667H309.667C310.595 74.6667 311.485 74.2979 312.142 73.6415C312.798 72.9852 313.167 72.0949 313.167 71.1667V57.1667C313.167 56.2384 312.798 55.3482 312.142 54.6918C311.485 54.0354 310.595 53.6667 309.667 53.6667H300.333C299.405 53.6667 298.515 54.0354 297.858 54.6918C297.202 55.3482 296.833 56.2384 296.833 57.1667V71.1667ZM299.167 58.3333C299.167 58.6428 299.29 58.9395 299.508 59.1583C299.727 59.3771 300.024 59.5 300.333 59.5H309.667C309.976 59.5 310.273 59.3771 310.492 59.1583C310.71 58.9395 310.833 58.6428 310.833 58.3333C310.833 58.0239 310.71 57.7272 310.492 57.5084C310.273 57.2896 309.976 57.1667 309.667 57.1667H300.333C300.024 57.1667 299.727 57.2896 299.508 57.5084C299.29 57.7272 299.167 58.0239 299.167 58.3333ZM299.167 63C299.167 63.3094 299.29 63.6062 299.508 63.825C299.727 64.0437 300.024 64.1667 300.333 64.1667H309.667C309.976 64.1667 310.273 64.0437 310.492 63.825C310.71 63.6062 310.833 63.3094 310.833 63C310.833 62.6906 310.71 62.3938 310.492 62.175C310.273 61.9562 309.976 61.8333 309.667 61.8333H300.333C300.024 61.8333 299.727 61.9562 299.508 62.175C299.29 62.3938 299.167 62.6906 299.167 63ZM303.833 67.6667C303.833 67.9761 303.956 68.2728 304.175 68.4916C304.394 68.7104 304.691 68.8333 305 68.8333H309.667C309.976 68.8333 310.273 68.7104 310.492 68.4916C310.71 68.2728 310.833 67.9761 310.833 67.6667C310.833 67.3572 310.71 67.0605 310.492 66.8417C310.273 66.6229 309.976 66.5 309.667 66.5H305C304.691 66.5 304.394 66.6229 304.175 66.8417C303.956 67.0605 303.833 67.3572 303.833 67.6667Z" fill="white"/>
</g>
<path d="M261.635 227C260.509 227 259.596 226.093 259.596 224.973C259.596 223.853 260.509 222.945 261.635 222.945C262.761 222.945 263.674 223.853 263.674 224.973C263.674 226.093 262.761 227 261.635 227Z" fill="#C5CFE6"/>
<path d="M272.964 227C271.838 227 270.925 226.093 270.925 224.973C270.925 223.853 271.838 222.945 272.964 222.945C274.091 222.945 275.003 223.853 275.003 224.973C275.003 226.093 274.091 227 272.964 227Z" fill="#C5CFE6"/>
<rect width="63" height="59" rx="10" transform="matrix(-1 0 0 1 350 168)" fill="#E3EDFF"/>
<path d="M326.528 202.856H324.12V207H320.004V202.856H311.464V199.916L320.228 187.008H324.12V199.58H326.528V202.856ZM320.004 196.192C320.004 195.875 320.004 195.501 320.004 195.072C320.023 194.624 320.042 194.185 320.06 193.756C320.079 193.308 320.098 192.916 320.116 192.58C320.135 192.225 320.154 191.983 320.172 191.852H320.06C319.892 192.225 319.715 192.589 319.528 192.944C319.342 193.299 319.118 193.663 318.856 194.036L315.188 199.58H320.004V196.192Z" fill="#4C3D8F"/>
</g>
<defs>
<clipPath id="clip0_163_207">
<rect width="368" height="227" fill="white" transform="matrix(-1 0 0 1 368 0)"/>
</clipPath>
<clipPath id="clip1_163_207">
<rect width="28" height="28" fill="white" transform="matrix(-1 0 0 1 319 49)"/>
</clipPath>
</defs>
</svg>
