<svg width="368" height="227" viewBox="0 0 368 227" fill="none" xmlns="http://www.w3.org/2000/svg">
<g clip-path="url(#clip0_163_204)">
<path d="M123.459 59.7111C123.49 60.4733 123.505 61.2355 123.505 61.9977C123.505 95.5957 96.1088 122.822 62.335 122.822C28.5613 122.822 1.1499 95.5957 1.1499 61.9977C1.1499 57.1348 1.73247 52.2872 2.88228 47.5615C4.03209 42.8358 5.67248 38.5065 7.84945 34.2991C10.0264 30.0918 12.602 26.2655 15.6222 22.7136C18.6423 19.1617 22.0611 15.9757 25.7865 13.2013C29.5118 10.4269 33.6358 8.04879 37.9438 6.18901C43.9381 3.59752 50.469 1.93591 56.9846 1.41761C61.9518 1.02126 66.9343 1.15846 71.9168 1.15846C72.0241 1.15846 72.1314 1.15846 72.2234 1.15846C73.9251 1.15846 75.6268 1.15846 77.3285 1.15846C79.3215 1.15846 81.3145 1.15846 83.3076 1.15846C85.5765 1.15846 87.8455 1.15846 90.1144 1.15846C92.6287 1.15846 95.1429 1.15846 97.6572 1.15846C100.401 1.15846 103.146 1.15846 105.874 1.15846C108.818 1.15846 111.761 1.15846 114.705 1.15846C117.832 1.15846 120.945 1.15846 124.072 1.15846C127.353 1.15846 130.634 1.15846 133.914 1.15846C137.195 1.15846 140.737 1.15846 144.155 1.15846C147.574 1.15846 151.192 1.15846 154.718 1.15846C158.244 1.15846 161.939 1.15846 165.542 1.15846C169.145 1.15846 172.885 1.15846 176.549 1.15846C180.213 1.15846 183.969 1.15846 187.679 1.15846C191.39 1.15846 195.13 1.15846 198.856 1.15846C202.581 1.15846 206.291 1.15846 210.016 1.15846C213.742 1.15846 217.406 1.15846 221.085 1.15846C224.765 1.15846 228.367 1.15846 232.001 1.15846C235.634 1.15846 239.13 1.15846 242.686 1.15846C246.243 1.15846 249.616 1.15846 253.081 1.15846C256.545 1.15846 259.765 1.15846 263.107 1.15846C266.449 1.15846 269.5 1.15846 272.689 1.15846C275.709 1.15846 278.744 1.15846 281.764 1.15846C284.601 1.15846 287.437 1.15846 290.273 1.15846C292.895 1.15846 295.516 1.15846 298.138 1.15846C300.514 1.15846 302.906 1.15846 305.282 1.15846C307.398 1.15846 309.513 1.15846 311.644 1.15846C313.484 1.15846 315.308 1.15846 317.148 1.15846C318.681 1.15846 320.199 1.15846 321.732 1.15846C322.928 1.15846 324.123 1.15846 325.319 1.15846C326.162 1.15846 327.006 1.15846 327.833 1.15846C328.293 1.15846 328.753 1.15846 329.213 1.15846C329.305 1.15846 329.382 1.15846 329.474 1.15846C350.124 1.15846 366.866 17.805 366.866 38.3388V187.716C366.866 208.25 350.124 224.896 329.474 224.896H207.793" stroke="#4C3D8F" stroke-width="2.5" stroke-miterlimit="10" stroke-linecap="round"/>
<path d="M197 227C198.127 227 199.039 226.093 199.039 224.973C199.039 223.853 198.127 222.945 197 222.945C195.874 222.945 194.961 223.853 194.961 224.973C194.961 226.093 195.874 227 197 227Z" fill="#C5CFE6"/>
<path d="M185.671 227C186.797 227 187.71 226.093 187.71 224.973C187.71 223.853 186.797 222.945 185.671 222.945C184.545 222.945 183.632 223.853 183.632 224.973C183.632 226.093 184.545 227 185.671 227Z" fill="#C5CFE6"/>
<path d="M174.342 227C175.468 227 176.381 226.093 176.381 224.973C176.381 223.853 175.468 222.945 174.342 222.945C173.216 222.945 172.303 223.853 172.303 224.973C172.303 226.093 173.216 227 174.342 227Z" fill="#C5CFE6"/>
<path d="M163.012 227C164.138 227 165.051 226.093 165.051 224.973C165.051 223.853 164.138 222.945 163.012 222.945C161.886 222.945 160.973 223.853 160.973 224.973C160.973 226.093 161.886 227 163.012 227Z" fill="#C5CFE6"/>
<path d="M151.683 227C152.809 227 153.722 226.093 153.722 224.973C153.722 223.853 152.809 222.945 151.683 222.945C150.557 222.945 149.644 223.853 149.644 224.973C149.644 226.093 150.557 227 151.683 227Z" fill="#C5CFE6"/>
<path d="M140.353 227C141.479 227 142.392 226.093 142.392 224.973C142.392 223.853 141.479 222.945 140.353 222.945C139.227 222.945 138.314 223.853 138.314 224.973C138.314 226.093 139.227 227 140.353 227Z" fill="#C5CFE6"/>
<path d="M129.024 227C130.15 227 131.063 226.093 131.063 224.973C131.063 223.853 130.15 222.945 129.024 222.945C127.898 222.945 126.985 223.853 126.985 224.973C126.985 226.093 127.898 227 129.024 227Z" fill="#C5CFE6"/>
<path d="M117.694 227C118.82 227 119.733 226.093 119.733 224.973C119.733 223.853 118.82 222.945 117.694 222.945C116.568 222.945 115.655 223.853 115.655 224.973C115.655 226.093 116.568 227 117.694 227Z" fill="#C5CFE6"/>
<circle cx="63" cy="64" r="34" fill="#F7B375"/>
<path d="M106.365 227C107.491 227 108.404 226.093 108.404 224.973C108.404 223.853 107.491 222.945 106.365 222.945C105.239 222.945 104.326 223.853 104.326 224.973C104.326 226.093 105.239 227 106.365 227Z" fill="#C5CFE6"/>
<path d="M95.0356 227C96.1617 227 97.0746 226.093 97.0746 224.973C97.0746 223.853 96.1617 222.945 95.0356 222.945C93.9095 222.945 92.9966 223.853 92.9966 224.973C92.9966 226.093 93.9095 227 95.0356 227Z" fill="#C5CFE6"/>
<rect x="18" y="168" width="63" height="59" rx="10" fill="#E3EDFF"/>
<g clip-path="url(#clip1_163_204)">
<path d="M76.6579 75.0092L69.6941 68.0454C71.5918 65.7244 72.5249 62.7628 72.3002 59.7732C72.0756 56.7836 70.7105 53.9947 68.4873 51.9833C66.264 49.972 63.3528 48.8921 60.3557 48.967C57.3586 49.042 54.5049 50.266 52.385 52.3859C50.265 54.5059 49.041 57.3595 48.9661 60.3566C48.8911 63.3537 49.971 66.265 51.9824 68.4882C53.9937 70.7115 56.7826 72.0766 59.7722 72.3012C62.7619 72.5258 65.7234 71.5928 68.0444 69.6951L75.0082 76.6589C75.2283 76.8714 75.523 76.989 75.8289 76.9863C76.1348 76.9837 76.4274 76.861 76.6437 76.6447C76.86 76.4284 76.9827 76.1358 76.9854 75.8299C76.988 75.524 76.8704 75.2293 76.6579 75.0092ZM60.6664 70.0007C58.8205 70.0007 57.0159 69.4533 55.4811 68.4278C53.9462 67.4022 52.75 65.9445 52.0435 64.2391C51.3371 62.5337 51.1523 60.657 51.5124 58.8465C51.8725 57.0361 52.7615 55.373 54.0667 54.0677C55.372 52.7624 57.0351 51.8735 58.8456 51.5134C60.6561 51.1533 62.5327 51.3381 64.2381 52.0445C65.9436 52.7509 67.4012 53.9472 68.4268 55.4821C69.4524 57.0169 69.9997 58.8214 69.9997 60.6674C69.997 63.1419 69.0127 65.5142 67.263 67.264C65.5133 69.0137 63.1409 69.9979 60.6664 70.0007Z" fill="white"/>
</g>
<path d="M52.5523 207H48.3243V195.436C48.3243 195.119 48.3243 194.727 48.3243 194.26C48.3429 193.793 48.3616 193.308 48.3803 192.804C48.3989 192.3 48.4176 191.852 48.4363 191.46C48.3429 191.572 48.1376 191.777 47.8203 192.076C47.5216 192.356 47.2416 192.608 46.9803 192.832L44.6843 194.68L42.6403 192.132L49.0803 187.008H52.5523V207Z" fill="#4C3D8F"/>
</g>
<defs>
<clipPath id="clip0_163_204">
<rect width="368" height="227" fill="white"/>
</clipPath>
<clipPath id="clip1_163_204">
<rect width="28" height="28" fill="white" transform="translate(49 49)"/>
</clipPath>
</defs>
</svg>
