<svg width="368" height="227" viewBox="0 0 368 227" fill="none" xmlns="http://www.w3.org/2000/svg">
<g clip-path="url(#clip0_60_2148)">
<path d="M244.541 59.7111C244.511 60.4733 244.495 61.2355 244.495 61.9977C244.495 95.5957 271.891 122.822 305.665 122.822C339.439 122.822 366.85 95.5957 366.85 61.9977C366.85 57.1348 366.268 52.2872 365.118 47.5615C363.968 42.8358 362.328 38.5065 360.151 34.2991C357.974 30.0918 355.398 26.2655 352.378 22.7136C349.358 19.1617 345.939 15.9757 342.214 13.2013C338.488 10.4269 334.364 8.04879 330.056 6.18901C324.062 3.59752 317.531 1.93591 311.016 1.41761C306.048 1.02126 301.066 1.15846 296.083 1.15846C295.976 1.15846 295.869 1.15846 295.777 1.15846C294.075 1.15846 292.373 1.15846 290.672 1.15846C288.679 1.15846 286.686 1.15846 284.693 1.15846C282.424 1.15846 280.155 1.15846 277.886 1.15846C275.371 1.15846 272.857 1.15846 270.343 1.15846C267.599 1.15846 264.855 1.15846 262.126 1.15846C259.182 1.15846 256.239 1.15846 253.295 1.15846C250.168 1.15846 247.056 1.15846 243.928 1.15846C240.647 1.15846 237.366 1.15846 234.086 1.15846C230.805 1.15846 227.263 1.15846 223.845 1.15846C220.426 1.15846 216.808 1.15846 213.282 1.15846C209.756 1.15846 206.061 1.15846 202.458 1.15846C198.856 1.15846 195.115 1.15846 191.451 1.15846C187.787 1.15846 184.031 1.15846 180.321 1.15846C176.611 1.15846 172.87 1.15846 169.144 1.15846C165.419 1.15846 161.709 1.15846 157.984 1.15846C154.258 1.15846 150.594 1.15846 146.915 1.15846C143.235 1.15846 139.633 1.15846 135.999 1.15846C132.366 1.15846 128.871 1.15846 125.314 1.15846C121.757 1.15846 118.384 1.15846 114.92 1.15846C111.455 1.15846 108.235 1.15846 104.893 1.15846C101.551 1.15846 98.5003 1.15846 95.3115 1.15846C92.2913 1.15846 89.2558 1.15846 86.2356 1.15846C83.3994 1.15846 80.5632 1.15846 77.7271 1.15846C75.1055 1.15846 72.4839 1.15846 69.8624 1.15846C67.4861 1.15846 65.0945 1.15846 62.7182 1.15846C60.6026 1.15846 58.4869 1.15846 56.356 1.15846C54.5163 1.15846 52.6919 1.15846 50.8522 1.15846C49.3191 1.15846 47.8014 1.15846 46.2683 1.15846C45.0725 1.15846 43.8767 1.15846 42.6809 1.15846C41.8377 1.15846 40.9945 1.15846 40.1667 1.15846C39.7067 1.15846 39.2468 1.15846 38.7869 1.15846C38.6949 1.15846 38.6182 1.15846 38.5262 1.15846C17.8757 1.15846 1.13446 17.805 1.13446 38.3388V187.716C1.13446 208.25 17.8757 224.896 38.5262 224.896H160.207" stroke="#4C3D8F" stroke-width="2.5" stroke-miterlimit="10" stroke-linecap="round"/>
<path d="M170.999 227C169.873 227 168.96 226.093 168.96 224.973C168.96 223.853 169.873 222.945 170.999 222.945C172.126 222.945 173.038 223.853 173.038 224.973C173.038 226.093 172.126 227 170.999 227Z" fill="#C5CFE6"/>
<path d="M182.329 227C181.203 227 180.29 226.093 180.29 224.973C180.29 223.853 181.203 222.945 182.329 222.945C183.455 222.945 184.368 223.853 184.368 224.973C184.368 226.093 183.455 227 182.329 227Z" fill="#C5CFE6"/>
<path d="M193.658 227C192.532 227 191.619 226.093 191.619 224.973C191.619 223.853 192.532 222.945 193.658 222.945C194.784 222.945 195.697 223.853 195.697 224.973C195.697 226.093 194.784 227 193.658 227Z" fill="#C5CFE6"/>
<path d="M204.988 227C203.862 227 202.949 226.093 202.949 224.973C202.949 223.853 203.862 222.945 204.988 222.945C206.114 222.945 207.027 223.853 207.027 224.973C207.027 226.093 206.114 227 204.988 227Z" fill="#C5CFE6"/>
<path d="M216.317 227C215.191 227 214.278 226.093 214.278 224.973C214.278 223.853 215.191 222.945 216.317 222.945C217.443 222.945 218.356 223.853 218.356 224.973C218.356 226.093 217.443 227 216.317 227Z" fill="#C5CFE6"/>
<path d="M227.647 227C226.521 227 225.608 226.093 225.608 224.973C225.608 223.853 226.521 222.945 227.647 222.945C228.773 222.945 229.686 223.853 229.686 224.973C229.686 226.093 228.773 227 227.647 227Z" fill="#C5CFE6"/>
<path d="M238.976 227C237.85 227 236.937 226.093 236.937 224.973C236.937 223.853 237.85 222.945 238.976 222.945C240.102 222.945 241.015 223.853 241.015 224.973C241.015 226.093 240.102 227 238.976 227Z" fill="#C5CFE6"/>
<path d="M250.306 227C249.18 227 248.267 226.093 248.267 224.973C248.267 223.853 249.18 222.945 250.306 222.945C251.432 222.945 252.345 223.853 252.345 224.973C252.345 226.093 251.432 227 250.306 227Z" fill="#C5CFE6"/>
<circle cx="34" cy="34" r="34" transform="matrix(-1 0 0 1 339 30)" fill="#F7B375"/>
<g clip-path="url(#clip1_60_2148)">
<path d="M301.5 53.4899C301.497 53.7219 301.425 53.9478 301.295 54.1398C301.164 54.3317 300.981 54.4814 300.766 54.5703C298.851 55.4133 297.23 56.8097 296.114 58.5802C294.997 60.3508 294.435 62.4146 294.5 64.5068C294.545 67.2915 295.695 69.9443 297.696 71.8815C299.697 73.8187 302.386 74.8816 305.171 74.8364C307.955 74.7913 310.608 73.6417 312.545 71.6406C314.483 69.6395 315.545 66.9509 315.5 64.1661C315.498 62.1317 314.904 60.1419 313.792 58.4386C312.679 56.7352 311.096 55.3918 309.234 54.5714C309.02 54.482 308.836 54.3319 308.706 54.1396C308.575 53.9473 308.504 53.7211 308.5 53.4888C308.5 53.2977 308.547 53.1094 308.636 52.9406C308.726 52.7718 308.855 52.6275 309.014 52.5205C309.172 52.4134 309.354 52.3469 309.544 52.3268C309.734 52.3066 309.926 52.3335 310.103 52.4049C312.811 53.5788 315.031 55.6498 316.39 58.2693C317.749 60.8888 318.164 63.8965 317.564 66.786C316.965 69.6755 315.388 72.2702 313.099 74.1329C310.81 75.9956 307.95 77.0126 304.999 77.0126C302.048 77.0126 299.187 75.9956 296.898 74.1329C294.609 72.2702 293.032 69.6755 292.433 66.786C291.833 63.8965 292.248 60.8888 293.607 58.2693C294.966 55.6498 297.186 53.5788 299.894 52.4049C300.071 52.3327 300.264 52.3053 300.454 52.3251C300.645 52.345 300.828 52.4114 300.987 52.5187C301.145 52.6259 301.275 52.7707 301.365 52.9401C301.455 53.1095 301.501 53.2983 301.5 53.4899Z" fill="white"/>
<path d="M303.833 50.1667C303.833 49.5223 304.355 49 305 49C305.644 49 306.167 49.5223 306.167 50.1667V57.1667C306.167 57.811 305.644 58.3333 305 58.3333C304.355 58.3333 303.833 57.811 303.833 57.1667V50.1667Z" fill="white"/>
</g>
<path d="M261.635 227C260.509 227 259.596 226.093 259.596 224.973C259.596 223.853 260.509 222.945 261.635 222.945C262.761 222.945 263.674 223.853 263.674 224.973C263.674 226.093 262.761 227 261.635 227Z" fill="#C5CFE6"/>
<path d="M272.965 227C271.838 227 270.926 226.093 270.926 224.973C270.926 223.853 271.838 222.945 272.965 222.945C274.091 222.945 275.004 223.853 275.004 224.973C275.004 226.093 274.091 227 272.965 227Z" fill="#C5CFE6"/>
<rect width="63" height="59" rx="10" transform="matrix(-1 0 0 1 350 168)" fill="#E3EDFF"/>
<path d="M311.968 198.516C311.968 197.359 312.052 196.22 312.22 195.1C312.388 193.98 312.678 192.925 313.088 191.936C313.518 190.928 314.106 190.041 314.852 189.276C315.618 188.492 316.579 187.885 317.736 187.456C318.912 187.008 320.331 186.784 321.992 186.784C322.384 186.784 322.842 186.803 323.364 186.84C323.887 186.859 324.326 186.905 324.68 186.98V190.368C324.326 190.275 323.934 190.209 323.504 190.172C323.094 190.116 322.683 190.088 322.272 190.088C321.022 190.088 319.986 190.237 319.164 190.536C318.362 190.835 317.727 191.264 317.26 191.824C316.794 192.384 316.448 193.047 316.224 193.812C316.019 194.559 315.898 195.399 315.86 196.332H316.028C316.29 195.884 316.607 195.492 316.98 195.156C317.372 194.801 317.848 194.521 318.408 194.316C318.968 194.111 319.622 194.008 320.368 194.008C321.544 194.008 322.552 194.26 323.392 194.764C324.251 195.249 324.914 195.968 325.38 196.92C325.847 197.853 326.08 198.992 326.08 200.336C326.08 201.773 325.8 203.015 325.24 204.06C324.699 205.105 323.915 205.908 322.888 206.468C321.88 207.009 320.676 207.28 319.276 207.28C318.25 207.28 317.288 207.103 316.392 206.748C315.515 206.393 314.74 205.861 314.068 205.152C313.415 204.424 312.902 203.509 312.528 202.408C312.155 201.307 311.968 200.009 311.968 198.516ZM319.192 203.892C320.014 203.892 320.686 203.612 321.208 203.052C321.731 202.473 321.992 201.587 321.992 200.392C321.992 199.421 321.768 198.656 321.32 198.096C320.872 197.536 320.191 197.256 319.276 197.256C318.66 197.256 318.119 197.396 317.652 197.676C317.186 197.937 316.822 198.283 316.56 198.712C316.299 199.141 316.168 199.58 316.168 200.028C316.168 200.495 316.234 200.961 316.364 201.428C316.495 201.876 316.682 202.287 316.924 202.66C317.186 203.033 317.503 203.332 317.876 203.556C318.25 203.78 318.688 203.892 319.192 203.892Z" fill="#4C3D8F"/>
</g>
<defs>
<clipPath id="clip0_60_2148">
<rect width="368" height="227" fill="white" transform="matrix(-1 0 0 1 368 0)"/>
</clipPath>
<clipPath id="clip1_60_2148">
<rect width="28" height="28" fill="white" transform="matrix(-1 0 0 1 319 49)"/>
</clipPath>
</defs>
</svg>
