<svg width="368" height="227" viewBox="0 0 368 227" fill="none" xmlns="http://www.w3.org/2000/svg">
<g clip-path="url(#clip0_163_205)">
<path d="M123.459 59.7111C123.489 60.4733 123.505 61.2355 123.505 61.9977C123.505 95.5957 96.1086 122.822 62.3349 122.822C28.5612 122.822 1.14978 95.5957 1.14978 61.9977C1.14978 57.1348 1.73235 52.2872 2.88216 47.5615C4.03197 42.8358 5.67236 38.5065 7.84933 34.2991C10.0263 30.0918 12.6019 26.2655 15.622 22.7136C18.6422 19.1617 22.061 15.9757 25.7863 13.2013C29.5117 10.4269 33.6357 8.04879 37.9437 6.18901C43.938 3.59752 50.4689 1.93591 56.9845 1.41761C61.9516 1.02126 66.9342 1.15846 71.9167 1.15846C72.024 1.15846 72.1313 1.15846 72.2233 1.15846C73.925 1.15846 75.6267 1.15846 77.3284 1.15846C79.3214 1.15846 81.3144 1.15846 83.3074 1.15846C85.5764 1.15846 87.8453 1.15846 90.1143 1.15846C92.6285 1.15846 95.1428 1.15846 97.657 1.15846C100.401 1.15846 103.145 1.15846 105.874 1.15846C108.818 1.15846 111.761 1.15846 114.705 1.15846C117.832 1.15846 120.944 1.15846 124.072 1.15846C127.353 1.15846 130.634 1.15846 133.914 1.15846C137.195 1.15846 140.737 1.15846 144.155 1.15846C147.574 1.15846 151.192 1.15846 154.718 1.15846C158.244 1.15846 161.939 1.15846 165.542 1.15846C169.144 1.15846 172.885 1.15846 176.549 1.15846C180.213 1.15846 183.969 1.15846 187.679 1.15846C191.389 1.15846 195.13 1.15846 198.856 1.15846C202.581 1.15846 206.291 1.15846 210.016 1.15846C213.742 1.15846 217.406 1.15846 221.085 1.15846C224.765 1.15846 228.367 1.15846 232.001 1.15846C235.634 1.15846 239.129 1.15846 242.686 1.15846C246.243 1.15846 249.616 1.15846 253.08 1.15846C256.545 1.15846 259.765 1.15846 263.107 1.15846C266.449 1.15846 269.5 1.15846 272.689 1.15846C275.709 1.15846 278.744 1.15846 281.764 1.15846C284.601 1.15846 287.437 1.15846 290.273 1.15846C292.895 1.15846 295.516 1.15846 298.138 1.15846C300.514 1.15846 302.906 1.15846 305.282 1.15846C307.397 1.15846 309.513 1.15846 311.644 1.15846C313.484 1.15846 315.308 1.15846 317.148 1.15846C318.681 1.15846 320.199 1.15846 321.732 1.15846C322.928 1.15846 324.123 1.15846 325.319 1.15846C326.162 1.15846 327.005 1.15846 327.833 1.15846C328.293 1.15846 328.753 1.15846 329.213 1.15846C329.305 1.15846 329.382 1.15846 329.474 1.15846C350.124 1.15846 366.866 17.805 366.866 38.3388V187.716C366.866 208.25 350.124 224.896 329.474 224.896H207.793" stroke="#4C3D8F" stroke-width="2.5" stroke-miterlimit="10" stroke-linecap="round"/>
<path d="M197 227C198.127 227 199.039 226.093 199.039 224.973C199.039 223.853 198.127 222.945 197 222.945C195.874 222.945 194.961 223.853 194.961 224.973C194.961 226.093 195.874 227 197 227Z" fill="#C5CFE6"/>
<path d="M185.671 227C186.797 227 187.71 226.093 187.71 224.973C187.71 223.853 186.797 222.945 185.671 222.945C184.545 222.945 183.632 223.853 183.632 224.973C183.632 226.093 184.545 227 185.671 227Z" fill="#C5CFE6"/>
<path d="M174.342 227C175.468 227 176.381 226.093 176.381 224.973C176.381 223.853 175.468 222.945 174.342 222.945C173.216 222.945 172.303 223.853 172.303 224.973C172.303 226.093 173.216 227 174.342 227Z" fill="#C5CFE6"/>
<path d="M163.012 227C164.138 227 165.051 226.093 165.051 224.973C165.051 223.853 164.138 222.945 163.012 222.945C161.886 222.945 160.973 223.853 160.973 224.973C160.973 226.093 161.886 227 163.012 227Z" fill="#C5CFE6"/>
<path d="M151.683 227C152.809 227 153.722 226.093 153.722 224.973C153.722 223.853 152.809 222.945 151.683 222.945C150.557 222.945 149.644 223.853 149.644 224.973C149.644 226.093 150.557 227 151.683 227Z" fill="#C5CFE6"/>
<path d="M140.353 227C141.479 227 142.392 226.093 142.392 224.973C142.392 223.853 141.479 222.945 140.353 222.945C139.227 222.945 138.314 223.853 138.314 224.973C138.314 226.093 139.227 227 140.353 227Z" fill="#C5CFE6"/>
<path d="M129.024 227C130.15 227 131.063 226.093 131.063 224.973C131.063 223.853 130.15 222.945 129.024 222.945C127.898 222.945 126.985 223.853 126.985 224.973C126.985 226.093 127.898 227 129.024 227Z" fill="#C5CFE6"/>
<path d="M117.694 227C118.82 227 119.733 226.093 119.733 224.973C119.733 223.853 118.82 222.945 117.694 222.945C116.568 222.945 115.655 223.853 115.655 224.973C115.655 226.093 116.568 227 117.694 227Z" fill="#C5CFE6"/>
<circle cx="63" cy="64" r="34" fill="#F7B375"/>
<g clip-path="url(#clip1_163_205)">
<path d="M63 49C60.2311 49 57.5243 49.8211 55.222 51.3594C52.9197 52.8978 51.1253 55.0843 50.0657 57.6424C49.0061 60.2006 48.7288 63.0155 49.269 65.7313C49.8092 68.447 51.1426 70.9416 53.1005 72.8995C55.0584 74.8574 57.553 76.1908 60.2687 76.731C62.9845 77.2712 65.7994 76.9939 68.3576 75.9343C70.9157 74.8747 73.1022 73.0803 74.6406 70.778C76.1789 68.4757 77 65.7689 77 63C76.996 59.2882 75.5197 55.7296 72.8951 53.1049C70.2704 50.4803 66.7118 49.004 63 49V49ZM74.1685 59.64L63.7758 61.6607C63.6123 61.4082 63.4687 61.1434 63.3465 60.8685L59.4498 51.8852C60.925 51.4123 62.4797 51.2384 64.0229 51.3736C65.566 51.5088 67.0668 51.9503 68.4373 52.6724C69.8078 53.3945 71.0206 54.3826 72.0047 55.579C72.9887 56.7753 73.7244 58.1559 74.1685 59.64V59.64ZM63 74.6667C60.4183 74.6676 57.9093 73.8118 55.8663 72.2333C53.8234 70.6549 52.362 68.4431 51.7113 65.9448C51.0606 63.4464 51.2575 60.8028 52.2709 58.4283C53.2844 56.0538 55.0572 54.0828 57.3113 52.8243L61.2057 61.7972C61.7598 63.0725 62.6299 64.1856 63.7338 65.0312L71.4957 70.9718C70.4084 72.1371 69.0932 73.0663 67.6317 73.702C66.1703 74.3376 64.5937 74.6659 63 74.6667V74.6667ZM72.9167 69.1192L65.7708 63.6498L74.6153 61.9313C74.6468 62.2813 74.669 62.6395 74.669 63C74.668 65.1634 74.0609 67.2832 72.9167 69.1192Z" fill="white"/>
</g>
<path d="M106.365 227C107.491 227 108.404 226.093 108.404 224.973C108.404 223.853 107.491 222.945 106.365 222.945C105.239 222.945 104.326 223.853 104.326 224.973C104.326 226.093 105.239 227 106.365 227Z" fill="#C5CFE6"/>
<path d="M95.0356 227C96.1617 227 97.0746 226.093 97.0746 224.973C97.0746 223.853 96.1617 222.945 95.0356 222.945C93.9095 222.945 92.9966 223.853 92.9966 224.973C92.9966 226.093 93.9095 227 95.0356 227Z" fill="#C5CFE6"/>
<rect x="18" y="168" width="63" height="59" rx="10" fill="#E3EDFF"/>
<path d="M56.0803 207H42.1083V204.06L47.1203 198.992C48.1283 197.947 48.9403 197.079 49.5563 196.388C50.1723 195.679 50.6203 195.044 50.9003 194.484C51.1803 193.905 51.3203 193.289 51.3203 192.636C51.3203 191.833 51.0963 191.236 50.6483 190.844C50.2189 190.452 49.6309 190.256 48.8843 190.256C48.1189 190.256 47.3723 190.433 46.6443 190.788C45.9163 191.143 45.1509 191.647 44.3483 192.3L42.0523 189.584C42.6309 189.08 43.2376 188.613 43.8723 188.184C44.5256 187.755 45.2723 187.409 46.1123 187.148C46.9709 186.868 47.9976 186.728 49.1923 186.728C50.4989 186.728 51.6189 186.971 52.5523 187.456C53.5043 187.923 54.2323 188.567 54.7363 189.388C55.2589 190.191 55.5203 191.105 55.5203 192.132C55.5203 192.972 55.3896 193.747 55.1283 194.456C54.8856 195.165 54.5216 195.856 54.0363 196.528C53.5696 197.181 52.9909 197.863 52.3003 198.572C51.6096 199.263 50.8256 200.019 49.9483 200.84L47.3723 203.248V203.444H56.0803V207Z" fill="#4C3D8F"/>
</g>
<defs>
<clipPath id="clip0_163_205">
<rect width="368" height="227" fill="white"/>
</clipPath>
<clipPath id="clip1_163_205">
<rect width="28" height="28" fill="white" transform="translate(49 49)"/>
</clipPath>
</defs>
</svg>
