<?xml version="1.0" standalone="no"?>
<!DOCTYPE svg PUBLIC "-//W3C//DTD SVG 20010904//EN"
 "http://www.w3.org/TR/2001/REC-SVG-20010904/DTD/svg10.dtd">
<svg version="1.0" xmlns="http://www.w3.org/2000/svg"
 width="631.000000pt" height="631.000000pt" viewBox="0 0 631.000000 631.000000"
 preserveAspectRatio="xMidYMid meet">
<metadata>
Created by potrace 1.14, written by Peter Selinger 2001-2017
</metadata>
<g transform="translate(0.000000,631.000000) scale(0.100000,-0.100000)"
fill="#000000" stroke="none">
<path d="M2329 5022 c0 -9 -1 -228 -1 -485 0 -386 2 -471 13 -482 8 -7 86 -61
174 -120 458 -310 531 -360 537 -369 11 -15 10 -26 12 502 l1 473 -190 128
c-104 71 -224 152 -265 180 -41 28 -82 56 -90 61 -8 6 -54 37 -102 70 -68 46
-88 56 -89 42z"/>
<path d="M3873 4906 c-169 -115 -498 -339 -527 -358 -12 -8 -16 -967 -5 -974
3 -2 84 50 180 114 96 65 253 171 349 236 96 65 181 124 189 131 11 11 13 101
13 494 1 265 -1 483 -3 485 -2 1 -90 -56 -196 -128z"/>
<path d="M1301 4167 c-2 -144 -3 -328 -4 -410 0 -81 4 -151 9 -156 30 -28 738
-501 742 -496 4 3 8 187 9 410 l4 404 -107 73 c-58 40 -117 80 -130 88 -13 8
-63 42 -111 75 -289 197 -374 255 -391 264 -19 10 -19 3 -21 -252z"/>
<path d="M5024 4385 c-34 -23 -151 -103 -260 -177 -110 -75 -248 -169 -309
-210 l-110 -75 0 -402 c0 -222 3 -407 6 -413 3 -5 75 38 160 96 85 57 252 171
371 252 119 80 218 152 220 158 2 6 3 72 2 146 -1 74 -3 253 -4 397 -1 145 -5
265 -9 267 -3 2 -34 -15 -67 -39z"/>
<path d="M2327 3347 c1 -210 2 -395 2 -412 1 -25 11 -37 64 -72 34 -23 114
-77 177 -120 245 -168 489 -333 492 -333 2 0 3 186 3 413 l0 412 -115 80 c-63
45 -198 137 -300 206 -102 69 -212 144 -245 167 -33 23 -64 42 -70 42 -7 0 -9
-133 -8 -383z"/>
<path d="M3930 3644 c-69 -48 -228 -156 -355 -242 -126 -85 -232 -157 -235
-159 -5 -5 -7 -833 -2 -833 2 0 124 82 270 182 337 229 456 310 460 314 9 7 6
824 -3 824 -5 0 -66 -39 -135 -86z"/>
<path d="M1150 3346 c-30 -13 -194 -78 -365 -145 -403 -158 -389 -152 -373
-166 13 -12 75 -55 338 -233 69 -47 152 -104 185 -127 189 -131 255 -175 266
-175 20 0 798 305 811 318 5 5 -18 26 -49 48 -32 21 -60 41 -63 44 -3 3 -13
10 -22 15 -10 6 -41 27 -70 47 -261 181 -583 398 -592 397 -6 0 -36 -11 -66
-23z"/>
<path d="M4904 3186 c-464 -318 -524 -360 -524 -366 0 -3 17 -12 38 -19 20 -7
51 -19 67 -26 17 -7 66 -27 110 -44 44 -17 194 -76 334 -131 140 -55 260 -100
268 -100 7 0 41 19 76 43 34 24 105 73 157 108 52 36 202 139 334 229 l238
163 -33 16 c-44 21 -211 86 -234 91 -5 1 -21 8 -35 15 -27 15 -511 205 -521
205 -3 0 -127 -83 -275 -184z"/>
<path d="M2275 2629 c-11 -5 -130 -52 -265 -105 -489 -191 -530 -208 -530
-215 0 -4 42 -36 93 -70 50 -34 200 -137 332 -227 132 -91 245 -165 251 -165
6 0 60 19 120 43 60 23 154 60 209 82 55 21 109 43 120 48 11 4 56 22 100 39
44 17 94 36 110 42 17 7 32 13 35 14 3 1 14 5 25 10 11 4 40 16 64 25 l44 17
-99 68 c-253 175 -327 226 -437 300 -64 44 -125 85 -135 91 -11 8 -24 9 -37 3z"/>
<path d="M3980 2553 c-69 -47 -195 -133 -280 -191 -85 -58 -184 -126 -219
-150 l-63 -45 68 -27 c74 -29 626 -245 710 -278 l51 -21 174 119 c96 66 179
123 184 127 6 5 64 45 130 88 66 44 126 86 133 93 8 6 22 17 33 22 40 22 67 9
-486 225 -165 64 -302 119 -305 120 -3 2 -62 -35 -130 -82z"/>
<path d="M890 2084 c-146 -57 -330 -130 -410 -161 -80 -31 -148 -59 -153 -63
-4 -3 34 -35 85 -70 51 -35 199 -138 328 -229 129 -90 242 -166 250 -168 8 -2
134 43 280 101 146 57 330 129 410 161 80 31 148 60 152 64 5 4 -58 53 -140
109 -81 56 -151 105 -157 109 -5 5 -47 34 -92 66 -196 136 -272 187 -280 186
-4 0 -127 -47 -273 -105z"/>
<path d="M5057 2072 c-92 -64 -241 -169 -332 -232 -91 -63 -161 -117 -157
-121 4 -4 81 -37 172 -72 561 -221 656 -257 670 -254 12 3 250 167 601 413 30
21 55 44 56 49 0 6 -18 17 -41 26 -23 9 -209 82 -414 162 -205 81 -376 147
-380 147 -4 0 -82 -53 -175 -118z"/>
</g>
</svg>
