<svg width="16" height="16" viewBox="0 0 16 16" fill="none" xmlns="http://www.w3.org/2000/svg">
<path fill-rule="evenodd" clip-rule="evenodd" d="M9.99179 4.63817C9.47445 4.42417 8.89712 4.2535 8.54246 4.6095C8.24646 4.90683 8.07779 6.05817 8.03446 7.33283H2.55046C2.18179 7.33283 1.88379 7.63083 1.88379 7.9995C1.88379 8.36817 2.18179 8.66617 2.55046 8.66617H8.03512C8.07846 9.93817 8.24712 11.0855 8.54312 11.3815C8.69912 11.5375 8.89712 11.5962 9.11246 11.5962C9.41446 11.5962 9.74912 11.4802 10.0418 11.3588C11.0891 10.9255 14.1165 9.09483 14.1165 7.99483C14.1165 6.8595 10.9518 5.03617 9.99179 4.63817Z" fill="#4C3D8F"/>
</svg>
